<?xml version="1.0" encoding="UTF-8" standalone="no"?>
<svg
   xmlns:dc="http://purl.org/dc/elements/1.1/"
   xmlns:cc="http://creativecommons.org/ns#"
   xmlns:rdf="http://www.w3.org/1999/02/22-rdf-syntax-ns#"
   xmlns:svg="http://www.w3.org/2000/svg"
   xmlns="http://www.w3.org/2000/svg"
   xmlns:sodipodi="http://sodipodi.sourceforge.net/DTD/sodipodi-0.dtd"
   xmlns:inkscape="http://www.inkscape.org/namespaces/inkscape"
   height="768"
   width="1024"
   id="svg2"
   version="1.1"
   inkscape:version="0.48.2 r9819"
   sodipodi:docname="nlse_next.svg">
  <metadata
     id="metadata26767">
    <rdf:RDF>
      <cc:Work
         rdf:about="">
        <dc:format>image/svg+xml</dc:format>
        <dc:type
           rdf:resource="http://purl.org/dc/dcmitype/StillImage" />
        <dc:title></dc:title>
      </cc:Work>
    </rdf:RDF>
  </metadata>
  <defs
     id="defs26765">
    <marker
       inkscape:stockid="Arrow1Lstart"
       orient="auto"
       refY="0.0"
       refX="0.0"
       id="Arrow1Lstart"
       style="overflow:visible">
      <path
         id="path5131"
         d="M 0.0,0.0 L 5.0,-5.0 L -12.5,0.0 L 5.0,5.0 L 0.0,0.0 z "
         style="fill-rule:evenodd;stroke:#000000;stroke-width:1.0pt;marker-start:none"
         transform="scale(0.8) translate(12.5,0)" />
    </marker>
    <clipPath
       id="clipPath3146"
       clipPathUnits="userSpaceOnUse">
      <path
         id="path3148"
         d="M 0,0 160,0 160,77 0,77 0,0 z" />
    </clipPath>
    <clipPath
       id="clipPath3140"
       clipPathUnits="userSpaceOnUse">
      <path
         id="path3142"
         d="M 0,0.2 160,0.2 160,77 0,77 0,0.2 z" />
    </clipPath>
    <clipPath
       id="clipPath3236"
       clipPathUnits="userSpaceOnUse">
      <path
         id="path3238"
         d="M 0,0 120,0 120,77 0,77 0,0 z" />
    </clipPath>
    <clipPath
       id="clipPath3230"
       clipPathUnits="userSpaceOnUse">
      <path
         id="path3232"
         d="M 0,0.2 120,0.2 120,77 0,77 0,0.2 z" />
    </clipPath>
    <clipPath
       id="clipPath3317"
       clipPathUnits="userSpaceOnUse">
      <path
         id="path3319"
         d="M 0,0 136,0 136,81 0,81 0,0 z" />
    </clipPath>
    <clipPath
       id="clipPath3407"
       clipPathUnits="userSpaceOnUse">
      <path
         id="path3409"
         d="M 0,0 168,0 168,77 0,77 0,0 z" />
    </clipPath>
    <clipPath
       id="clipPath3401"
       clipPathUnits="userSpaceOnUse">
      <path
         id="path3403"
         d="M 0,0.2 168,0.2 168,77 0,77 0,0.2 z" />
    </clipPath>
    <clipPath
       id="clipPath3494"
       clipPathUnits="userSpaceOnUse">
      <path
         id="path3496"
         d="M 0,0 170,0 170,81 0,81 0,0 z" />
    </clipPath>
    <clipPath
       id="clipPath3587"
       clipPathUnits="userSpaceOnUse">
      <path
         id="path3589"
         d="M 0,0 490,0 490,77 0,77 0,0 z" />
    </clipPath>
    <clipPath
       id="clipPath3581"
       clipPathUnits="userSpaceOnUse">
      <path
         id="path3583"
         d="M 0,0.2 490,0.2 490,77 0,77 0,0.2 z" />
    </clipPath>
    <clipPath
       id="clipPath3725"
       clipPathUnits="userSpaceOnUse">
      <path
         id="path3727"
         d="M 0,0 643,0 643,80 0,80 0,0 z" />
    </clipPath>
    <clipPath
       id="clipPath4939"
       clipPathUnits="userSpaceOnUse">
      <path
         id="path4941"
         d="M 0,0 949,0 949,81 0,81 0,0 z" />
    </clipPath>
    <clipPath
       id="clipPath5766"
       clipPathUnits="userSpaceOnUse">
      <path
         id="path5768"
         d="M 0,0 404,0 404,41 0,41 0,0 z" />
    </clipPath>
    <clipPath
       id="clipPath5877"
       clipPathUnits="userSpaceOnUse">
      <path
         id="path5879"
         d="M 0,0 675,0 675,81 0,81 0,0 z" />
    </clipPath>
    <clipPath
       id="clipPath6054"
       clipPathUnits="userSpaceOnUse">
      <path
         id="path6056"
         d="M 0,0 676,0 676,41 0,41 0,0 z" />
    </clipPath>
  </defs>
  <sodipodi:namedview
     pagecolor="#ffffff"
     bordercolor="#666666"
     borderopacity="1"
     objecttolerance="10"
     gridtolerance="10"
     guidetolerance="10"
     inkscape:pageopacity="0"
     inkscape:pageshadow="2"
     inkscape:window-width="1920"
     inkscape:window-height="1156"
     id="namedview26763"
     showgrid="false"
     inkscape:zoom="0.82987516"
     inkscape:cx="549.02373"
     inkscape:cy="216.84949"
     inkscape:window-x="0"
     inkscape:window-y="0"
     inkscape:window-maximized="0"
     inkscape:current-layer="svg2"
     showguides="true"
     inkscape:guide-bbox="true" />
  <rect
     y="-3.0517578e-05"
     x="2"
     width="1022"
     style="fill:#000000;fill-opacity:1;stroke:none;display:inline"
     id="rect3686"
     height="130"
     sodipodi:insensitive="true" />
  <text
     xml:space="preserve"
     style="font-size:40px;font-style:normal;font-variant:normal;font-weight:normal;font-stretch:normal;text-align:start;line-height:125%;letter-spacing:0px;word-spacing:0px;writing-mode:lr-tb;text-anchor:start;fill:#000000;fill-opacity:1;stroke:none;font-family:Arial;-inkscape-font-specification:Arial"
     x="82.268433"
     y="269.55011"
     id="text5337"
     sodipodi:linespacing="125%"><tspan
       sodipodi:role="line"
       id="tspan5339"
       x="82.268433"
       y="269.55011" /></text>
  <text
     xml:space="preserve"
     style="font-size:40px;font-style:normal;font-variant:normal;font-weight:normal;font-stretch:normal;text-align:start;line-height:125%;letter-spacing:0px;word-spacing:0px;writing-mode:lr-tb;text-anchor:start;fill:#000000;fill-opacity:1;stroke:none;font-family:Arial;-inkscape-font-specification:Arial"
     x="82.268433"
     y="269.55011"
     id="text5337-9"
     sodipodi:linespacing="125%"><tspan
       sodipodi:role="line"
       id="tspan5339-9"
       x="82.268433"
       y="269.55011" /></text>
  <text
     xml:space="preserve"
     style="font-size:40px;font-style:normal;font-variant:normal;font-weight:normal;font-stretch:normal;text-align:start;line-height:125%;letter-spacing:0px;word-spacing:0px;writing-mode:lr-tb;text-anchor:start;fill:#000000;fill-opacity:1;stroke:none;font-family:Arial;-inkscape-font-specification:Arial"
     x="82.268433"
     y="269.55011"
     id="text5337-4"
     sodipodi:linespacing="125%"><tspan
       sodipodi:role="line"
       id="tspan5339-94"
       x="82.268433"
       y="269.55011" /></text>
  <text
     xml:space="preserve"
     style="font-size:40px;font-style:normal;font-variant:normal;font-weight:normal;font-stretch:normal;text-align:start;line-height:125%;letter-spacing:0px;word-spacing:0px;writing-mode:lr-tb;text-anchor:start;fill:#000000;fill-opacity:1;stroke:none;font-family:Arial;-inkscape-font-specification:Arial"
     x="82.268433"
     y="269.55011"
     id="text5337-0"
     sodipodi:linespacing="125%"><tspan
       sodipodi:role="line"
       id="tspan5339-8"
       x="82.268433"
       y="269.55011" /></text>
  <text
     xml:space="preserve"
     style="font-size:40px;font-style:normal;font-variant:normal;font-weight:normal;font-stretch:normal;text-align:start;line-height:125%;letter-spacing:0px;word-spacing:0px;writing-mode:lr-tb;text-anchor:start;fill:#000000;fill-opacity:1;stroke:none;font-family:Arial;-inkscape-font-specification:Arial"
     x="82.268433"
     y="269.55011"
     id="text5337-05"
     sodipodi:linespacing="125%"><tspan
       sodipodi:role="line"
       id="tspan5339-7"
       x="82.268433"
       y="269.55011" /></text>
  <path
     style="fill:none;stroke:#000000;stroke-width:1px;stroke-linecap:butt;stroke-linejoin:miter;stroke-opacity:1"
     d="m -0.970018,383.60483 1026.205518,0"
     id="path5678"
     inkscape:connector-curvature="0"
     sodipodi:nodetypes="cc" />
  <g
     transform="matrix(1.25,0,0,-1.25,259.2306,476.26447)"
     inkscape:label="nlse_small_approx"
     id="nlse_next_1">
    <g
       id="g5760" />
    <g
       id="g5762">
      <g
         clip-path="url(#clipPath5766)"
         id="g5764">
        <path
           id="path5770"
           style="fill:#000000;fill-opacity:1;fill-rule:nonzero;stroke:none"
           d="m 2.31094,34.84221 c 0,0.64689 0,1.29369 -0.71875,1.29369 -0.719143,0 -0.719143,-0.6468 -0.719143,-1.29369 l 0,-33.32815 c 0,-0.646872 0,-1.292185 0.719143,-1.292185 0.71875,0 0.71875,0.645313 0.71875,1.292185 l 0,33.32815"
           inkscape:connector-curvature="0" />
        <path
           id="path5772"
           style="fill:#000000;fill-opacity:1;fill-rule:nonzero;stroke:none"
           d="m 23.9109,33.191 c 0.036,0.1442 0.1082,0.359 0.1082,0.5391 0,0.359 -0.2519,0.3949 -0.4312,0.3949 -0.359,0 -0.3949,-0.0719 -0.5391,-0.7191 L 17.0879,9.66719 c -2.7301,0.322651 -4.0949,1.65191 -4.0949,4.02191 0,0.7187 0,1.6519 1.941,6.68 0.1422,0.4309 0.3941,1.0418 0.3941,1.761 0,1.616 -1.148,2.9437 -2.9441,2.9437 -3.41212,0 -4.74103,-5.2058 -4.74103,-5.5297 0,-0.3589 0.3582,-0.3589 0.43008,-0.3589 0.35898,0 0.39492,0.0718 0.575,0.6468 0.96992,3.411 2.40585,4.4532 3.62815,4.4532 0.2879,0 0.8968,0 0.8968,-1.15 0,-0.9332 -0.3589,-1.8313 -0.825,-3.0891 -1.725,-4.525 -1.725,-5.4582 -1.725,-6.0691 0,-3.4122 2.802,-4.88403 6.25,-5.10005 C 16.5859,7.58516 16.5859,7.51289 16.082,5.60781 15.9738,5.21406 15.2551,2.30508 15.2551,2.19688 c 0,-0.03594 0,-0.35899 0.4308,-0.35899 0.0719,0 0.252,0 0.3231,0.14414 0.1082,0.07188 0.323,0.96992 0.4308,1.47188 l 1.3641,5.351951 c 1.3301,0 4.4891,0 7.866,3.844139 1.4723,1.652 2.227,3.2309 2.6223,4.309 0.3226,0.8969 1.1137,4.0219 1.1137,5.6019 0,2.0129 -0.97,2.5141 -1.5809,2.5141 -0.8969,0 -1.7949,-0.9328 -1.7949,-1.723 0,-0.4668 0.216,-0.6829 0.539,-0.9692 0.395,-0.3949 1.2918,-1.3297 1.2918,-3.0527 0,-2.2981 -1.8668,-5.2442 -3.125,-6.536 C 21.577,9.59688 19.2781,9.59688 17.984,9.59688 l 5.9269,23.59532"
           inkscape:connector-curvature="0" />
        <path
           id="path5774"
           style="fill:#000000;fill-opacity:1;fill-rule:nonzero;stroke:none"
           d="m 43.0879,0.580859 c 0,0.108203 0,0.180079 -0.6109,0.789061 -4.4891,4.525 -5.6372,11.31408 -5.6372,16.80818 0,6.25 1.3641,12.4981 5.78131,16.9879 0.46679,0.4309 0.46679,0.5031 0.46679,0.611 0,0.2519 -0.1438,0.3589 -0.359,0.3589 -0.359,0 -3.59099,-2.4418 -5.709,-7.0031 -1.8328,-3.9519 -2.2621,-7.9367 -2.2621,-10.9547 0,-2.8019 0.3942,-7.1472 2.3703,-11.20505 2.1547,-4.41719 5.2418,-6.751956 5.602,-6.751956 0.216,0 0.359,0.107812 0.359,0.358984"
           inkscape:connector-curvature="0" />
        <path
           id="path5776"
           style="fill:#000000;fill-opacity:1;fill-rule:nonzero;stroke:none"
           d="m 57.1949,20.0449 c 0.216,0.934 1.0422,4.2391 3.5563,4.2391 0.1777,0 1.04101,0 1.79491,-0.4668 C 61.5398,23.6371 60.823,22.7391 60.823,21.8781 c 0,-0.575 0.39421,-1.2582 1.3641,-1.2582 0.791,0 1.93911,0.6473 1.93911,2.0832 0,1.8688 -2.11921,2.3699 -3.3391,2.3699 -2.08401,0 -3.34101,-1.9031 -3.77231,-2.7281 -0.8976,2.3699 -2.8367,2.7281 -3.8777,2.7281 -3.7359,0 -5.7832,-4.6332 -5.7832,-5.53 0,-0.359 0.359,-0.359 0.4313,-0.359 0.2878,0 0.3949,0.0719 0.4668,0.3949 1.2199,3.8063 3.591,4.7051 4.8128,4.7051 0.6813,0 1.9391,-0.3231 1.9391,-2.4059 0,-1.114 -0.6109,-3.5203 -1.9391,-8.548 -0.575,-2.227 -1.8328,-3.73401 -3.4117,-3.73401 -0.216,0 -1.041,0 -1.7953,0.46681 0.8981,0.1801 1.6883,0.9332 1.6883,1.9391 0,0.9691 -0.7891,1.2558 -1.3281,1.2558 -1.0782,0 -1.975,-0.9328 -1.975,-2.0828 0,-1.65195 1.7949,-2.369921 3.375,-2.369921 2.3699,0 3.664,2.514021 3.7718,2.730121 0.4301,-1.3282 1.7231,-2.730121 3.8782,-2.730121 3.698,0 5.7468,4.632821 5.7468,5.530821 0,0.359 -0.32259,0.359 -0.4308,0.359 -0.3231,0 -0.39489,-0.1437 -0.46679,-0.3949 -1.18631,-3.8441 -3.6281,-4.70508 -4.77741,-4.70508 -1.4,0 -1.975,1.14808 -1.975,2.36988 0,0.7911 0.2161,1.5801 0.6114,3.1614 l 1.2199,4.9187"
           inkscape:connector-curvature="0" />
        <path
           id="path5778"
           style="fill:#000000;fill-opacity:1;fill-rule:nonzero;stroke:none"
           d="m 72.991,9.23594 c 0,2.36996 -0.898,3.76996 -2.298,3.76996 -1.186,0 -1.9032,-0.8969 -1.9032,-1.9028 0,-0.9691 0.7172,-1.9031 1.9032,-1.9031 0.4308,0 0.898,0.14414 1.25581,0.46719 0.10819,0.071869 0.14419,0.107811 0.1801,0.107811 0.03589,0 0.07229,-0.035942 0.07229,-0.539061 0,-2.65782 -1.25629,-4.81211 -2.4422,-5.99805 -0.39489,-0.39375 -0.39489,-0.46601 -0.39489,-0.57305 0,-0.25195 0.18,-0.39492 0.35889,-0.39492 0.395,0 3.26921,2.76602 3.26921,6.96719"
           inkscape:connector-curvature="0" />
        <path
           id="path5780"
           style="fill:#000000;fill-opacity:1;fill-rule:nonzero;stroke:none"
           d="m 88.998,23.566 3.377,0 c 0.71721,0 1.077,0 1.077,0.7192 0,0.3949 -0.359,0.3949 -1.00589,0.3949 l -3.15901,0 c 1.29181,5.098 1.4719,5.8168 1.4719,6.0328 0,0.6109 -0.43089,0.9699 -1.041,0.9699 -0.10779,0 -1.1141,-0.0359 -1.43709,-1.2937 l -1.4,-5.709 -3.377,0 c -0.71681,0 -1.07692,0 -1.07692,-0.6832 0,-0.4309 0.28782,-0.4309 1.00501,-0.4309 l 3.161,0 c -2.586,-10.2 -2.73009,-10.809 -2.73009,-11.4558 0,-1.9391 1.36409,-3.305121 3.30509,-3.305121 3.6629,0 5.709,5.243721 5.709,5.530821 0,0.359 -0.28719,0.359 -0.43089,0.359 -0.32231,0 -0.3582,-0.1078 -0.53711,-0.5027 -1.54489,-3.7363 -3.44809,-4.59728 -4.66919,-4.59728 -0.7546,0 -1.1136,0.46718 -1.1136,1.65198 0,0.8633 0.07179,1.114 0.216,1.723 L 89,23.5648"
           inkscape:connector-curvature="0" />
        <path
           id="path5782"
           style="fill:#000000;fill-opacity:1;fill-rule:nonzero;stroke:none"
           d="m 104.88,18.1781 c 0,2.802 -0.395,7.1469 -2.37,11.2059 -2.155,4.4172 -5.244,6.7519 -5.60299,6.7519 -0.21601,0 -0.35901,-0.1437 -0.35901,-0.3589 0,-0.1079 0,-0.1801 0.6829,-0.827 3.5191,-3.5551 5.5671,-9.266 5.5671,-16.7719 0,-6.141 -1.33,-12.46208 -5.78319,-16.98708 C 96.548,0.760938 96.548,0.689062 96.548,0.582031 c 0,-0.216015 0.14421,-0.358984 0.35901,-0.358984 0.35899,0 3.59199,2.441793 5.71099,7.003123 1.831,3.95003 2.263,7.93793 2.263,10.95273"
           inkscape:connector-curvature="0" />
        <path
           id="path5784"
           style="fill:#000000;fill-opacity:1;fill-rule:nonzero;stroke:none"
           d="m 114.211,34.84221 c 0,0.64689 0,1.29369 -0.719,1.29369 -0.719,0 -0.719,-0.6468 -0.719,-1.29369 l 0,-33.32815 c 0,-0.646872 0,-1.292185 0.719,-1.292185 0.719,0 0.719,0.645313 0.719,1.292185 l 0,33.32815"
           inkscape:connector-curvature="0" />
        <path
           id="path5786"
           style="fill:#000000;fill-opacity:1;fill-rule:nonzero;stroke:none"
           d="m 131.158,28.5609 -0.853,0 c -0.075,-0.55 -0.325,-2.03 -0.652,-2.28 -0.2,-0.152 -2.13,-0.152 -2.481,-0.152 l -4.611,0 c 2.631,2.3313 3.508,3.0332 5.013,4.2109 1.855,1.4801 3.584,3.0332 3.584,5.4141 0,3.03321 -2.658,4.8883 -5.866,4.8883 -3.108,0 -5.212,-2.1813 -5.212,-4.4863 0,-1.2778 1.077,-1.4047 1.328,-1.4047 0.602,0 1.328,0.4269 1.328,1.3297 0,0.45 -0.175,1.3281 -1.48,1.3281 0.778,1.7801 2.481,2.3308 3.659,2.3308 2.506,0 3.811,-1.9558 3.811,-3.9859 0,-2.1801 -1.555,-3.909 -2.356,-4.8117 l -6.041,-5.9641 c -0.25,-0.2269 -0.25,-0.2769 -0.25,-0.9781 l 10.325,0 0.753,4.5609"
           inkscape:connector-curvature="0" />
        <path
           id="path5788"
           style="fill:#000000;fill-opacity:1;fill-rule:nonzero;stroke:none"
           d="m 170.43,25.4328 c 0,0.7551 -0.252,1.0781 -0.503,1.0781 -0.144,0 -0.466,-0.1437 -0.502,-0.9699 -0.144,-2.4781 -2.658,-3.95 -4.992,-3.95 -2.083,0 -3.88,1.1129 -5.747,2.3699 -1.939,1.2922 -3.878,2.586 -6.212,2.586 -3.341,0 -5.998,-2.55 -5.998,-5.8547 0,-0.7891 0.288,-1.0774 0.503,-1.0774 0.359,0 0.503,0.6813 0.503,0.825 0.18,3.0172 3.123,4.0954 4.992,4.0954 2.083,0 3.878,-1.1141 5.745,-2.3704 1.939,-1.2937 3.88,-2.5859 6.214,-2.5859 3.339,0 5.997,2.55 5.997,5.8531 l 0,8e-4 z m 0,-8.4027 c 0,1.041 -0.431,1.1129 -0.503,1.1129 -0.144,0 -0.466,-0.1801 -0.502,-0.9692 -0.144,-2.4777 -2.658,-3.9519 -4.992,-3.9519 -2.083,0 -3.88,1.114 -5.747,2.3703 -1.939,1.2937 -3.878,2.5859 -6.212,2.5859 -3.341,0 -5.998,-2.55 -5.998,-5.8531 0,-0.791 0.288,-1.0781 0.503,-1.0781 0.359,0 0.503,0.6832 0.503,0.8269 0.18,3.0172 3.123,4.0942 4.992,4.0942 2.083,0 3.878,-1.1121 5.745,-2.37 1.939,-1.2921 3.88,-2.5859 6.214,-2.5859 3.411,0 5.997,2.6578 5.997,5.8188"
           inkscape:connector-curvature="0" />
        <path
           id="path5790"
           style="fill:#000000;fill-opacity:1;fill-rule:nonzero;stroke:none"
           d="m 188.111,34.84221 c 0,0.64689 0,1.29369 -0.719,1.29369 -0.719,0 -0.719,-0.6468 -0.719,-1.29369 l 0,-33.32815 c 0,-0.646872 0,-1.292185 0.719,-1.292185 0.719,0 0.719,0.645313 0.719,1.292185 l 0,33.32815"
           inkscape:connector-curvature="0" />
        <path
           id="path5792"
           style="fill:#000000;fill-opacity:1;fill-rule:nonzero;stroke:none"
           d="m 209.611,33.191 c 0.036,0.1442 0.108,0.359 0.108,0.5391 0,0.359 -0.252,0.3949 -0.431,0.3949 -0.359,0 -0.395,-0.0719 -0.539,-0.7191 L 202.788,9.66719 c -2.73,0.322651 -4.095,1.65191 -4.095,4.02191 0,0.7187 0,1.6519 1.941,6.68 0.142,0.4309 0.394,1.0418 0.394,1.761 0,1.616 -1.148,2.9437 -2.944,2.9437 -3.412,0 -4.741,-5.2058 -4.741,-5.5297 0,-0.3589 0.358,-0.3589 0.43,-0.3589 0.359,0 0.395,0.0718 0.575,0.6468 0.97,3.411 2.406,4.4532 3.628,4.4532 0.288,0 0.897,0 0.897,-1.15 0,-0.9332 -0.359,-1.8313 -0.825,-3.0891 -1.725,-4.525 -1.725,-5.4582 -1.725,-6.0691 0,-3.4122 2.802,-4.88403 6.25,-5.10005 -0.287,-1.29179 -0.287,-1.36406 -0.791,-3.26914 -0.108,-0.39375 -0.827,-3.30273 -0.827,-3.41093 0,-0.03594 0,-0.35899 0.431,-0.35899 0.072,0 0.252,0 0.323,0.14414 0.108,0.07188 0.323,0.96992 0.431,1.47188 l 1.364,5.351951 c 1.33,0 4.489,0 7.866,3.844139 1.472,1.652 2.227,3.2309 2.622,4.309 0.323,0.8969 1.114,4.0219 1.114,5.6019 0,2.0129 -0.97,2.5141 -1.581,2.5141 -0.897,0 -1.795,-0.9328 -1.795,-1.723 0,-0.4668 0.216,-0.6829 0.539,-0.9692 0.395,-0.3949 1.292,-1.3297 1.292,-3.0527 0,-2.2981 -1.867,-5.2442 -3.125,-6.536 -3.159,-3.19722 -5.458,-3.19722 -6.752,-3.19722 l 5.927,23.59532"
           inkscape:connector-curvature="0" />
        <path
           id="path5794"
           style="fill:#000000;fill-opacity:1;fill-rule:nonzero;stroke:none"
           d="m 228.888,0.580859 c 0,0.108203 0,0.180079 -0.611,0.789061 -4.489,4.525 -5.637,11.31408 -5.637,16.80818 0,6.25 1.364,12.4981 5.781,16.9879 0.467,0.4309 0.467,0.5031 0.467,0.611 0,0.2519 -0.144,0.3589 -0.359,0.3589 -0.359,0 -3.591,-2.4418 -5.709,-7.0031 -1.833,-3.9519 -2.262,-7.9367 -2.262,-10.9547 0,-2.8019 0.394,-7.1472 2.37,-11.20505 2.155,-4.41719 5.242,-6.751956 5.602,-6.751956 0.216,0 0.359,0.107812 0.359,0.358984"
           inkscape:connector-curvature="0" />
        <path
           id="path5796"
           style="fill:#000000;fill-opacity:1;fill-rule:nonzero;stroke:none"
           d="m 242.895,20.0449 c 0.216,0.934 1.042,4.2391 3.556,4.2391 0.178,0 1.041,0 1.795,-0.4668 -1.006,-0.1801 -1.723,-1.0781 -1.723,-1.9391 0,-0.575 0.394,-1.2582 1.364,-1.2582 0.791,0 1.939,0.6473 1.939,2.0832 0,1.8688 -2.119,2.3699 -3.339,2.3699 -2.084,0 -3.341,-1.9031 -3.772,-2.7281 -0.898,2.3699 -2.837,2.7281 -3.878,2.7281 -3.736,0 -5.783,-4.6332 -5.783,-5.53 0,-0.359 0.359,-0.359 0.431,-0.359 0.288,0 0.395,0.0719 0.467,0.3949 1.22,3.8063 3.591,4.7051 4.813,4.7051 0.681,0 1.939,-0.3231 1.939,-2.4059 0,-1.114 -0.611,-3.5203 -1.939,-8.548 -0.575,-2.227 -1.833,-3.73401 -3.412,-3.73401 -0.216,0 -1.041,0 -1.795,0.46681 0.898,0.1801 1.688,0.9332 1.688,1.9391 0,0.9691 -0.789,1.2558 -1.328,1.2558 -1.078,0 -1.975,-0.9328 -1.975,-2.0828 0,-1.65195 1.795,-2.369921 3.375,-2.369921 2.37,0 3.664,2.514021 3.772,2.730121 0.43,-1.3282 1.723,-2.730121 3.878,-2.730121 3.698,0 5.747,4.632821 5.747,5.530821 0,0.359 -0.323,0.359 -0.431,0.359 -0.323,0 -0.395,-0.1437 -0.467,-0.3949 -1.186,-3.8441 -3.628,-4.70508 -4.777,-4.70508 -1.4,0 -1.975,1.14808 -1.975,2.36988 0,0.7911 0.216,1.5801 0.611,3.1614 l 1.22,4.9187"
           inkscape:connector-curvature="0" />
        <path
           id="path5798"
           style="fill:#000000;fill-opacity:1;fill-rule:nonzero;stroke:none"
           d="m 258.691,9.23594 c 0,2.36996 -0.898,3.76996 -2.298,3.76996 -1.186,0 -1.903,-0.8969 -1.903,-1.9028 0,-0.9691 0.717,-1.9031 1.903,-1.9031 0.431,0 0.898,0.14414 1.256,0.46719 0.108,0.071869 0.144,0.107811 0.18,0.107811 0.036,0 0.072,-0.035942 0.072,-0.539061 0,-2.65782 -1.256,-4.81211 -2.442,-5.99805 -0.395,-0.39375 -0.395,-0.46601 -0.395,-0.57305 0,-0.25195 0.18,-0.39492 0.359,-0.39492 0.395,0 3.269,2.76602 3.269,6.96719"
           inkscape:connector-curvature="0" />
        <path
           id="path5800"
           style="fill:#000000;fill-opacity:1;fill-rule:nonzero;stroke:none"
           d="m 274.798,23.566 3.377,0 c 0.717,0 1.077,0 1.077,0.7192 0,0.3949 -0.359,0.3949 -1.006,0.3949 l -3.159,0 c 1.292,5.098 1.472,5.8168 1.472,6.0328 0,0.6109 -0.431,0.9699 -1.041,0.9699 -0.108,0 -1.114,-0.0359 -1.437,-1.2937 l -1.4,-5.709 -3.377,0 c -0.717,0 -1.077,0 -1.077,-0.6832 0,-0.4309 0.288,-0.4309 1.005,-0.4309 l 3.161,0 c -2.586,-10.2 -2.73,-10.809 -2.73,-11.4558 0,-1.9391 1.364,-3.305121 3.305,-3.305121 3.663,0 5.709,5.243721 5.709,5.530821 0,0.359 -0.287,0.359 -0.431,0.359 -0.322,0 -0.358,-0.1078 -0.537,-0.5027 -1.545,-3.7363 -3.448,-4.59728 -4.669,-4.59728 -0.755,0 -1.114,0.46718 -1.114,1.65198 0,0.8633 0.072,1.114 0.216,1.723 l 2.658,10.5949"
           inkscape:connector-curvature="0" />
        <path
           id="path5802"
           style="fill:#000000;fill-opacity:1;fill-rule:nonzero;stroke:none"
           d="m 302.989,17.4609 10.02,0 c 0.503,0 1.184,0 1.184,0.7172 0,0.7188 -0.681,0.7188 -1.184,0.7188 l -10.02,0 0,10.0562 c 0,0.5028 0,1.184 -0.719,1.184 -0.719,0 -0.719,-0.6812 -0.719,-1.184 l 0,-10.0562 -10.055,0 c -0.503,0 -1.186,0 -1.186,-0.7188 0,-0.7172 0.683,-0.7172 1.186,-0.7172 l 10.055,0 0,-10.05582 c 0,-0.50313 0,-1.18594 0.719,-1.18594 0.719,0 0.719,0.68281 0.719,1.18594 l 0,10.05582"
           inkscape:connector-curvature="0" />
        <path
           id="path5804"
           style="fill:#000000;fill-opacity:1;fill-rule:nonzero;stroke:none"
           d="m 339.973,34.2691 c -0.25,0.4661 -0.322,0.645 -0.933,0.645 -0.611,0 -0.683,-0.1801 -0.934,-0.645 L 325.967,9.91914 c -0.18,-0.32305 -0.18,-0.395311 -0.18,-0.43125 0,-0.28672 0.216,-0.28672 0.791,-0.28672 l 24.925,0 c 0.573,0 0.789,0 0.789,0.287889 0,0.035942 0,0.107821 -0.18,0.430861 l -12.139,24.34998 0,-8e-4 z m -2.082,-2.9461 9.661,-19.3941 -19.358,0 9.697,19.3941"
           inkscape:connector-curvature="0" />
        <path
           id="path5806"
           style="fill:#000000;fill-opacity:1;fill-rule:nonzero;stroke:none"
           d="m 361.398,23.566 3.377,0 c 0.717,0 1.077,0 1.077,0.7192 0,0.3949 -0.359,0.3949 -1.006,0.3949 l -3.159,0 c 1.292,5.098 1.472,5.8168 1.472,6.0328 0,0.6109 -0.431,0.9699 -1.041,0.9699 -0.108,0 -1.114,-0.0359 -1.437,-1.2937 l -1.4,-5.709 -3.377,0 c -0.717,0 -1.077,0 -1.077,-0.6832 0,-0.4309 0.288,-0.4309 1.005,-0.4309 l 3.161,0 c -2.586,-10.2 -2.73,-10.809 -2.73,-11.4558 0,-1.9391 1.364,-3.305121 3.305,-3.305121 3.663,0 5.709,5.243721 5.709,5.530821 0,0.359 -0.287,0.359 -0.431,0.359 -0.322,0 -0.358,-0.1078 -0.537,-0.5027 -1.545,-3.7363 -3.448,-4.59728 -4.669,-4.59728 -0.755,0 -1.114,0.46718 -1.114,1.65198 0,0.8633 0.072,1.114 0.216,1.723 l 2.658,10.5949"
           inkscape:connector-curvature="0" />
        <path
           id="path5808"
           style="fill:#000000;fill-opacity:1;fill-rule:nonzero;stroke:none"
           d="m 377.38,18.1781 c 0,2.802 -0.395,7.1469 -2.37,11.2059 -2.155,4.4172 -5.244,6.7519 -5.603,6.7519 -0.216,0 -0.359,-0.1437 -0.359,-0.3589 0,-0.1079 0,-0.1801 0.683,-0.827 3.519,-3.5551 5.567,-9.266 5.567,-16.7719 0,-6.141 -1.33,-12.46208 -5.783,-16.98708 -0.467,-0.430082 -0.467,-0.501958 -0.467,-0.608989 0,-0.216015 0.144,-0.358984 0.359,-0.358984 0.359,0 3.592,2.441793 5.711,7.003123 1.831,3.95003 2.263,7.93793 2.263,10.95273"
           inkscape:connector-curvature="0" />
        <path
           id="path5810"
           style="fill:#000000;fill-opacity:1;fill-rule:nonzero;stroke:none"
           d="m 386.611,34.84221 c 0,0.64689 0,1.29369 -0.719,1.29369 -0.719,0 -0.719,-0.6468 -0.719,-1.29369 l 0,-33.32815 c 0,-0.646872 0,-1.292185 0.719,-1.292185 0.719,0 0.719,0.645313 0.719,1.292185 l 0,33.32815"
           inkscape:connector-curvature="0" />
        <path
           id="path5812"
           style="fill:#000000;fill-opacity:1;fill-rule:nonzero;stroke:none"
           d="m 403.558,28.5609 -0.853,0 c -0.075,-0.55 -0.325,-2.03 -0.652,-2.28 -0.2,-0.152 -2.13,-0.152 -2.481,-0.152 l -4.611,0 c 2.631,2.3313 3.508,3.0332 5.013,4.2109 1.855,1.4801 3.584,3.0332 3.584,5.4141 0,3.03321 -2.658,4.8883 -5.866,4.8883 -3.108,0 -5.212,-2.1813 -5.212,-4.4863 0,-1.2778 1.077,-1.4047 1.328,-1.4047 0.602,0 1.328,0.4269 1.328,1.3297 0,0.45 -0.175,1.3281 -1.48,1.3281 0.778,1.7801 2.481,2.3308 3.659,2.3308 2.506,0 3.811,-1.9558 3.811,-3.9859 0,-2.1801 -1.555,-3.909 -2.356,-4.8117 l -6.041,-5.9641 c -0.25,-0.2269 -0.25,-0.2769 -0.25,-0.9781 l 10.325,0 0.753,4.5609"
           inkscape:connector-curvature="0" />
      </g>
    </g>
  </g>
  <g
     transform="matrix(1.25,0,0,-1.25,90.360507,731.8551)"
     inkscape:label="nsle_absorbed"
     id="nlse_next_3">
    <g
       id="g5871" />
    <g
       id="g5873">
      <g
         clip-path="url(#clipPath5877)"
         id="g5875">
        <path
           id="path5881"
           style="fill:#000000;fill-opacity:1;fill-rule:nonzero;stroke:none"
           d="m 9.400001,48.7469 c 0,0.7172 -0.503121,1.2922 -1.330081,1.2922 -0.96875,0 -1.93906,-0.9332 -1.93906,-1.9032 0,-0.68279 0.50312,-1.29369 1.36602,-1.29369 0.824999,0 1.903121,0.82689 1.903121,1.90469 z M 6.669919,35.2422 c 0.431251,1.0418 0.431251,1.1137 0.791021,2.0828 0.28594,0.7191 0.46601,1.2219 0.46601,1.9051 0,1.616 -1.14804,2.9437 -2.94414,2.9437 -3.37695,0 -4.740622,-5.2058 -4.740622,-5.5297 0,-0.3589 0.357812,-0.3589 0.429687,-0.3589 0.358985,0 0.395315,0.0718 0.575005,0.6468 0.97031,3.375 2.40624,4.4532 3.62812,4.4532 0.28789,0 0.89688,0 0.89688,-1.15 0,-0.7532 -0.25196,-1.5082 -0.39493,-1.8672 -0.28593,-0.934 -1.90312,-5.1 -2.47812,-6.6442 -0.35781,-0.934 -0.825,-2.1187 -0.825,-2.8726 0,-1.6871 1.22031,-2.9453 2.94531,-2.9453 3.375,0 4.70469,5.2082 4.70469,5.5312 0,0.359 -0.32266,0.359 -0.43086,0.359 -0.35899,0 -0.35899,-0.1082 -0.53906,-0.6473 -0.64688,-2.2617 -1.83086,-4.4527 -3.66172,-4.4527 -0.61133,0 -0.86211,0.359 -0.86211,1.184 0,0.898 0.21601,1.4019 1.04101,3.5918 l 1.40196,3.7703"
           inkscape:connector-curvature="0" />
        <path
           id="path5883"
           style="fill:#000000;fill-opacity:1;fill-rule:nonzero;stroke:none"
           d="m 34.0281,62.775 c -0.359,2.227 -1.8312,4.2379 -4.6332,4.2379 -2.191,0 -4.525,-0.575 -7.3269,-3.37499 C 19.0871,60.657 18.8352,57.316 18.8352,56.2039 c 0,-2.2269 1.5808,-6.3937 6.6089,-6.3937 8.5469,0 12.2829,12.0668 12.2829,17.2027 0,5.71091 -3.3411,9.3019 -7.7579,9.3019 -5.2082,0 -6.8589,-4.66869 -6.8589,-5.6726 0,-0.50309 0.2878,-1.2582 1.3636,-1.2582 1.1864,0 1.9391,1.0781 1.9391,1.9031 0,1.25781 -1.1117,1.25781 -1.6867,1.25781 1.5797,2.65819 4.1297,2.87309 5.1718,2.87309 2.6219,0 5.136,-1.86919 5.136,-6.502 0,-1.4 -0.216,-3.2308 -0.9699,-6.141 l -0.036,0 z m -8.475,-11.959 c -3.9519,0 -3.9519,3.69811 -3.9519,4.05781 0,0.97029 0.8976,5.9981 2.3699,8.15319 1.4379,2.04681 3.1969,3.19681 5.423,3.19681 3.9137,0 3.986,-4.02261 3.986,-4.74181 0,-2.584 -2.2981,-10.666 -7.8281,-10.666"
           inkscape:connector-curvature="0" />
        <g
           transform="scale(0.1,0.1)"
           id="g5885">
          <path
             id="path5887"
             style="fill:none;stroke:#000000;stroke-width:14.32800007;stroke-linecap:butt;stroke-linejoin:miter;stroke-miterlimit:10;stroke-opacity:1;stroke-dasharray:none"
             d="m 158.75,353.121 339.84,0"
             inkscape:connector-curvature="0" />
        </g>
        <path
           id="path5889"
           style="fill:#000000;fill-opacity:1;fill-rule:nonzero;stroke:none"
           d="m 32.5281,13.875 c -0.359,2.227 -1.8312,4.2379 -4.6332,4.2379 -2.191,0 -4.525,-0.575 -7.3269,-3.375 -2.9809,-2.9809 -3.2328,-6.321881 -3.2328,-7.43399 0,-2.22696 1.5808,-6.393754 6.6089,-6.393754 8.5469,0 12.2829,12.066844 12.2829,17.202744 0,5.7109 -3.3411,9.3019 -7.7579,9.3019 -5.2082,0 -6.8589,-4.6687 -6.8589,-5.6726 0,-0.5031 0.2878,-1.2582 1.3636,-1.2582 1.1864,0 1.9391,1.0781 1.9391,1.9031 0,1.2578 -1.1117,1.2578 -1.6867,1.2578 1.5797,2.6582 4.1297,2.8731 5.1718,2.8731 2.6219,0 5.136,-1.8692 5.136,-6.502 0,-1.4 -0.216,-3.2308 -0.9699,-6.141 l -0.036,0 z M 24.0531,1.91602 c -3.9519,0 -3.9519,3.69804 -3.9519,4.05781 0,0.97031 0.8976,5.99807 2.3699,8.15317 1.4379,2.0468 3.1969,3.1968 5.423,3.1968 3.9137,0 3.986,-4.0226 3.986,-4.7418 0,-2.58395 -2.2981,-10.66598 -7.8281,-10.66598"
           inkscape:connector-curvature="0" />
        <path
           id="path5891"
           style="fill:#000000;fill-opacity:1;fill-rule:nonzero;stroke:none"
           d="m 44.298,16.066 3.377,0 c 0.7172,0 1.077,0 1.077,0.7192 0,0.3949 -0.359,0.3949 -1.00589,0.3949 l -3.15901,0 c 1.2918,5.098 1.4719,5.8168 1.4719,6.0328 0,0.6109 -0.43089,0.9699 -1.041,0.9699 -0.1078,0 -1.1141,-0.0359 -1.4371,-1.2937 l -1.4,-5.709 -3.37699,0 c -0.71681,0 -1.07691,0 -1.07691,-0.6832 0,-0.4309 0.2878,-0.4309 1.005,-0.4309 l 3.161,0 C 39.307,5.86602 39.1629,5.25703 39.1629,4.61016 c 0,-1.93907 1.3641,-3.30508 3.3051,-3.30508 3.6629,0 5.709,5.24375 5.709,5.53086 0,0.35898 -0.2872,0.35898 -0.43089,0.35898 -0.3223,0 -0.3582,-0.10781 -0.53711,-0.50273 -1.5449,-3.73633 -3.4481,-4.59727 -4.6692,-4.59727 -0.7546,0 -1.1136,0.46719 -1.1136,1.65196 0,0.86328 0.0718,1.11406 0.216,1.72304 L 44.3,16.0648"
           inkscape:connector-curvature="0" />
        <path
           id="path5893"
           style="fill:#000000;fill-opacity:1;fill-rule:nonzero;stroke:none"
           d="m 71.5109,50.291 c 0.03601,0.1442 0.1082,0.359 0.1082,0.5391 0,0.359 -0.25189,0.3949 -0.4312,0.3949 -0.35899,0 -0.3949,-0.0719 -0.5391,-0.7191 L 64.6879,26.7672 c -2.7301,0.3226 -4.0949,1.6519 -4.0949,4.0219 0,0.7187 0,1.6519 1.941,6.68 0.1422,0.4309 0.3941,1.0418 0.3941,1.761 0,1.616 -1.148,2.9437 -2.9441,2.9437 -3.41209,0 -4.741,-5.2058 -4.741,-5.5297 0,-0.3589 0.3582,-0.3589 0.43,-0.3589 0.359,0 0.395,0.0718 0.575,0.6468 0.97,3.411 2.4059,4.4532 3.6282,4.4532 0.2879,0 0.8968,0 0.8968,-1.15 0,-0.9332 -0.3589,-1.8313 -0.825,-3.0891 -1.725,-4.52499 -1.725,-5.4582 -1.725,-6.0691 0,-3.4122 2.802,-4.884 6.25,-5.1 -0.28709,-1.2918 -0.28709,-1.3641 -0.791,-3.2692 -0.1082,-0.3937 -0.8269,-3.3027 -0.8269,-3.4109 0,-0.036 0,-0.359 0.4308,-0.359 0.0719,0 0.252,0 0.3231,0.1441 0.10821,0.0719 0.323,0.97 0.4308,1.4719 l 1.3641,5.352 c 1.3301,0 4.4891,0 7.86601,3.8441 1.4723,1.652 2.227,3.2309 2.62229,4.309 0.32261,0.8969 1.11371,4.0219 1.11371,5.6019 0,2.0129 -0.97001,2.5141 -1.58091,2.5141 -0.8969,0 -1.7949,-0.9328 -1.7949,-1.723 0,-0.4668 0.21601,-0.6829 0.53901,-0.9692 0.395,-0.3949 1.29179,-1.3297 1.29179,-3.0527 0,-2.2981 -1.86679,-5.2442 -3.125,-6.536 -3.15891,-3.1972 -5.45779,-3.1972 -6.7519,-3.1972 l 5.9269,23.5953"
           inkscape:connector-curvature="0" />
        <path
           id="path5895"
           style="fill:#000000;fill-opacity:1;fill-rule:nonzero;stroke:none"
           d="m 90.6879,17.6809 c 0,0.1082 0,0.18 -0.6109,0.789 -4.48909,4.525 -5.6372,11.3141 -5.6372,16.8082 0,6.25 1.36411,12.4981 5.78131,16.9879 0.46679,0.43091 0.46679,0.5031 0.46679,0.611 0,0.2519 -0.14379,0.3589 -0.35899,0.3589 -0.35901,0 -3.591,-2.4418 -5.70901,-7.0031 -1.8328,-3.9519 -2.26209,-7.9367 -2.26209,-10.9547 0,-2.8019 0.39419,-7.1472 2.3703,-11.2051 2.15469,-4.4171 5.24179,-6.7519 5.60199,-6.7519 0.216,0 0.35901,0.1078 0.35901,0.359"
           inkscape:connector-curvature="0" />
        <path
           id="path5897"
           style="fill:#000000;fill-opacity:1;fill-rule:nonzero;stroke:none"
           d="m 104.795,37.1449 c 0.216,0.934 1.042,4.2391 3.556,4.2391 0.178,0 1.041,0 1.795,-0.4668 -1.006,-0.1801 -1.723,-1.0781 -1.723,-1.9391 0,-0.575 0.394,-1.2582 1.364,-1.2582 0.791,0 1.939,0.6473 1.939,2.0832 0,1.8688 -2.119,2.3699 -3.339,2.3699 -2.084,0 -3.341,-1.9031 -3.772,-2.7281 -0.898,2.3699 -2.837,2.7281 -3.878,2.7281 -3.73579,0 -5.78309,-4.6332 -5.78309,-5.53 0,-0.359 0.35899,-0.359 0.4313,-0.359 0.28779,0 0.3949,0.0719 0.46679,0.39491 1.21991,3.80629 3.591,4.70509 4.813,4.70509 0.681,0 1.939,-0.3231 1.939,-2.4059 0,-1.114 -0.611,-3.5203 -1.939,-8.548 -0.575,-2.227 -1.833,-3.734 -3.41189,-3.734 -0.21601,0 -1.04101,0 -1.7953,0.4668 0.89809,0.1801 1.6883,0.9332 1.6883,1.9391 0,0.9691 -0.78911,1.2558 -1.32811,1.2558 -1.07819,0 -1.975,-0.9328 -1.975,-2.0828 0,-1.652 1.7949,-2.3699 3.375,-2.3699 2.36991,0 3.664,2.514 3.772,2.7301 0.43,-1.3282 1.723,-2.7301 3.878,-2.7301 3.698,0 5.747,4.6328 5.747,5.5308 0,0.359 -0.323,0.359 -0.431,0.359 -0.323,0 -0.395,-0.1437 -0.467,-0.3949 -1.186,-3.8441 -3.628,-4.7051 -4.777,-4.7051 -1.4,0 -1.975,1.1481 -1.975,2.3699 0,0.7911 0.216,1.5801 0.611,3.1614 l 1.22,4.9187"
           inkscape:connector-curvature="0" />
        <path
           id="path5899"
           style="fill:#000000;fill-opacity:1;fill-rule:nonzero;stroke:none"
           d="m 120.591,26.3359 c 0,2.37 -0.898,3.77 -2.298,3.77 -1.186,0 -1.903,-0.8969 -1.903,-1.9028 0,-0.9691 0.717,-1.9031 1.903,-1.9031 0.431,0 0.898,0.1441 1.256,0.4672 0.108,0.0719 0.144,0.1078 0.18,0.1078 0.036,0 0.072,-0.0359 0.072,-0.5391 0,-2.6578 -1.256,-4.8121 -2.442,-5.998 -0.395,-0.3938 -0.395,-0.466 -0.395,-0.5731 0,-0.2519 0.18,-0.3949 0.359,-0.3949 0.395,0 3.269,2.766 3.269,6.9672"
           inkscape:connector-curvature="0" />
        <path
           id="path5901"
           style="fill:#000000;fill-opacity:1;fill-rule:nonzero;stroke:none"
           d="m 136.598,40.666 3.377,0 c 0.717,0 1.077,0 1.077,0.7192 0,0.3949 -0.359,0.3949 -1.006,0.3949 l -3.159,0 c 1.292,5.09801 1.472,5.8168 1.472,6.0328 0,0.61091 -0.431,0.9699 -1.041,0.9699 -0.108,0 -1.114,-0.0359 -1.437,-1.2937 l -1.4,-5.709 -3.377,0 c -0.717,0 -1.077,0 -1.077,-0.6832 0,-0.4309 0.288,-0.4309 1.005,-0.4309 l 3.161,0 c -2.586,-10.2 -2.73,-10.809 -2.73,-11.4558 0,-1.9391 1.364,-3.3051 3.305,-3.3051 3.663,0 5.709,5.2437 5.709,5.5308 0,0.359 -0.287,0.359 -0.431,0.359 -0.322,0 -0.358,-0.1078 -0.537,-0.5027 -1.545,-3.7363 -3.448,-4.5973 -4.669,-4.5973 -0.755,0 -1.114,0.4672 -1.114,1.652 0,0.8633 0.072,1.114 0.216,1.723 l 2.658,10.5949"
           inkscape:connector-curvature="0" />
        <path
           id="path5903"
           style="fill:#000000;fill-opacity:1;fill-rule:nonzero;stroke:none"
           d="m 152.58,35.2781 c 0,2.802 -0.395,7.1469 -2.37,11.2059 -2.155,4.4172 -5.244,6.7519 -5.603,6.7519 -0.216,0 -0.359,-0.1437 -0.359,-0.3589 0,-0.1079 0,-0.18009 0.683,-0.827 3.519,-3.5551 5.567,-9.266 5.567,-16.7719 0,-6.141 -1.33,-12.4621 -5.783,-16.9871 -0.467,-0.4301 -0.467,-0.5019 -0.467,-0.609 0,-0.216 0.144,-0.359 0.359,-0.359 0.359,0 3.592,2.4418 5.711,7.0032 1.831,3.95 2.263,7.9379 2.263,10.9527"
           inkscape:connector-curvature="0" />
        <path
           id="path5905"
           style="fill:#000000;fill-opacity:1;fill-rule:nonzero;stroke:none"
           d="m 190.773,38.0441 c 0.539,0 1.22,0 1.22,0.71881 0,0.71909 -0.681,0.71909 -1.184,0.71909 l -21.512,0 c -0.503,0 -1.186,0 -1.186,-0.71909 0,-0.71881 0.683,-0.71881 1.222,-0.71881 l 21.441,0 -0.001,0 z m 0.036,-6.9671 c 0.503,0 1.184,0 1.184,0.7191 0,0.71681 -0.681,0.71681 -1.22,0.71681 l -21.441,0 c -0.539,0 -1.222,0 -1.222,-0.71681 0,-0.7191 0.683,-0.7191 1.186,-0.7191 l 21.513,0"
           inkscape:connector-curvature="0" />
        <path
           id="path5907"
           style="fill:#000000;fill-opacity:1;fill-rule:nonzero;stroke:none"
           d="m 227.567,34.5609 c 0.611,0 1.258,0 1.258,0.7172 0,0.7188 -0.647,0.7188 -1.258,0.7188 l -19.43,0 c -0.611,0 -1.256,0 -1.256,-0.7188 0,-0.7172 0.645,-0.7172 1.256,-0.7172 l 19.43,0"
           inkscape:connector-curvature="0" />
        <path
           id="path5909"
           style="fill:#000000;fill-opacity:1;fill-rule:nonzero;stroke:none"
           d="m 246.659,73.584 c 0,0.86291 0,0.934 -0.827,0.934 -2.227,-2.2981 -5.387,-2.2981 -6.536,-2.2981 l 0,-1.114 c 0.717,0 2.836,0 4.705,0.9339 l 0,-18.6027 c 0,-1.2941 -0.108,-1.72299 -3.341,-1.72299 l -1.148,0 0,-1.11411 c 1.256,0.10781 4.381,0.10781 5.817,0.10781 1.438,0 4.561,0 5.819,-0.10781 l 0,1.11411 -1.15,0 c -3.231,0 -3.339,0.39369 -3.339,1.72299 l 0,20.1469"
           inkscape:connector-curvature="0" />
        <g
           transform="scale(0.1,0.1)"
           id="g5911">
          <path
             id="path5913"
             style="fill:none;stroke:#000000;stroke-width:14.32800007;stroke-linecap:butt;stroke-linejoin:miter;stroke-miterlimit:10;stroke-opacity:1;stroke-dasharray:none"
             d="m 2361.2,353.121 179.32,0"
             inkscape:connector-curvature="0" />
        </g>
        <path
           id="path5915"
           style="fill:#000000;fill-opacity:1;fill-rule:nonzero;stroke:none"
           d="m 240.661,4.46602 3.808,3.69804 c 5.602,4.95584 7.756,6.89494 7.756,10.48794 0,4.0941 -3.231,6.9671 -7.614,6.9671 -4.058,0 -6.716,-3.305 -6.716,-6.5 0,-2.0113 1.797,-2.0113 1.903,-2.0113 0.611,0 1.869,0.4301 1.869,1.9031 0,0.9332 -0.647,1.8672 -1.905,1.8672 -0.286,0 -0.358,0 -0.466,-0.0359 0.825,2.334 2.766,3.6637 4.848,3.6637 3.267,0 4.813,-2.909 4.813,-5.8547 0,-2.8731 -1.797,-5.7114 -3.772,-7.9371 L 238.29,3.02812 C 237.895,2.63398 237.895,2.56211 237.895,1.7 l 13.325,0 1.005,6.24805 -0.897,0 c -0.18,-1.07696 -0.431,-2.65586 -0.791,-3.19493 -0.252,-0.2871 -2.622,-0.2871 -3.412,-0.2871 l -6.464,0"
           inkscape:connector-curvature="0" />
        <path
           id="path5917"
           style="fill:#000000;fill-opacity:1;fill-rule:nonzero;stroke:none"
           d="m 284.528,62.775 c -0.359,2.227 -1.831,4.2379 -4.633,4.2379 -2.191,0 -4.525,-0.575 -7.327,-3.37499 -2.981,-2.98091 -3.233,-6.32191 -3.233,-7.43401 0,-2.2269 1.581,-6.3937 6.609,-6.3937 8.547,0 12.283,12.0668 12.283,17.2027 0,5.71091 -3.341,9.3019 -7.758,9.3019 -5.208,0 -6.859,-4.66869 -6.859,-5.6726 0,-0.50309 0.288,-1.2582 1.364,-1.2582 1.186,0 1.939,1.0781 1.939,1.9031 0,1.25781 -1.112,1.25781 -1.687,1.25781 1.58,2.65819 4.13,2.87309 5.172,2.87309 2.622,0 5.136,-1.86919 5.136,-6.502 0,-1.4 -0.216,-3.2308 -0.97,-6.141 l -0.036,0 z m -8.475,-11.959 c -3.952,0 -3.952,3.69811 -3.952,4.05781 0,0.97029 0.898,5.9981 2.37,8.15319 1.438,2.04681 3.197,3.19681 5.423,3.19681 3.914,0 3.986,-4.02261 3.986,-4.74181 0,-2.584 -2.298,-10.666 -7.828,-10.666"
           inkscape:connector-curvature="0" />
        <path
           id="path5919"
           style="fill:#000000;fill-opacity:1;fill-rule:nonzero;stroke:none"
           d="m 301.658,68.1609 -0.853,0 c -0.075,-0.55 -0.325,-2.02999 -0.652,-2.27999 -0.2,-0.15201 -2.13,-0.15201 -2.481,-0.15201 l -4.611,0 c 2.631,2.3313 3.508,3.03321 5.013,4.2109 1.855,1.48011 3.584,3.0332 3.584,5.4141 0,3.03321 -2.658,4.88831 -5.866,4.88831 -3.108,0 -5.212,-2.1813 -5.212,-4.4863 0,-1.27781 1.077,-1.40471 1.328,-1.40471 0.602,0 1.328,0.4269 1.328,1.3297 0,0.45001 -0.175,1.3281 -1.48,1.3281 0.778,1.78011 2.481,2.33081 3.659,2.33081 2.506,0 3.811,-1.95581 3.811,-3.98591 0,-2.18009 -1.555,-3.90899 -2.356,-4.81169 l -6.041,-5.96411 c -0.25,-0.2269 -0.25,-0.2769 -0.25,-0.9781 l 10.325,0 0.753,4.5609"
           inkscape:connector-curvature="0" />
        <g
           transform="scale(0.1,0.1)"
           id="g5921">
          <path
             id="path5923"
             style="fill:none;stroke:#000000;stroke-width:14.32800007;stroke-linecap:butt;stroke-linejoin:miter;stroke-miterlimit:10;stroke-opacity:1;stroke-dasharray:none"
             d="m 2626.59,353.121 576.22,0"
             inkscape:connector-curvature="0" />
        </g>
        <path
           id="path5925"
           style="fill:#000000;fill-opacity:1;fill-rule:nonzero;stroke:none"
           d="m 279.328,13.875 c -0.359,2.227 -1.831,4.2379 -4.633,4.2379 -2.191,0 -4.525,-0.575 -7.327,-3.375 -2.981,-2.9809 -3.233,-6.321881 -3.233,-7.43399 0,-2.22696 1.581,-6.393754 6.609,-6.393754 8.547,0 12.283,12.066844 12.283,17.202744 0,5.7109 -3.341,9.3019 -7.758,9.3019 -5.208,0 -6.859,-4.6687 -6.859,-5.6726 0,-0.5031 0.288,-1.2582 1.364,-1.2582 1.186,0 1.939,1.0781 1.939,1.9031 0,1.2578 -1.112,1.2578 -1.687,1.2578 1.58,2.6582 4.13,2.8731 5.172,2.8731 2.622,0 5.136,-1.8692 5.136,-6.502 0,-1.4 -0.216,-3.2308 -0.97,-6.141 l -0.036,0 z M 270.853,1.91602 c -3.952,0 -3.952,3.69804 -3.952,4.05781 0,0.97031 0.898,5.99807 2.37,8.15317 1.438,2.0468 3.197,3.1968 5.423,3.1968 3.914,0 3.986,-4.0226 3.986,-4.7418 0,-2.58395 -2.298,-10.66598 -7.828,-10.66598"
           inkscape:connector-curvature="0" />
        <path
           id="path5927"
           style="fill:#000000;fill-opacity:1;fill-rule:nonzero;stroke:none"
           d="m 295.695,12.5449 c 0.216,0.934 1.042,4.2391 3.556,4.2391 0.178,0 1.041,0 1.795,-0.4668 -1.006,-0.1801 -1.723,-1.0781 -1.723,-1.9391 0,-0.575 0.394,-1.2582 1.364,-1.2582 0.791,0 1.939,0.6473 1.939,2.0832 0,1.8688 -2.119,2.3699 -3.339,2.3699 -2.084,0 -3.341,-1.9031 -3.772,-2.7281 -0.898,2.3699 -2.837,2.7281 -3.878,2.7281 -3.736,0 -5.783,-4.6332 -5.783,-5.53 0,-0.359 0.359,-0.359 0.431,-0.359 0.288,0 0.395,0.0719 0.467,0.3949 1.22,3.8063 3.591,4.7051 4.813,4.7051 0.681,0 1.939,-0.3231 1.939,-2.4059 0,-1.114 -0.611,-3.5203 -1.939,-8.54802 -0.575,-2.22696 -1.833,-3.73399 -3.412,-3.73399 -0.216,0 -1.041,0 -1.795,0.4668 0.898,0.18008 1.688,0.9332 1.688,1.93906 0,0.96914 -0.789,1.25586 -1.328,1.25586 -1.078,0 -1.975,-0.93281 -1.975,-2.08281 0,-1.65195 1.795,-2.36992 3.375,-2.36992 2.37,0 3.664,2.51406 3.772,2.73008 0.43,-1.32813 1.723,-2.73008 3.878,-2.73008 3.698,0 5.747,4.63281 5.747,5.53086 0,0.35898 -0.323,0.35898 -0.431,0.35898 -0.323,0 -0.395,-0.14375 -0.467,-0.39492 -1.186,-3.84414 -3.628,-4.70508 -4.777,-4.70508 -1.4,0 -1.975,1.14805 -1.975,2.36992 0,0.79102 0.216,1.58008 0.611,3.16133 l 1.22,4.91873"
           inkscape:connector-curvature="0" />
        <path
           id="path5929"
           style="fill:#000000;fill-opacity:1;fill-rule:nonzero;stroke:none"
           d="m 316.858,16.6609 -0.853,0 c -0.075,-0.55 -0.325,-2.03 -0.652,-2.28 -0.2,-0.152 -2.13,-0.152 -2.481,-0.152 l -4.611,0 c 2.631,2.3313 3.508,3.0332 5.013,4.2109 1.855,1.4801 3.584,3.0332 3.584,5.4141 0,3.0332 -2.658,4.8883 -5.866,4.8883 -3.108,0 -5.212,-2.1813 -5.212,-4.4863 0,-1.2778 1.077,-1.4047 1.328,-1.4047 0.602,0 1.328,0.4269 1.328,1.3297 0,0.45 -0.175,1.3281 -1.48,1.3281 0.778,1.7801 2.481,2.3308 3.659,2.3308 2.506,0 3.811,-1.9558 3.811,-3.9859 0,-2.1801 -1.555,-3.909 -2.356,-4.8117 l -6.041,-5.9641 c -0.25,-0.2269 -0.25,-0.2769 -0.25,-0.9781 l 10.325,0 0.753,4.5609"
           inkscape:connector-curvature="0" />
        <path
           id="path5931"
           style="fill:#000000;fill-opacity:1;fill-rule:nonzero;stroke:none"
           d="m 341.911,50.291 c 0.036,0.1442 0.108,0.359 0.108,0.5391 0,0.359 -0.252,0.3949 -0.431,0.3949 -0.359,0 -0.395,-0.0719 -0.539,-0.7191 l -5.961,-23.7387 c -2.73,0.3226 -4.095,1.6519 -4.095,4.0219 0,0.7187 0,1.6519 1.941,6.68 0.142,0.4309 0.394,1.0418 0.394,1.761 0,1.616 -1.148,2.9437 -2.944,2.9437 -3.412,0 -4.741,-5.2058 -4.741,-5.5297 0,-0.3589 0.358,-0.3589 0.43,-0.3589 0.359,0 0.395,0.0718 0.575,0.6468 0.97,3.411 2.406,4.4532 3.628,4.4532 0.288,0 0.897,0 0.897,-1.15 0,-0.9332 -0.359,-1.8313 -0.825,-3.0891 -1.725,-4.52499 -1.725,-5.4582 -1.725,-6.0691 0,-3.4122 2.802,-4.884 6.25,-5.1 -0.287,-1.2918 -0.287,-1.3641 -0.791,-3.2692 -0.108,-0.3937 -0.827,-3.3027 -0.827,-3.4109 0,-0.036 0,-0.359 0.431,-0.359 0.072,0 0.252,0 0.323,0.1441 0.108,0.0719 0.323,0.97 0.431,1.4719 l 1.364,5.352 c 1.33,0 4.489,0 7.866,3.8441 1.472,1.652 2.227,3.2309 2.622,4.309 0.323,0.8969 1.114,4.0219 1.114,5.6019 0,2.0129 -0.97,2.5141 -1.581,2.5141 -0.897,0 -1.795,-0.9328 -1.795,-1.723 0,-0.4668 0.216,-0.6829 0.539,-0.9692 0.395,-0.3949 1.292,-1.3297 1.292,-3.0527 0,-2.2981 -1.867,-5.2442 -3.125,-6.536 -3.159,-3.1972 -5.458,-3.1972 -6.752,-3.1972 l 5.927,23.5953"
           inkscape:connector-curvature="0" />
        <path
           id="path5933"
           style="fill:#000000;fill-opacity:1;fill-rule:nonzero;stroke:none"
           d="m 361.088,17.6809 c 0,0.1082 0,0.18 -0.611,0.789 -4.489,4.525 -5.637,11.3141 -5.637,16.8082 0,6.25 1.364,12.4981 5.781,16.9879 0.467,0.43091 0.467,0.5031 0.467,0.611 0,0.2519 -0.144,0.3589 -0.359,0.3589 -0.359,0 -3.591,-2.4418 -5.709,-7.0031 -1.833,-3.9519 -2.262,-7.9367 -2.262,-10.9547 0,-2.8019 0.394,-7.1472 2.37,-11.2051 2.155,-4.4171 5.242,-6.7519 5.602,-6.7519 0.216,0 0.359,0.1078 0.359,0.359"
           inkscape:connector-curvature="0" />
        <path
           id="path5935"
           style="fill:#000000;fill-opacity:1;fill-rule:nonzero;stroke:none"
           d="m 375.195,37.1449 c 0.216,0.934 1.042,4.2391 3.556,4.2391 0.178,0 1.041,0 1.795,-0.4668 -1.006,-0.1801 -1.723,-1.0781 -1.723,-1.9391 0,-0.575 0.394,-1.2582 1.364,-1.2582 0.791,0 1.939,0.6473 1.939,2.0832 0,1.8688 -2.119,2.3699 -3.339,2.3699 -2.084,0 -3.341,-1.9031 -3.772,-2.7281 -0.898,2.3699 -2.837,2.7281 -3.878,2.7281 -3.736,0 -5.783,-4.6332 -5.783,-5.53 0,-0.359 0.359,-0.359 0.431,-0.359 0.288,0 0.395,0.0719 0.467,0.39491 1.22,3.80629 3.591,4.70509 4.813,4.70509 0.681,0 1.939,-0.3231 1.939,-2.4059 0,-1.114 -0.611,-3.5203 -1.939,-8.548 -0.575,-2.227 -1.833,-3.734 -3.412,-3.734 -0.216,0 -1.041,0 -1.795,0.4668 0.898,0.1801 1.688,0.9332 1.688,1.9391 0,0.9691 -0.789,1.2558 -1.328,1.2558 -1.078,0 -1.975,-0.9328 -1.975,-2.0828 0,-1.652 1.795,-2.3699 3.375,-2.3699 2.37,0 3.664,2.514 3.772,2.7301 0.43,-1.3282 1.723,-2.7301 3.878,-2.7301 3.698,0 5.747,4.6328 5.747,5.5308 0,0.359 -0.323,0.359 -0.431,0.359 -0.323,0 -0.395,-0.1437 -0.467,-0.3949 -1.186,-3.8441 -3.628,-4.7051 -4.777,-4.7051 -1.4,0 -1.975,1.1481 -1.975,2.3699 0,0.7911 0.216,1.5801 0.611,3.1614 l 1.22,4.9187"
           inkscape:connector-curvature="0" />
        <path
           id="path5937"
           style="fill:#000000;fill-opacity:1;fill-rule:nonzero;stroke:none"
           d="m 390.991,26.3359 c 0,2.37 -0.898,3.77 -2.298,3.77 -1.186,0 -1.903,-0.8969 -1.903,-1.9028 0,-0.9691 0.717,-1.9031 1.903,-1.9031 0.431,0 0.898,0.1441 1.256,0.4672 0.108,0.0719 0.144,0.1078 0.18,0.1078 0.036,0 0.072,-0.0359 0.072,-0.5391 0,-2.6578 -1.256,-4.8121 -2.442,-5.998 -0.395,-0.3938 -0.395,-0.466 -0.395,-0.5731 0,-0.2519 0.18,-0.3949 0.359,-0.3949 0.395,0 3.269,2.766 3.269,6.9672"
           inkscape:connector-curvature="0" />
        <path
           id="path5939"
           style="fill:#000000;fill-opacity:1;fill-rule:nonzero;stroke:none"
           d="m 406.998,40.666 3.377,0 c 0.717,0 1.077,0 1.077,0.7192 0,0.3949 -0.359,0.3949 -1.006,0.3949 l -3.159,0 c 1.292,5.09801 1.472,5.8168 1.472,6.0328 0,0.61091 -0.431,0.9699 -1.041,0.9699 -0.108,0 -1.114,-0.0359 -1.437,-1.2937 l -1.4,-5.709 -3.377,0 c -0.717,0 -1.077,0 -1.077,-0.6832 0,-0.4309 0.288,-0.4309 1.005,-0.4309 l 3.161,0 c -2.586,-10.2 -2.73,-10.809 -2.73,-11.4558 0,-1.9391 1.364,-3.3051 3.305,-3.3051 3.663,0 5.709,5.2437 5.709,5.5308 0,0.359 -0.287,0.359 -0.431,0.359 -0.322,0 -0.358,-0.1078 -0.537,-0.5027 -1.545,-3.7363 -3.448,-4.5973 -4.669,-4.5973 -0.755,0 -1.114,0.4672 -1.114,1.652 0,0.8633 0.072,1.114 0.216,1.723 L 407,40.6648"
           inkscape:connector-curvature="0" />
        <path
           id="path5941"
           style="fill:#000000;fill-opacity:1;fill-rule:nonzero;stroke:none"
           d="m 422.98,35.2781 c 0,2.802 -0.395,7.1469 -2.37,11.2059 -2.155,4.4172 -5.244,6.7519 -5.603,6.7519 -0.216,0 -0.359,-0.1437 -0.359,-0.3589 0,-0.1079 0,-0.18009 0.683,-0.827 3.519,-3.5551 5.567,-9.266 5.567,-16.7719 0,-6.141 -1.33,-12.4621 -5.783,-16.9871 -0.467,-0.4301 -0.467,-0.5019 -0.467,-0.609 0,-0.216 0.144,-0.359 0.359,-0.359 0.359,0 3.592,2.4418 5.711,7.0032 1.831,3.95 2.263,7.9379 2.263,10.9527"
           inkscape:connector-curvature="0" />
        <path
           id="path5943"
           style="fill:#000000;fill-opacity:1;fill-rule:nonzero;stroke:none"
           d="m 449.189,34.5609 10.02,0 c 0.503,0 1.184,0 1.184,0.7172 0,0.7188 -0.681,0.7188 -1.184,0.7188 l -10.02,0 0,10.0562 c 0,0.5028 0,1.184 -0.719,1.184 -0.719,0 -0.719,-0.6812 -0.719,-1.184 l 0,-10.0562 -10.055,0 c -0.503,0 -1.186,0 -1.186,-0.7188 0,-0.7172 0.683,-0.7172 1.186,-0.7172 l 10.055,0 0,-10.0558 c 0,-0.5031 0,-1.186 0.719,-1.186 0.719,0 0.719,0.6829 0.719,1.186 l 0,10.0558"
           inkscape:connector-curvature="0" />
        <path
           id="path5945"
           style="fill:#000000;fill-opacity:1;fill-rule:nonzero;stroke:none"
           d="m 493.206,47.0578 c 0.358,1.4731 1.005,2.55 3.878,2.6582 0.18,0 0.611,0.036 0.611,0.7192 0,0.0359 0,0.3949 -0.467,0.3949 -1.186,0 -2.442,-0.1082 -3.664,-0.1082 -1.22,0 -2.55,0.1082 -3.734,0.1082 -0.216,0 -0.647,0 -0.647,-0.7192 0,-0.3949 0.359,-0.3949 0.647,-0.3949 2.047,-0.0359 2.442,-0.789 2.442,-1.5801 0,-0.1078 -0.072,-0.6468 -0.108,-0.755 l -3.233,-12.82 c -1.22,-4.8121 -5.35,-7.9371 -8.942,-7.9371 -2.442,0 -4.381,1.5801 -4.381,4.6692 0,0.0718 0,1.21991 0.395,2.8019 l 3.483,13.9699 c 0.323,1.2922 0.395,1.65241 3.017,1.65241 0.934,0 1.22,0 1.22,0.71869 0,0.395 -0.394,0.395 -0.502,0.395 -1.006,0 -3.592,-0.1079 -4.597,-0.1079 -1.042,0 -3.592,0.1079 -4.633,0.1079 -0.287,0 -0.683,0 -0.683,-0.7188 0,-0.39489 0.323,-0.39489 1.005,-0.39489 0.072,0 0.755,0 1.366,-0.0723 0.647,-0.07191 0.969,-0.1078 0.969,-0.57301 0,-0.216 -0.394,-1.725 -0.609,-2.55 l -0.791,-3.161 c -0.323,-1.4019 -2.047,-8.189 -2.191,-8.8699 -0.252,-1.0058 -0.252,-1.5449 -0.252,-2.084 0,-4.3808 3.269,-6.8949 7.039,-6.8949 4.525,0 8.978,4.059 10.164,8.8 l 3.197,12.7481"
           inkscape:connector-curvature="0" />
        <path
           id="path5947"
           style="fill:#000000;fill-opacity:1;fill-rule:nonzero;stroke:none"
           d="m 510.688,17.6809 c 0,0.1082 0,0.18 -0.611,0.789 -4.489,4.525 -5.637,11.3141 -5.637,16.8082 0,6.25 1.364,12.4981 5.781,16.9879 0.467,0.43091 0.467,0.5031 0.467,0.611 0,0.2519 -0.144,0.3589 -0.359,0.3589 -0.359,0 -3.591,-2.4418 -5.709,-7.0031 -1.833,-3.9519 -2.262,-7.9367 -2.262,-10.9547 0,-2.8019 0.394,-7.1472 2.37,-11.2051 2.155,-4.4171 5.242,-6.7519 5.602,-6.7519 0.216,0 0.359,0.1078 0.359,0.359"
           inkscape:connector-curvature="0" />
        <path
           id="path5949"
           style="fill:#000000;fill-opacity:1;fill-rule:nonzero;stroke:none"
           d="m 524.695,37.1449 c 0.216,0.934 1.042,4.2391 3.556,4.2391 0.178,0 1.041,0 1.795,-0.4668 -1.006,-0.1801 -1.723,-1.0781 -1.723,-1.9391 0,-0.575 0.394,-1.2582 1.364,-1.2582 0.791,0 1.939,0.6473 1.939,2.0832 0,1.8688 -2.119,2.3699 -3.339,2.3699 -2.084,0 -3.341,-1.9031 -3.772,-2.7281 -0.898,2.3699 -2.837,2.7281 -3.878,2.7281 -3.736,0 -5.783,-4.6332 -5.783,-5.53 0,-0.359 0.359,-0.359 0.431,-0.359 0.288,0 0.3951,0.0719 0.467,0.39491 1.22,3.80629 3.591,4.70509 4.813,4.70509 0.681,0 1.939,-0.3231 1.939,-2.4059 0,-1.114 -0.611,-3.5203 -1.939,-8.548 -0.575,-2.227 -1.833,-3.734 -3.412,-3.734 -0.216,0 -1.041,0 -1.795,0.4668 0.898,0.1801 1.688,0.9332 1.688,1.9391 0,0.9691 -0.789,1.2558 -1.328,1.2558 -1.078,0 -1.975,-0.9328 -1.975,-2.0828 0,-1.652 1.795,-2.3699 3.375,-2.3699 2.37,0 3.664,2.514 3.772,2.7301 0.43,-1.3282 1.723,-2.7301 3.878,-2.7301 3.698,0 5.747,4.6328 5.747,5.5308 0,0.359 -0.323,0.359 -0.431,0.359 -0.323,0 -0.395,-0.1437 -0.467,-0.3949 -1.186,-3.8441 -3.628,-4.7051 -4.777,-4.7051 -1.4,0 -1.975,1.1481 -1.975,2.3699 0,0.7911 0.216,1.5801 0.611,3.1614 l 1.22,4.9187"
           inkscape:connector-curvature="0" />
        <path
           id="path5951"
           style="fill:#000000;fill-opacity:1;fill-rule:nonzero;stroke:none"
           d="m 540.491,26.3359 c 0,2.37 -0.898,3.77 -2.298,3.77 -1.186,0 -1.903,-0.8969 -1.903,-1.9028 0,-0.9691 0.717,-1.9031 1.903,-1.9031 0.431,0 0.898,0.1441 1.256,0.4672 0.108,0.0719 0.144,0.1078 0.18,0.1078 0.036,0 0.072,-0.0359 0.072,-0.5391 0,-2.6578 -1.256,-4.8121 -2.442,-5.998 -0.395,-0.3938 -0.395,-0.466 -0.395,-0.5731 0,-0.2519 0.18,-0.3949 0.359,-0.3949 0.395,0 3.269,2.766 3.269,6.9672"
           inkscape:connector-curvature="0" />
        <path
           id="path5953"
           style="fill:#000000;fill-opacity:1;fill-rule:nonzero;stroke:none"
           d="m 556.498,40.666 3.377,0 c 0.717,0 1.077,0 1.077,0.7192 0,0.3949 -0.359,0.3949 -1.006,0.3949 l -3.159,0 c 1.292,5.09801 1.472,5.8168 1.472,6.0328 0,0.61091 -0.431,0.9699 -1.041,0.9699 -0.108,0 -1.114,-0.0359 -1.437,-1.2937 l -1.4,-5.709 -3.377,0 c -0.717,0 -1.077,0 -1.077,-0.6832 0,-0.4309 0.288,-0.4309 1.005,-0.4309 l 3.161,0 c -2.586,-10.2 -2.73,-10.809 -2.73,-11.4558 0,-1.9391 1.364,-3.3051 3.305,-3.3051 3.663,0 5.709,5.2437 5.709,5.5308 0,0.359 -0.287,0.359 -0.431,0.359 -0.322,0 -0.358,-0.1078 -0.537,-0.5027 -1.545,-3.7363 -3.448,-4.5973 -4.669,-4.5973 -0.755,0 -1.114,0.4672 -1.114,1.652 0,0.8633 0.072,1.114 0.216,1.723 l 2.658,10.5949"
           inkscape:connector-curvature="0" />
        <path
           id="path5955"
           style="fill:#000000;fill-opacity:1;fill-rule:nonzero;stroke:none"
           d="m 572.48,35.2781 c 0,2.802 -0.395,7.1469 -2.37,11.2059 -2.155,4.4172 -5.244,6.7519 -5.603,6.7519 -0.216,0 -0.359,-0.1437 -0.359,-0.3589 0,-0.1079 0,-0.18009 0.683,-0.827 3.519,-3.5551 5.567,-9.266 5.567,-16.7719 0,-6.141 -1.33,-12.4621 -5.783,-16.9871 -0.467,-0.4301 -0.467,-0.5019 -0.467,-0.609 0,-0.216 0.144,-0.359 0.359,-0.359 0.359,0 3.592,2.4418 5.711,7.0032 1.831,3.95 2.263,7.9379 2.263,10.9527"
           inkscape:connector-curvature="0" />
        <path
           id="path5957"
           style="fill:#000000;fill-opacity:1;fill-rule:nonzero;stroke:none"
           d="m 593.311,50.291 c 0.036,0.1442 0.108,0.359 0.108,0.5391 0,0.359 -0.252,0.3949 -0.431,0.3949 -0.359,0 -0.395,-0.0719 -0.539,-0.7191 l -5.961,-23.7387 c -2.73,0.3226 -4.095,1.6519 -4.095,4.0219 0,0.7187 0,1.6519 1.941,6.68 0.142,0.4309 0.394,1.0418 0.394,1.761 0,1.616 -1.148,2.9437 -2.944,2.9437 -3.412,0 -4.741,-5.2058 -4.741,-5.5297 0,-0.3589 0.358,-0.3589 0.43,-0.3589 0.359,0 0.395,0.0718 0.575,0.6468 0.97,3.411 2.406,4.4532 3.628,4.4532 0.288,0 0.897,0 0.897,-1.15 0,-0.9332 -0.359,-1.8313 -0.825,-3.0891 -1.725,-4.52499 -1.725,-5.4582 -1.725,-6.0691 0,-3.4122 2.802,-4.884 6.25,-5.1 -0.287,-1.2918 -0.287,-1.3641 -0.791,-3.2692 -0.108,-0.3937 -0.827,-3.3027 -0.827,-3.4109 0,-0.036 0,-0.359 0.431,-0.359 0.072,0 0.252,0 0.323,0.1441 0.108,0.0719 0.323,0.97 0.431,1.4719 l 1.364,5.352 c 1.33,0 4.489,0 7.866,3.8441 1.472,1.652 2.227,3.2309 2.622,4.309 0.323,0.8969 1.114,4.0219 1.114,5.6019 0,2.0129 -0.97,2.5141 -1.581,2.5141 -0.897,0 -1.7949,-0.9328 -1.7949,-1.723 0,-0.4668 0.2159,-0.6829 0.5389,-0.9692 0.395,-0.3949 1.292,-1.3297 1.292,-3.0527 0,-2.2981 -1.867,-5.2442 -3.125,-6.536 -3.159,-3.1972 -5.458,-3.1972 -6.752,-3.1972 l 5.927,23.5953"
           inkscape:connector-curvature="0" />
        <path
           id="path5959"
           style="fill:#000000;fill-opacity:1;fill-rule:nonzero;stroke:none"
           d="m 612.588,17.6809 c 0,0.1082 0,0.18 -0.611,0.789 -4.489,4.525 -5.637,11.3141 -5.637,16.8082 0,6.25 1.364,12.4981 5.781,16.9879 0.467,0.43091 0.467,0.5031 0.467,0.611 0,0.2519 -0.144,0.3589 -0.359,0.3589 -0.3589,0 -3.591,-2.4418 -5.709,-7.0031 -1.833,-3.9519 -2.262,-7.9367 -2.262,-10.9547 0,-2.8019 0.394,-7.1472 2.37,-11.2051 2.155,-4.4171 5.2421,-6.7519 5.602,-6.7519 0.216,0 0.359,0.1078 0.359,0.359"
           inkscape:connector-curvature="0" />
        <path
           id="path5961"
           style="fill:#000000;fill-opacity:1;fill-rule:nonzero;stroke:none"
           d="m 626.595,37.1449 c 0.216,0.934 1.042,4.2391 3.556,4.2391 0.178,0 1.041,0 1.795,-0.4668 -1.006,-0.1801 -1.723,-1.0781 -1.723,-1.9391 0,-0.575 0.394,-1.2582 1.364,-1.2582 0.791,0 1.939,0.6473 1.939,2.0832 0,1.8688 -2.119,2.3699 -3.339,2.3699 -2.084,0 -3.341,-1.9031 -3.772,-2.7281 -0.898,2.3699 -2.837,2.7281 -3.878,2.7281 -3.736,0 -5.783,-4.6332 -5.783,-5.53 0,-0.359 0.359,-0.359 0.431,-0.359 0.288,0 0.395,0.0719 0.467,0.39491 1.22,3.80629 3.591,4.70509 4.813,4.70509 0.681,0 1.939,-0.3231 1.939,-2.4059 0,-1.114 -0.611,-3.5203 -1.939,-8.548 -0.575,-2.227 -1.833,-3.734 -3.412,-3.734 -0.216,0 -1.041,0 -1.795,0.4668 0.898,0.1801 1.688,0.9332 1.688,1.9391 0,0.9691 -0.789,1.2558 -1.328,1.2558 -1.078,0 -1.975,-0.9328 -1.975,-2.0828 0,-1.652 1.795,-2.3699 3.375,-2.3699 2.37,0 3.664,2.514 3.772,2.7301 0.43,-1.3282 1.723,-2.7301 3.878,-2.7301 3.698,0 5.747,4.6328 5.747,5.5308 0,0.359 -0.323,0.359 -0.431,0.359 -0.323,0 -0.395,-0.1437 -0.467,-0.3949 -1.186,-3.8441 -3.628,-4.7051 -4.777,-4.7051 -1.4,0 -1.975,1.1481 -1.975,2.3699 0,0.7911 0.216,1.5801 0.611,3.1614 l 1.22,4.9187"
           inkscape:connector-curvature="0" />
        <path
           id="path5963"
           style="fill:#000000;fill-opacity:1;fill-rule:nonzero;stroke:none"
           d="m 642.391,26.3359 c 0,2.37 -0.898,3.77 -2.298,3.77 -1.186,0 -1.903,-0.8969 -1.903,-1.9028 0,-0.9691 0.717,-1.9031 1.903,-1.9031 0.431,0 0.898,0.1441 1.256,0.4672 0.108,0.0719 0.144,0.1078 0.18,0.1078 0.036,0 0.072,-0.0359 0.072,-0.5391 0,-2.6578 -1.256,-4.8121 -2.442,-5.998 -0.395,-0.3938 -0.395,-0.466 -0.395,-0.5731 0,-0.2519 0.18,-0.3949 0.359,-0.3949 0.395,0 3.269,2.766 3.269,6.9672"
           inkscape:connector-curvature="0" />
        <path
           id="path5965"
           style="fill:#000000;fill-opacity:1;fill-rule:nonzero;stroke:none"
           d="m 658.498,40.666 3.377,0 c 0.717,0 1.077,0 1.077,0.7192 0,0.3949 -0.359,0.3949 -1.006,0.3949 l -3.159,0 c 1.292,5.09801 1.472,5.8168 1.472,6.0328 0,0.61091 -0.431,0.9699 -1.041,0.9699 -0.108,0 -1.114,-0.0359 -1.437,-1.2937 l -1.4,-5.709 -3.377,0 c -0.717,0 -1.077,0 -1.077,-0.6832 0,-0.4309 0.288,-0.4309 1.005,-0.4309 l 3.161,0 c -2.586,-10.2 -2.73,-10.809 -2.73,-11.4558 0,-1.9391 1.364,-3.3051 3.305,-3.3051 3.663,0 5.709,5.2437 5.709,5.5308 0,0.359 -0.287,0.359 -0.431,0.359 -0.322,0 -0.358,-0.1078 -0.537,-0.5027 -1.545,-3.7363 -3.448,-4.5973 -4.669,-4.5973 -0.755,0 -1.114,0.4672 -1.114,1.652 0,0.8633 0.072,1.114 0.216,1.723 l 2.658,10.5949"
           inkscape:connector-curvature="0" />
        <path
           id="path5967"
           style="fill:#000000;fill-opacity:1;fill-rule:nonzero;stroke:none"
           d="m 674.3801,35.2781 c 0,2.802 -0.3951,7.1469 -2.3701,11.2059 -2.155,4.4172 -5.244,6.7519 -5.603,6.7519 -0.216,0 -0.359,-0.1437 -0.359,-0.3589 0,-0.1079 0,-0.18009 0.683,-0.827 3.519,-3.5551 5.567,-9.266 5.567,-16.7719 0,-6.141 -1.33,-12.4621 -5.783,-16.9871 -0.467,-0.4301 -0.467,-0.5019 -0.467,-0.609 0,-0.216 0.144,-0.359 0.359,-0.359 0.359,0 3.592,2.4418 5.711,7.0032 1.831,3.95 2.263,7.9379 2.263,10.9527"
           inkscape:connector-curvature="0" />
      </g>
    </g>
  </g>
  <g
     transform="matrix(1.25,0,0,-1.25,89.508701,579.30977)"
     inkscape:label="nlse_new_potential"
     id="nlse_next_2">
    <g
       id="g6048" />
    <g
       id="g6050">
      <g
         clip-path="url(#clipPath6054)"
         id="g6052">
        <path
           id="path6058"
           style="fill:#000000;fill-opacity:1;fill-rule:nonzero;stroke:none"
           d="m 20.8059,29.9578 c 0.3582,1.4731 1.005,2.55 3.8781,2.6582 0.1801,0 0.6109,0.036 0.6109,0.7192 0,0.03591 0,0.3949 -0.4668,0.3949 -1.1859,0 -2.4422,-0.1082 -3.664,-0.1082 -1.22,0 -2.55,0.1082 -3.734,0.1082 -0.216,0 -0.6473,0 -0.6473,-0.7192 0,-0.3949 0.3594,-0.3949 0.6473,-0.3949 2.0469,-0.0359 2.4418,-0.789 2.4418,-1.5801 0,-0.1078 -0.0719,-0.6468 -0.1078,-0.755 l -3.2332,-12.82 c -1.22,-4.8121 -5.35,-7.937071 -8.941841,-7.937071 -2.442179,0 -4.381249,1.580071 -4.381249,4.669171 0,0.0718 0,1.2199 0.39531,2.8019 l 3.48282,13.9699 c 0.32304,1.2922 0.39492,1.6524 3.01716,1.6524 0.934,0 1.2199,0 1.2199,0.7187 0,0.395 -0.3941,0.395 -0.5019,0.395 -1.00626,0 -3.59219,-0.1079 -4.59727,-0.1079 -1.0418,0 -3.5918,0.1079 -4.63281,0.1079 -0.28711,0 -0.6832079,0 -0.6832079,-0.7188 0,-0.3949 0.3230479,-0.3949 1.0050779,-0.3949 0.07227,0 0.75508,0 1.36602,-0.0723 0.64726,-0.0719 0.96914,-0.1078 0.96914,-0.573 0,-0.216 -0.39414,-1.725 -0.60899,-2.55 L 2.84805,26.2609 C 2.525,24.859 0.801172,18.0719 0.657031,17.391 0.405078,16.3852 0.405078,15.8461 0.405078,15.307 c 0,-4.3808 3.268752,-6.89489 7.039062,-6.89489 4.52496,0 8.97776,4.05899 10.16366,8.79999 l 3.1973,12.7481"
           inkscape:connector-curvature="0" />
        <path
           id="path6060"
           style="fill:#000000;fill-opacity:1;fill-rule:nonzero;stroke:none"
           d="m 38.2879,0.580859 c 0,0.108203 0,0.180079 -0.6109,0.789061 -4.4891,4.525 -5.6372,11.31408 -5.6372,16.80818 0,6.25 1.3641,12.4981 5.7813,16.9879 0.4668,0.4309 0.4668,0.5031 0.4668,0.611 0,0.2519 -0.1438,0.3589 -0.35899,0.3589 -0.35901,0 -3.59101,-2.4418 -5.70901,-7.0031 -1.8328,-3.9519 -2.2621,-7.9367 -2.2621,-10.9547 0,-2.8019 0.3942,-7.1472 2.3703,-11.20505 2.1547,-4.41719 5.2418,-6.751956 5.602,-6.751956 0.216,0 0.359,0.107812 0.359,0.358984"
           inkscape:connector-curvature="0" />
        <path
           id="path6062"
           style="fill:#000000;fill-opacity:1;fill-rule:nonzero;stroke:none"
           d="m 52.39491,20.0449 c 0.21599,0.934 1.04219,4.2391 3.55629,4.2391 0.1777,0 1.041,0 1.7949,-0.4668 -1.0063,-0.1801 -1.7231,-1.0781 -1.7231,-1.9391 0,-0.575 0.3942,-1.2582 1.3641,-1.2582 0.791,0 1.9391,0.6473 1.9391,2.0832 0,1.8688 -2.1192,2.3699 -3.3391,2.3699 -2.084,0 -3.341,-1.9031 -3.7723,-2.7281 -0.8976,2.3699 -2.83669,2.7281 -3.8777,2.7281 -3.7359,0 -5.78319,-4.6332 -5.78319,-5.53 0,-0.359 0.35899,-0.359 0.43129,-0.359 0.2878,0 0.3949,0.0719 0.4668,0.3949 1.2199,3.8063 3.591,4.7051 4.8128,4.7051 0.6813,0 1.9391,-0.3231 1.9391,-2.4059 0,-1.114 -0.6109,-3.5203 -1.9391,-8.548 -0.575,-2.227 -1.8328,-3.73401 -3.4117,-3.73401 -0.216,0 -1.041,0 -1.7953,0.46681 0.8981,0.1801 1.68831,0.9332 1.68831,1.9391 0,0.9691 -0.78911,1.2558 -1.32811,1.2558 -1.0782,0 -1.975,-0.9328 -1.975,-2.0828 0,-1.65195 1.7949,-2.369921 3.375,-2.369921 2.3699,0 3.664,2.514021 3.7718,2.730121 0.43011,-1.3282 1.7231,-2.730121 3.8782,-2.730121 3.698,0 5.7468,4.632821 5.7468,5.530821 0,0.359 -0.3226,0.359 -0.4308,0.359 -0.3231,0 -0.39489,-0.1437 -0.4668,-0.3949 -1.1863,-3.8441 -3.62809,-4.70508 -4.7774,-4.70508 -1.4,0 -1.975,1.14808 -1.975,2.36988 0,0.7911 0.2161,1.5801 0.6114,3.1614 l 1.2199,4.9187"
           inkscape:connector-curvature="0" />
        <path
           id="path6064"
           style="fill:#000000;fill-opacity:1;fill-rule:nonzero;stroke:none"
           d="m 68.191,9.23594 c 0,2.36996 -0.898,3.76996 -2.298,3.76996 -1.186,0 -1.9032,-0.8969 -1.9032,-1.9028 0,-0.9691 0.7172,-1.9031 1.9032,-1.9031 0.43081,0 0.898,0.14414 1.2558,0.46719 0.1082,0.071869 0.1442,0.107811 0.1801,0.107811 0.0359,0 0.07231,-0.035942 0.07231,-0.539061 0,-2.65782 -1.2563,-4.81211 -2.44221,-5.99805 -0.39489,-0.39375 -0.39489,-0.46601 -0.39489,-0.57305 0,-0.25195 0.17999,-0.39492 0.35889,-0.39492 0.395,0 3.26921,2.76602 3.26921,6.96719"
           inkscape:connector-curvature="0" />
        <path
           id="path6066"
           style="fill:#000000;fill-opacity:1;fill-rule:nonzero;stroke:none"
           d="m 84.198,23.566 3.377,0 c 0.71721,0 1.077,0 1.077,0.7192 0,0.3949 -0.359,0.3949 -1.00589,0.3949 l -3.159,0 c 1.2918,5.098 1.47189,5.8168 1.47189,6.0328 0,0.6109 -0.43089,0.9699 -1.041,0.9699 -0.1078,0 -1.11409,-0.0359 -1.4371,-1.2937 l -1.4,-5.709 -3.37699,0 c -0.7168,0 -1.07691,0 -1.07691,-0.6832 0,-0.4309 0.2878,-0.4309 1.005,-0.4309 l 3.161,0 c -2.586,-10.2 -2.7301,-10.809 -2.7301,-11.4558 0,-1.9391 1.36409,-3.305121 3.3051,-3.305121 3.66291,0 5.709,5.243721 5.709,5.530821 0,0.359 -0.28719,0.359 -0.43089,0.359 -0.3223,0 -0.35821,-0.1078 -0.53711,-0.5027 -1.54489,-3.7363 -3.44809,-4.59728 -4.6692,-4.59728 -0.7546,0 -1.1136,0.46718 -1.1136,1.65198 0,0.8633 0.0718,1.114 0.21601,1.723 L 84.2,23.5648"
           inkscape:connector-curvature="0" />
        <path
           id="path6068"
           style="fill:#000000;fill-opacity:1;fill-rule:nonzero;stroke:none"
           d="m 100.18,18.1781 c 0,2.802 -0.39479,7.1469 -2.3698,11.2059 -2.15509,4.4172 -5.2442,6.7519 -5.6032,6.7519 -0.216,0 -0.359,-0.1437 -0.359,-0.3589 0,-0.1079 0,-0.1801 0.68291,-0.827 C 96.05,31.3949 98.098,25.684 98.098,18.1781 98.098,12.0371 96.768,5.71602 92.31481,1.19102 91.848,0.760938 91.848,0.689062 91.848,0.582031 c 0,-0.216015 0.14421,-0.358984 0.359,-0.358984 0.359,0 3.59181,2.441793 5.711,7.003123 1.8308,3.95003 2.263,7.93793 2.263,10.95273"
           inkscape:connector-curvature="0" />
        <path
           id="path6070"
           style="fill:#000000;fill-opacity:1;fill-rule:nonzero;stroke:none"
           d="m 120.595,22.775 c 0,1.0422 -0.862,1.9051 -1.903,1.9051 -1.042,0 -1.903,-0.8621 -1.903,-1.9051 0,-1.041 0.861,-1.9031 1.903,-1.9031 1.041,0 1.903,0.8633 1.903,1.9031 z m 0,-11.6719 c 0,1.0418 -0.862,1.9028 -1.903,1.9028 -1.042,0 -1.903,-0.861 -1.903,-1.9028 0,-1.041 0.861,-1.9031 1.903,-1.9031 1.041,0 1.903,0.8629 1.903,1.9031"
           inkscape:connector-curvature="0" />
        <path
           id="path6072"
           style="fill:#000000;fill-opacity:1;fill-rule:nonzero;stroke:none"
           d="m 148.373,20.9441 c 0.539,0 1.22,0 1.22,0.7188 0,0.7191 -0.681,0.7191 -1.184,0.7191 l -21.512,0 c -0.503,0 -1.186,0 -1.186,-0.7191 0,-0.7188 0.683,-0.7188 1.222,-0.7188 l 21.441,0 -0.001,0 z m 0.036,-6.9671 c 0.503,0 1.184,0 1.184,0.7191 0,0.7168 -0.681,0.7168 -1.22,0.7168 l -21.441,0 c -0.539,0 -1.222,0 -1.222,-0.7168 0,-0.7191 0.683,-0.7191 1.186,-0.7191 l 21.513,0"
           inkscape:connector-curvature="0" />
        <path
           id="path6074"
           style="fill:#000000;fill-opacity:1;fill-rule:nonzero;stroke:none"
           d="m 184.055,29.6359 c 1.759,2.8 3.267,2.9082 4.597,2.9801 0.431,0.036 0.467,0.64691 0.467,0.6828 0,0.2883 -0.18,0.4313 -0.467,0.4313 -0.934,0 -1.975,-0.1082 -2.945,-0.1082 -1.186,0 -2.406,0.1082 -3.556,0.1082 -0.214,0 -0.681,0 -0.681,-0.6832 0,-0.3949 0.323,-0.4309 0.573,-0.4309 0.97,-0.0719 1.653,-0.4308 1.653,-1.184 0,-0.539 -0.539,-1.33 -0.539,-1.366 L 172.132,12.541 169.69,31.5391 c 0,0.6089 0.825,1.0769 2.478,1.0769 0.502,0 0.897,0 0.897,0.7192 0,0.3226 -0.287,0.3949 -0.503,0.3949 -1.436,0 -2.98,-0.1082 -4.453,-0.1082 -0.645,0 -1.328,0.0359 -1.975,0.0359 -0.647,0 -1.328,0.0723 -1.939,0.0723 -0.252,0 -0.683,0 -0.683,-0.6832 0,-0.4309 0.323,-0.4309 0.898,-0.4309 2.011,0 2.047,-0.323 2.155,-1.2199 l 2.838,-22.15899 c 0.108,-0.71914 0.252,-0.82695 0.717,-0.82695 0.575,0 0.719,0.17968 1.006,0.64687 l 12.93,20.58007"
           inkscape:connector-curvature="0" />
        <path
           id="path6076"
           style="fill:#000000;fill-opacity:1;fill-rule:nonzero;stroke:none"
           d="m 202.288,0.580859 c 0,0.108203 0,0.180079 -0.611,0.789061 -4.489,4.525 -5.637,11.31408 -5.637,16.80818 0,6.25 1.364,12.4981 5.781,16.9879 0.467,0.4309 0.467,0.5031 0.467,0.611 0,0.2519 -0.144,0.3589 -0.359,0.3589 -0.359,0 -3.591,-2.4418 -5.709,-7.0031 -1.833,-3.9519 -2.262,-7.9367 -2.262,-10.9547 0,-2.8019 0.394,-7.1472 2.37,-11.20505 2.155,-4.41719 5.242,-6.751956 5.602,-6.751956 0.216,0 0.359,0.107812 0.359,0.358984"
           inkscape:connector-curvature="0" />
        <path
           id="path6078"
           style="fill:#000000;fill-opacity:1;fill-rule:nonzero;stroke:none"
           d="m 216.295,20.0449 c 0.216,0.934 1.042,4.2391 3.556,4.2391 0.178,0 1.041,0 1.795,-0.4668 -1.006,-0.1801 -1.723,-1.0781 -1.723,-1.9391 0,-0.575 0.394,-1.2582 1.364,-1.2582 0.791,0 1.939,0.6473 1.939,2.0832 0,1.8688 -2.119,2.3699 -3.339,2.3699 -2.084,0 -3.341,-1.9031 -3.772,-2.7281 -0.898,2.3699 -2.837,2.7281 -3.878,2.7281 -3.736,0 -5.783,-4.6332 -5.783,-5.53 0,-0.359 0.359,-0.359 0.431,-0.359 0.288,0 0.395,0.0719 0.467,0.3949 1.22,3.8063 3.591,4.7051 4.813,4.7051 0.681,0 1.939,-0.3231 1.939,-2.4059 0,-1.114 -0.611,-3.5203 -1.939,-8.548 -0.575,-2.227 -1.833,-3.73401 -3.412,-3.73401 -0.216,0 -1.041,0 -1.795,0.46681 0.898,0.1801 1.688,0.9332 1.688,1.9391 0,0.9691 -0.789,1.2558 -1.328,1.2558 -1.078,0 -1.975,-0.9328 -1.975,-2.0828 0,-1.65195 1.795,-2.369921 3.375,-2.369921 2.37,0 3.664,2.514021 3.772,2.730121 0.43,-1.3282 1.723,-2.730121 3.878,-2.730121 3.698,0 5.747,4.632821 5.747,5.530821 0,0.359 -0.323,0.359 -0.431,0.359 -0.323,0 -0.395,-0.1437 -0.467,-0.3949 -1.186,-3.8441 -3.628,-4.70508 -4.777,-4.70508 -1.4,0 -1.975,1.14808 -1.975,2.36988 0,0.7911 0.216,1.5801 0.611,3.1614 l 1.22,4.9187"
           inkscape:connector-curvature="0" />
        <path
           id="path6080"
           style="fill:#000000;fill-opacity:1;fill-rule:nonzero;stroke:none"
           d="m 235.18,18.1781 c 0,2.802 -0.395,7.1469 -2.37,11.2059 -2.155,4.4172 -5.244,6.7519 -5.603,6.7519 -0.216,0 -0.359,-0.1437 -0.359,-0.3589 0,-0.1079 0,-0.1801 0.683,-0.827 3.519,-3.5551 5.567,-9.266 5.567,-16.7719 0,-6.141 -1.33,-12.46208 -5.783,-16.98708 -0.467,-0.430082 -0.467,-0.501958 -0.467,-0.608989 0,-0.216015 0.144,-0.358984 0.359,-0.358984 0.359,0 3.592,2.441793 5.711,7.003123 1.831,3.95003 2.263,7.93793 2.263,10.95273"
           inkscape:connector-curvature="0" />
        <path
           id="path6082"
           style="fill:#000000;fill-opacity:1;fill-rule:nonzero;stroke:none"
           d="m 261.489,17.4609 10.02,0 c 0.503,0 1.184,0 1.184,0.7172 0,0.7188 -0.681,0.7188 -1.184,0.7188 l -10.02,0 0,10.0562 c 0,0.5028 0,1.184 -0.719,1.184 -0.719,0 -0.719,-0.6812 -0.719,-1.184 l 0,-10.0562 -10.055,0 c -0.503,0 -1.186,0 -1.186,-0.7188 0,-0.7172 0.683,-0.7172 1.186,-0.7172 l 10.055,0 0,-10.05582 c 0,-0.50313 0,-1.18594 0.719,-1.18594 0.719,0 0.719,0.68281 0.719,1.18594 l 0,10.05582"
           inkscape:connector-curvature="0" />
        <path
           id="path6084"
           style="fill:#000000;fill-opacity:1;fill-rule:nonzero;stroke:none"
           d="m 299.516,22.7391 c 0.036,0.216 0.108,0.3949 0.108,0.6468 0,0.611 -0.431,0.97 -1.042,0.97 -0.358,0 -1.328,-0.252 -1.472,-1.545 -0.647,1.3301 -1.903,2.2629 -3.341,2.2629 -4.094,0 -8.547,-5.0277 -8.547,-10.1976 0,-3.5563 2.191,-5.67503 4.777,-5.67503 2.119,0 3.806,1.68793 4.166,2.08283 l 0.036,-0.036 c -0.755,-3.196831 -1.184,-4.66909 -1.184,-4.74097 -0.144,-0.32305 -1.366,-3.87812 -5.172,-3.87812 -0.683,0 -1.867,0.03593 -2.873,0.35898 1.078,0.32227 1.472,1.25625 1.472,1.86719 0,0.575 -0.394,1.25586 -1.364,1.25586 -0.791,0 -1.939,-0.64492 -1.939,-2.08282 0,-1.47226 1.328,-2.19101 4.777,-2.19101 4.489,0 7.075,2.80195 7.614,4.95586 l 3.986,15.94493 -0.002,0.0012 z m -4.669,-8.9422 c -0.216,-0.934 -1.042,-1.8309 -1.831,-2.5141 -0.755,-0.6469 -1.869,-1.291781 -2.909,-1.291781 -1.795,0 -2.334,1.866781 -2.334,3.303081 0,1.725 1.041,5.9629 2.011,7.7938 0.97,1.759 2.514,3.1973 4.022,3.1973 2.37,0 2.873,-2.909 2.873,-3.0891 0,-0.1801 -0.072,-0.3949 -0.108,-0.5391 l -1.723,-6.859"
           inkscape:connector-curvature="0" />
        <path
           id="path6086"
           style="fill:#000000;fill-opacity:1;fill-rule:nonzero;stroke:none"
           d="m 306.711,34.84221 c 0,0.64689 0,1.29369 -0.719,1.29369 -0.719,0 -0.719,-0.6468 -0.719,-1.29369 l 0,-33.32815 c 0,-0.646872 0,-1.292185 0.719,-1.292185 0.719,0 0.719,0.645313 0.719,1.292185 l 0,33.32815"
           inkscape:connector-curvature="0" />
        <path
           id="path6088"
           style="fill:#000000;fill-opacity:1;fill-rule:nonzero;stroke:none"
           d="m 328.311,33.191 c 0.036,0.1442 0.108,0.359 0.108,0.5391 0,0.359 -0.252,0.3949 -0.431,0.3949 -0.359,0 -0.395,-0.0719 -0.539,-0.7191 L 321.488,9.66719 c -2.73,0.322651 -4.095,1.65191 -4.095,4.02191 0,0.7187 0,1.6519 1.941,6.68 0.142,0.4309 0.394,1.0418 0.394,1.761 0,1.616 -1.148,2.9437 -2.944,2.9437 -3.412,0 -4.741,-5.2058 -4.741,-5.5297 0,-0.3589 0.358,-0.3589 0.43,-0.3589 0.359,0 0.395,0.0718 0.575,0.6468 0.97,3.411 2.406,4.4532 3.628,4.4532 0.288,0 0.897,0 0.897,-1.15 0,-0.9332 -0.359,-1.8313 -0.825,-3.0891 -1.725,-4.525 -1.725,-5.4582 -1.725,-6.0691 0,-3.4122 2.802,-4.88403 6.25,-5.10005 -0.287,-1.29179 -0.287,-1.36406 -0.791,-3.26914 -0.108,-0.39375 -0.827,-3.30273 -0.827,-3.41093 0,-0.03594 0,-0.35899 0.431,-0.35899 0.072,0 0.252,0 0.323,0.14414 0.108,0.07188 0.323,0.96992 0.431,1.47188 l 1.364,5.351951 c 1.33,0 4.489,0 7.866,3.844139 1.472,1.652 2.227,3.2309 2.622,4.309 0.323,0.8969 1.114,4.0219 1.114,5.6019 0,2.0129 -0.97,2.5141 -1.581,2.5141 -0.897,0 -1.795,-0.9328 -1.795,-1.723 0,-0.4668 0.216,-0.6829 0.539,-0.9692 0.395,-0.3949 1.292,-1.3297 1.292,-3.0527 0,-2.2981 -1.867,-5.2442 -3.125,-6.536 -3.159,-3.19722 -5.458,-3.19722 -6.752,-3.19722 l 5.927,23.59532"
           inkscape:connector-curvature="0" />
        <path
           id="path6090"
           style="fill:#000000;fill-opacity:1;fill-rule:nonzero;stroke:none"
           d="m 347.488,0.580859 c 0,0.108203 0,0.180079 -0.611,0.789061 -4.489,4.525 -5.637,11.31408 -5.637,16.80818 0,6.25 1.364,12.4981 5.781,16.9879 0.467,0.4309 0.467,0.5031 0.467,0.611 0,0.2519 -0.144,0.3589 -0.359,0.3589 -0.359,0 -3.591,-2.4418 -5.709,-7.0031 -1.833,-3.9519 -2.262,-7.9367 -2.262,-10.9547 0,-2.8019 0.394,-7.1472 2.37,-11.20505 2.155,-4.41719 5.242,-6.751956 5.602,-6.751956 0.216,0 0.359,0.107812 0.359,0.358984"
           inkscape:connector-curvature="0" />
        <path
           id="path6092"
           style="fill:#000000;fill-opacity:1;fill-rule:nonzero;stroke:none"
           d="m 361.595,20.0449 c 0.216,0.934 1.042,4.2391 3.556,4.2391 0.178,0 1.041,0 1.795,-0.4668 -1.006,-0.1801 -1.723,-1.0781 -1.723,-1.9391 0,-0.575 0.394,-1.2582 1.364,-1.2582 0.791,0 1.939,0.6473 1.939,2.0832 0,1.8688 -2.119,2.3699 -3.339,2.3699 -2.084,0 -3.341,-1.9031 -3.772,-2.7281 -0.898,2.3699 -2.837,2.7281 -3.878,2.7281 -3.736,0 -5.783,-4.6332 -5.783,-5.53 0,-0.359 0.359,-0.359 0.431,-0.359 0.288,0 0.395,0.0719 0.467,0.3949 1.22,3.8063 3.591,4.7051 4.813,4.7051 0.681,0 1.939,-0.3231 1.939,-2.4059 0,-1.114 -0.611,-3.5203 -1.939,-8.548 -0.575,-2.227 -1.833,-3.73401 -3.412,-3.73401 -0.216,0 -1.041,0 -1.795,0.46681 0.898,0.1801 1.688,0.9332 1.688,1.9391 0,0.9691 -0.789,1.2558 -1.328,1.2558 -1.078,0 -1.975,-0.9328 -1.975,-2.0828 0,-1.65195 1.795,-2.369921 3.375,-2.369921 2.37,0 3.664,2.514021 3.772,2.730121 0.43,-1.3282 1.723,-2.730121 3.878,-2.730121 3.698,0 5.747,4.632821 5.747,5.530821 0,0.359 -0.323,0.359 -0.431,0.359 -0.323,0 -0.395,-0.1437 -0.467,-0.3949 -1.186,-3.8441 -3.628,-4.70508 -4.777,-4.70508 -1.4,0 -1.975,1.14808 -1.975,2.36988 0,0.7911 0.216,1.5801 0.611,3.1614 l 1.22,4.9187"
           inkscape:connector-curvature="0" />
        <path
           id="path6094"
           style="fill:#000000;fill-opacity:1;fill-rule:nonzero;stroke:none"
           d="m 377.391,9.23594 c 0,2.36996 -0.898,3.76996 -2.298,3.76996 -1.186,0 -1.903,-0.8969 -1.903,-1.9028 0,-0.9691 0.717,-1.9031 1.903,-1.9031 0.431,0 0.898,0.14414 1.256,0.46719 0.108,0.071869 0.144,0.107811 0.18,0.107811 0.036,0 0.072,-0.035942 0.072,-0.539061 0,-2.65782 -1.256,-4.81211 -2.442,-5.99805 -0.395,-0.39375 -0.395,-0.46601 -0.395,-0.57305 0,-0.25195 0.18,-0.39492 0.359,-0.39492 0.395,0 3.269,2.76602 3.269,6.96719"
           inkscape:connector-curvature="0" />
        <path
           id="path6096"
           style="fill:#000000;fill-opacity:1;fill-rule:nonzero;stroke:none"
           d="m 393.398,23.566 3.377,0 c 0.717,0 1.077,0 1.077,0.7192 0,0.3949 -0.359,0.3949 -1.006,0.3949 l -3.159,0 c 1.292,5.098 1.472,5.8168 1.472,6.0328 0,0.6109 -0.431,0.9699 -1.041,0.9699 -0.108,0 -1.114,-0.0359 -1.437,-1.2937 l -1.4,-5.709 -3.377,0 c -0.717,0 -1.077,0 -1.077,-0.6832 0,-0.4309 0.288,-0.4309 1.005,-0.4309 l 3.161,0 c -2.586,-10.2 -2.73,-10.809 -2.73,-11.4558 0,-1.9391 1.364,-3.305121 3.305,-3.305121 3.663,0 5.709,5.243721 5.709,5.530821 0,0.359 -0.287,0.359 -0.431,0.359 -0.322,0 -0.358,-0.1078 -0.537,-0.5027 -1.545,-3.7363 -3.448,-4.59728 -4.669,-4.59728 -0.755,0 -1.114,0.46718 -1.114,1.65198 0,0.8633 0.072,1.114 0.216,1.723 l 2.658,10.5949"
           inkscape:connector-curvature="0" />
        <path
           id="path6098"
           style="fill:#000000;fill-opacity:1;fill-rule:nonzero;stroke:none"
           d="m 409.38,18.1781 c 0,2.802 -0.395,7.1469 -2.37,11.2059 -2.155,4.4172 -5.244,6.7519 -5.603,6.7519 -0.216,0 -0.359,-0.1437 -0.359,-0.3589 0,-0.1079 0,-0.1801 0.683,-0.827 3.519,-3.5551 5.567,-9.266 5.567,-16.7719 0,-6.141 -1.33,-12.46208 -5.783,-16.98708 -0.467,-0.430082 -0.467,-0.501958 -0.467,-0.608989 0,-0.216015 0.144,-0.358984 0.359,-0.358984 0.359,0 3.592,2.441793 5.711,7.003123 1.831,3.95003 2.263,7.93793 2.263,10.95273"
           inkscape:connector-curvature="0" />
        <path
           id="path6100"
           style="fill:#000000;fill-opacity:1;fill-rule:nonzero;stroke:none"
           d="m 418.611,34.84221 c 0,0.64689 0,1.29369 -0.719,1.29369 -0.719,0 -0.719,-0.6468 -0.719,-1.29369 l 0,-33.32815 c 0,-0.646872 0,-1.292185 0.719,-1.292185 0.719,0 0.719,0.645313 0.719,1.292185 l 0,33.32815"
           inkscape:connector-curvature="0" />
        <path
           id="path6102"
           style="fill:#000000;fill-opacity:1;fill-rule:nonzero;stroke:none"
           d="m 435.558,28.5609 -0.853,0 c -0.075,-0.55 -0.325,-2.03 -0.652,-2.28 -0.2,-0.152 -2.13,-0.152 -2.481,-0.152 l -4.611,0 c 2.631,2.3313 3.508,3.0332 5.013,4.2109 1.855,1.4801 3.584,3.0332 3.584,5.4141 0,3.03321 -2.658,4.8883 -5.866,4.8883 -3.108,0 -5.212,-2.1813 -5.212,-4.4863 0,-1.2778 1.077,-1.4047 1.328,-1.4047 0.602,0 1.328,0.4269 1.328,1.3297 0,0.45 -0.175,1.3281 -1.48,1.3281 0.778,1.7801 2.481,2.3308 3.659,2.3308 2.506,0 3.811,-1.9558 3.811,-3.9859 0,-2.1801 -1.555,-3.909 -2.356,-4.8117 l -6.041,-5.9641 c -0.25,-0.2269 -0.25,-0.2769 -0.25,-0.9781 l 10.325,0 0.753,4.5609"
           inkscape:connector-curvature="0" />
        <path
           id="path6104"
           style="fill:#000000;fill-opacity:1;fill-rule:nonzero;stroke:none"
           d="m 474.83,25.4328 c 0,0.7551 -0.252,1.0781 -0.503,1.0781 -0.144,0 -0.466,-0.1437 -0.502,-0.9699 -0.144,-2.4781 -2.658,-3.95 -4.992,-3.95 -2.083,0 -3.88,1.1129 -5.747,2.3699 -1.939,1.2922 -3.878,2.586 -6.212,2.586 -3.341,0 -5.998,-2.55 -5.998,-5.8547 0,-0.7891 0.288,-1.0774 0.503,-1.0774 0.359,0 0.503,0.6813 0.503,0.825 0.18,3.0172 3.123,4.0954 4.992,4.0954 2.083,0 3.878,-1.1141 5.745,-2.3704 1.939,-1.2937 3.88,-2.5859 6.214,-2.5859 3.339,0 5.997,2.55 5.997,5.8531 l 0,8e-4 z m 0,-8.4027 c 0,1.041 -0.431,1.1129 -0.503,1.1129 -0.144,0 -0.466,-0.1801 -0.502,-0.9692 -0.144,-2.4777 -2.658,-3.9519 -4.992,-3.9519 -2.083,0 -3.88,1.114 -5.747,2.3703 -1.939,1.2937 -3.878,2.5859 -6.212,2.5859 -3.341,0 -5.998,-2.55 -5.998,-5.8531 0,-0.791 0.288,-1.0781 0.503,-1.0781 0.359,0 0.503,0.6832 0.503,0.8269 0.18,3.0172 3.123,4.0942 4.992,4.0942 2.083,0 3.878,-1.1121 5.745,-2.37 1.939,-1.2921 3.88,-2.5859 6.214,-2.5859 3.411,0 5.997,2.6578 5.997,5.8188"
           inkscape:connector-curvature="0" />
        <path
           id="path6106"
           style="fill:#000000;fill-opacity:1;fill-rule:nonzero;stroke:none"
           d="m 509.606,29.9578 c 0.358,1.4731 1.005,2.55 3.878,2.6582 0.18,0 0.611,0.036 0.611,0.7192 0,0.03591 0,0.3949 -0.467,0.3949 -1.186,0 -2.442,-0.1082 -3.664,-0.1082 -1.22,0 -2.55,0.1082 -3.734,0.1082 -0.216,0 -0.647,0 -0.647,-0.7192 0,-0.3949 0.359,-0.3949 0.647,-0.3949 2.047,-0.0359 2.442,-0.789 2.442,-1.5801 0,-0.1078 -0.072,-0.6468 -0.108,-0.755 l -3.233,-12.82 c -1.22,-4.8121 -5.35,-7.937071 -8.942,-7.937071 -2.442,0 -4.381,1.580071 -4.381,4.669171 0,0.0718 0,1.2199 0.395,2.8019 l 3.483,13.9699 c 0.323,1.2922 0.395,1.6524 3.017,1.6524 0.934,0 1.22,0 1.22,0.7187 0,0.395 -0.394,0.395 -0.502,0.395 -1.006,0 -3.592,-0.1079 -4.597,-0.1079 -1.042,0 -3.592,0.1079 -4.633,0.1079 -0.287,0 -0.683,0 -0.683,-0.7188 0,-0.3949 0.323,-0.3949 1.005,-0.3949 0.072,0 0.755,0 1.366,-0.0723 0.647,-0.0719 0.969,-0.1078 0.969,-0.573 0,-0.216 -0.394,-1.725 -0.609,-2.55 l -0.791,-3.161 c -0.323,-1.4019 -2.047,-8.189 -2.191,-8.8699 -0.252,-1.0058 -0.252,-1.5449 -0.252,-2.084 0,-4.3808 3.269,-6.89489 7.039,-6.89489 4.525,0 8.978,4.05899 10.164,8.79999 l 3.197,12.7481"
           inkscape:connector-curvature="0" />
        <path
           id="path6108"
           style="fill:#000000;fill-opacity:1;fill-rule:nonzero;stroke:none"
           d="m 527.088,0.580859 c 0,0.108203 0,0.180079 -0.611,0.789061 -4.489,4.525 -5.637,11.31408 -5.637,16.80818 0,6.25 1.364,12.4981 5.781,16.9879 0.467,0.4309 0.467,0.5031 0.467,0.611 0,0.2519 -0.144,0.3589 -0.359,0.3589 -0.3589,0 -3.591,-2.4418 -5.709,-7.0031 -1.833,-3.9519 -2.262,-7.9367 -2.262,-10.9547 0,-2.8019 0.394,-7.1472 2.37,-11.20505 2.155,-4.41719 5.2421,-6.751956 5.602,-6.751956 0.216,0 0.359,0.107812 0.359,0.358984"
           inkscape:connector-curvature="0" />
        <path
           id="path6110"
           style="fill:#000000;fill-opacity:1;fill-rule:nonzero;stroke:none"
           d="m 541.095,20.0449 c 0.216,0.934 1.042,4.2391 3.556,4.2391 0.178,0 1.041,0 1.795,-0.4668 -1.006,-0.1801 -1.723,-1.0781 -1.723,-1.9391 0,-0.575 0.394,-1.2582 1.364,-1.2582 0.791,0 1.939,0.6473 1.939,2.0832 0,1.8688 -2.119,2.3699 -3.339,2.3699 -2.084,0 -3.341,-1.9031 -3.772,-2.7281 -0.898,2.3699 -2.837,2.7281 -3.878,2.7281 -3.736,0 -5.783,-4.6332 -5.783,-5.53 0,-0.359 0.359,-0.359 0.431,-0.359 0.288,0 0.395,0.0719 0.467,0.3949 1.22,3.8063 3.591,4.7051 4.813,4.7051 0.681,0 1.939,-0.3231 1.939,-2.4059 0,-1.114 -0.611,-3.5203 -1.939,-8.548 -0.575,-2.227 -1.833,-3.73401 -3.412,-3.73401 -0.216,0 -1.041,0 -1.795,0.46681 0.898,0.1801 1.688,0.9332 1.688,1.9391 0,0.9691 -0.789,1.2558 -1.328,1.2558 -1.078,0 -1.975,-0.9328 -1.975,-2.0828 0,-1.65195 1.795,-2.369921 3.375,-2.369921 2.37,0 3.664,2.514021 3.772,2.730121 0.43,-1.3282 1.723,-2.730121 3.878,-2.730121 3.698,0 5.747,4.632821 5.747,5.530821 0,0.359 -0.323,0.359 -0.431,0.359 -0.323,0 -0.395,-0.1437 -0.467,-0.3949 -1.186,-3.8441 -3.628,-4.70508 -4.777,-4.70508 -1.4,0 -1.975,1.14808 -1.975,2.36988 0,0.7911 0.216,1.5801 0.611,3.1614 l 1.22,4.9187"
           inkscape:connector-curvature="0" />
        <path
           id="path6112"
           style="fill:#000000;fill-opacity:1;fill-rule:nonzero;stroke:none"
           d="m 556.891,9.23594 c 0,2.36996 -0.898,3.76996 -2.298,3.76996 -1.186,0 -1.903,-0.8969 -1.903,-1.9028 0,-0.9691 0.717,-1.9031 1.903,-1.9031 0.431,0 0.898,0.14414 1.256,0.46719 0.108,0.071869 0.144,0.107811 0.18,0.107811 0.036,0 0.072,-0.035942 0.072,-0.539061 0,-2.65782 -1.256,-4.81211 -2.442,-5.99805 -0.395,-0.39375 -0.395,-0.46601 -0.395,-0.57305 0,-0.25195 0.18,-0.39492 0.359,-0.39492 0.395,0 3.269,2.76602 3.269,6.96719"
           inkscape:connector-curvature="0" />
        <path
           id="path6114"
           style="fill:#000000;fill-opacity:1;fill-rule:nonzero;stroke:none"
           d="m 572.998,23.566 3.377,0 c 0.717,0 1.077,0 1.077,0.7192 0,0.3949 -0.359,0.3949 -1.006,0.3949 l -3.159,0 c 1.292,5.098 1.472,5.8168 1.472,6.0328 0,0.6109 -0.431,0.9699 -1.041,0.9699 -0.108,0 -1.114,-0.0359 -1.437,-1.2937 l -1.4,-5.709 -3.377,0 c -0.717,0 -1.077,0 -1.077,-0.6832 0,-0.4309 0.288,-0.4309 1.005,-0.4309 l 3.161,0 c -2.586,-10.2 -2.73,-10.809 -2.73,-11.4558 0,-1.9391 1.364,-3.305121 3.305,-3.305121 3.663,0 5.709,5.243721 5.709,5.530821 0,0.359 -0.287,0.359 -0.431,0.359 -0.322,0 -0.358,-0.1078 -0.537,-0.5027 -1.545,-3.7363 -3.448,-4.59728 -4.669,-4.59728 -0.755,0 -1.114,0.46718 -1.114,1.65198 0,0.8633 0.072,1.114 0.216,1.723 L 573,23.5648"
           inkscape:connector-curvature="0" />
        <path
           id="path6116"
           style="fill:#000000;fill-opacity:1;fill-rule:nonzero;stroke:none"
           d="m 601.189,17.4609 10.02,0 c 0.503,0 1.184,0 1.184,0.7172 0,0.7188 -0.681,0.7188 -1.184,0.7188 l -10.02,0 0,10.0562 c 0,0.5028 0,1.184 -0.719,1.184 -0.719,0 -0.719,-0.6812 -0.719,-1.184 l 0,-10.0562 -10.055,0 c -0.503,0 -1.186,0 -1.186,-0.7188 0,-0.7172 0.683,-0.7172 1.186,-0.7172 l 10.055,0 0,-10.05582 c 0,-0.50313 0,-1.18594 0.719,-1.18594 0.719,0 0.719,0.68281 0.719,1.18594 l 0,10.05582"
           inkscape:connector-curvature="0" />
        <path
           id="path6118"
           style="fill:#000000;fill-opacity:1;fill-rule:nonzero;stroke:none"
           d="m 638.273,34.2691 c -0.25,0.4661 -0.322,0.645 -0.933,0.645 -0.611,0 -0.683,-0.1801 -0.934,-0.645 L 624.267,9.91914 c -0.18,-0.32305 -0.18,-0.395311 -0.18,-0.43125 0,-0.28672 0.216,-0.28672 0.791,-0.28672 l 24.925,0 c 0.573,0 0.789,0 0.789,0.287889 0,0.035942 0,0.107821 -0.18,0.430861 l -12.139,24.34998 0,-8e-4 z m -2.082,-2.9461 9.661,-19.3941 -19.358,0 9.697,19.3941"
           inkscape:connector-curvature="0" />
        <path
           id="path6120"
           style="fill:#000000;fill-opacity:1;fill-rule:nonzero;stroke:none"
           d="m 659.598,23.566 3.377,0 c 0.717,0 1.077,0 1.077,0.7192 0,0.3949 -0.359,0.3949 -1.006,0.3949 l -3.159,0 c 1.292,5.098 1.472,5.8168 1.472,6.0328 0,0.6109 -0.431,0.9699 -1.041,0.9699 -0.108,0 -1.114,-0.0359 -1.437,-1.2937 l -1.4,-5.709 -3.377,0 c -0.717,0 -1.077,0 -1.077,-0.6832 0,-0.4309 0.288,-0.4309 1.005,-0.4309 l 3.161,0 c -2.586,-10.2 -2.73,-10.809 -2.73,-11.4558 0,-1.9391 1.364,-3.305121 3.305,-3.305121 3.663,0 5.709,5.243721 5.709,5.530821 0,0.359 -0.287,0.359 -0.431,0.359 -0.322,0 -0.358,-0.1078 -0.537,-0.5027 -1.545,-3.7363 -3.448,-4.59728 -4.669,-4.59728 -0.755,0 -1.114,0.46718 -1.114,1.65198 0,0.8633 0.072,1.114 0.216,1.723 l 2.658,10.5949"
           inkscape:connector-curvature="0" />
        <path
           id="path6122"
           style="fill:#000000;fill-opacity:1;fill-rule:nonzero;stroke:none"
           d="m 675.58,18.1781 c 0,2.802 -0.395,7.1469 -2.37,11.2059 -2.155,4.4172 -5.244,6.7519 -5.603,6.7519 -0.216,0 -0.359,-0.1437 -0.359,-0.3589 0,-0.1079 0,-0.1801 0.683,-0.827 3.519,-3.5551 5.567,-9.266 5.567,-16.7719 0,-6.141 -1.33,-12.46208 -5.783,-16.98708 -0.467,-0.430082 -0.467,-0.501958 -0.467,-0.608989 0,-0.216015 0.144,-0.358984 0.359,-0.358984 0.359,0 3.592,2.441793 5.711,7.003123 1.831,3.95003 2.263,7.93793 2.263,10.95273"
           inkscape:connector-curvature="0" />
      </g>
    </g>
  </g>
</svg>
