<?xml version="1.0" encoding="UTF-8" standalone="no"?>
<svg
   xmlns:dc="http://purl.org/dc/elements/1.1/"
   xmlns:cc="http://creativecommons.org/ns#"
   xmlns:rdf="http://www.w3.org/1999/02/22-rdf-syntax-ns#"
   xmlns:svg="http://www.w3.org/2000/svg"
   xmlns="http://www.w3.org/2000/svg"
   xmlns:sodipodi="http://sodipodi.sourceforge.net/DTD/sodipodi-0.dtd"
   xmlns:inkscape="http://www.inkscape.org/namespaces/inkscape"
   height="768"
   width="1024"
   id="svg2"
   version="1.1"
   inkscape:version="0.48.2 r9819"
   sodipodi:docname="nlse.svg">
  <metadata
     id="metadata26767">
    <rdf:RDF>
      <cc:Work
         rdf:about="">
        <dc:format>image/svg+xml</dc:format>
        <dc:type
           rdf:resource="http://purl.org/dc/dcmitype/StillImage" />
        <dc:title />
      </cc:Work>
    </rdf:RDF>
  </metadata>
  <defs
     id="defs26765">
    <marker
       inkscape:stockid="Arrow1Lstart"
       orient="auto"
       refY="0.0"
       refX="0.0"
       id="Arrow1Lstart"
       style="overflow:visible">
      <path
         id="path5131"
         d="M 0.0,0.0 L 5.0,-5.0 L -12.5,0.0 L 5.0,5.0 L 0.0,0.0 z "
         style="fill-rule:evenodd;stroke:#000000;stroke-width:1.0pt;marker-start:none"
         transform="scale(0.8) translate(12.5,0)" />
    </marker>
    <clipPath
       id="clipPath3146"
       clipPathUnits="userSpaceOnUse">
      <path
         id="path3148"
         d="M 0,0 160,0 160,77 0,77 0,0 z" />
    </clipPath>
    <clipPath
       id="clipPath3140"
       clipPathUnits="userSpaceOnUse">
      <path
         id="path3142"
         d="M 0,0.2 160,0.2 160,77 0,77 0,0.2 z" />
    </clipPath>
    <clipPath
       id="clipPath3236"
       clipPathUnits="userSpaceOnUse">
      <path
         id="path3238"
         d="M 0,0 120,0 120,77 0,77 0,0 z" />
    </clipPath>
    <clipPath
       id="clipPath3230"
       clipPathUnits="userSpaceOnUse">
      <path
         id="path3232"
         d="M 0,0.2 120,0.2 120,77 0,77 0,0.2 z" />
    </clipPath>
    <clipPath
       id="clipPath3317"
       clipPathUnits="userSpaceOnUse">
      <path
         id="path3319"
         d="M 0,0 136,0 136,81 0,81 0,0 z" />
    </clipPath>
    <clipPath
       id="clipPath3407"
       clipPathUnits="userSpaceOnUse">
      <path
         id="path3409"
         d="M 0,0 168,0 168,77 0,77 0,0 z" />
    </clipPath>
    <clipPath
       id="clipPath3401"
       clipPathUnits="userSpaceOnUse">
      <path
         id="path3403"
         d="M 0,0.2 168,0.2 168,77 0,77 0,0.2 z" />
    </clipPath>
    <clipPath
       id="clipPath3494"
       clipPathUnits="userSpaceOnUse">
      <path
         id="path3496"
         d="M 0,0 170,0 170,81 0,81 0,0 z" />
    </clipPath>
    <clipPath
       id="clipPath3587"
       clipPathUnits="userSpaceOnUse">
      <path
         id="path3589"
         d="M 0,0 490,0 490,77 0,77 0,0 z" />
    </clipPath>
    <clipPath
       id="clipPath3581"
       clipPathUnits="userSpaceOnUse">
      <path
         id="path3583"
         d="M 0,0.2 490,0.2 490,77 0,77 0,0.2 z" />
    </clipPath>
    <clipPath
       id="clipPath3725"
       clipPathUnits="userSpaceOnUse">
      <path
         id="path3727"
         d="M 0,0 643,0 643,80 0,80 0,0 z" />
    </clipPath>
    <clipPath
       id="clipPath4939"
       clipPathUnits="userSpaceOnUse">
      <path
         id="path4941"
         d="M 0,0 949,0 949,81 0,81 0,0 z" />
    </clipPath>
  </defs>
  <sodipodi:namedview
     pagecolor="#ffffff"
     bordercolor="#666666"
     borderopacity="1"
     objecttolerance="10"
     gridtolerance="10"
     guidetolerance="10"
     inkscape:pageopacity="0"
     inkscape:pageshadow="2"
     inkscape:window-width="1920"
     inkscape:window-height="1156"
     id="namedview26763"
     showgrid="false"
     inkscape:zoom="0.82987516"
     inkscape:cx="549.02373"
     inkscape:cy="216.84949"
     inkscape:window-x="0"
     inkscape:window-y="0"
     inkscape:window-maximized="0"
     inkscape:current-layer="svg2"
     showguides="true"
     inkscape:guide-bbox="true" />
  <text
     xml:space="preserve"
     style="font-size:32px;font-style:normal;font-variant:normal;font-weight:normal;font-stretch:normal;text-align:start;line-height:125%;letter-spacing:0px;word-spacing:0px;writing-mode:lr-tb;text-anchor:start;fill:#000000;fill-opacity:1;stroke:none;font-family:Arial;-inkscape-font-specification:Arial"
     x="39.89003"
     y="545.77985"
     id="nlse_what_next_1"
     sodipodi:linespacing="125%"
     inkscape:label="#text5640"><tspan
       sodipodi:role="line"
       x="39.89003"
       y="545.77985"
       id="tspan5662">1. Give up and switch to a different field that has nicer terms.</tspan></text>
  <text
     sodipodi:linespacing="125%"
     id="nlse_what_next_2"
     y="625.77985"
     x="39.89003"
     style="font-size:32px;font-style:normal;font-variant:normal;font-weight:normal;font-stretch:normal;text-align:start;line-height:125%;letter-spacing:0px;word-spacing:0px;writing-mode:lr-tb;text-anchor:start;fill:#000000;fill-opacity:1;stroke:none;font-family:Arial;-inkscape-font-specification:Arial"
     xml:space="preserve"
     inkscape:label="#text5648"><tspan
       y="625.77985"
       x="39.89003"
       id="tspan5650"
       sodipodi:role="line">2. Whack it by using a non-linear method.</tspan></text>
  <text
     xml:space="preserve"
     style="font-size:32px;font-style:normal;font-variant:normal;font-weight:normal;font-stretch:normal;text-align:start;line-height:125%;letter-spacing:0px;word-spacing:0px;writing-mode:lr-tb;text-anchor:start;fill:#000000;fill-opacity:1;stroke:none;font-family:Arial;-inkscape-font-specification:Arial"
     x="39.89003"
     y="705.77985"
     id="nlse_what_next_3"
     sodipodi:linespacing="125%"
     inkscape:label="#text5664"><tspan
       sodipodi:role="line"
       x="39.89003"
       y="705.77985"
       id="tspan5668">3. Apply our combined might as physicists to <tspan
   style="font-size:32px;font-style:italic;font-variant:normal;font-weight:normal;font-stretch:normal;text-align:start;line-height:125%;writing-mode:lr-tb;text-anchor:start;font-family:Arial;-inkscape-font-specification:Arial Italic"
   id="tspan5672">force</tspan> it to be linear!</tspan></text>
  <rect
     y="-3.0517578e-05"
     x="2"
     width="1022"
     style="fill:#000000;fill-opacity:1;stroke:none;display:inline"
     id="rect3686"
     height="130"
     sodipodi:insensitive="true" />
  <text
     xml:space="preserve"
     style="font-size:40px;font-style:normal;font-variant:normal;font-weight:normal;font-stretch:normal;text-align:start;line-height:125%;letter-spacing:0px;word-spacing:0px;writing-mode:lr-tb;text-anchor:start;fill:#000000;fill-opacity:1;stroke:none;font-family:Arial;-inkscape-font-specification:Arial"
     x="82.268433"
     y="269.55011"
     id="text5337"
     sodipodi:linespacing="125%"><tspan
       sodipodi:role="line"
       id="tspan5339"
       x="82.268433"
       y="269.55011" /></text>
  <text
     xml:space="preserve"
     style="font-size:40px;font-style:normal;font-variant:normal;font-weight:normal;font-stretch:normal;text-align:start;line-height:125%;letter-spacing:0px;word-spacing:0px;writing-mode:lr-tb;text-anchor:start;fill:#000000;fill-opacity:1;stroke:none;font-family:Arial;-inkscape-font-specification:Arial"
     x="82.268433"
     y="269.55011"
     id="text5337-9"
     sodipodi:linespacing="125%"><tspan
       sodipodi:role="line"
       id="tspan5339-9"
       x="82.268433"
       y="269.55011" /></text>
  <text
     xml:space="preserve"
     style="font-size:40px;font-style:normal;font-variant:normal;font-weight:normal;font-stretch:normal;text-align:start;line-height:125%;letter-spacing:0px;word-spacing:0px;writing-mode:lr-tb;text-anchor:start;fill:#000000;fill-opacity:1;stroke:none;font-family:Arial;-inkscape-font-specification:Arial"
     x="82.268433"
     y="269.55011"
     id="text5337-4"
     sodipodi:linespacing="125%"><tspan
       sodipodi:role="line"
       id="tspan5339-94"
       x="82.268433"
       y="269.55011" /></text>
  <text
     xml:space="preserve"
     style="font-size:40px;font-style:normal;font-variant:normal;font-weight:normal;font-stretch:normal;text-align:start;line-height:125%;letter-spacing:0px;word-spacing:0px;writing-mode:lr-tb;text-anchor:start;fill:#000000;fill-opacity:1;stroke:none;font-family:Arial;-inkscape-font-specification:Arial"
     x="82.268433"
     y="269.55011"
     id="text5337-0"
     sodipodi:linespacing="125%"><tspan
       sodipodi:role="line"
       id="tspan5339-8"
       x="82.268433"
       y="269.55011" /></text>
  <text
     xml:space="preserve"
     style="font-size:40px;font-style:normal;font-variant:normal;font-weight:normal;font-stretch:normal;text-align:start;line-height:125%;letter-spacing:0px;word-spacing:0px;writing-mode:lr-tb;text-anchor:start;fill:#000000;fill-opacity:1;stroke:none;font-family:Arial;-inkscape-font-specification:Arial"
     x="82.268433"
     y="269.55011"
     id="text5337-05"
     sodipodi:linespacing="125%"><tspan
       sodipodi:role="line"
       id="tspan5339-7"
       x="82.268433"
       y="269.55011" /></text>
  <g
     transform="matrix(1.0125,0,0,-1.0125,38.546622,240.80815)"
     inkscape:label="schro"
     id="nlse_schro">
    <g
       id="g4933" />
    <g
       id="g4935">
      <g
         clip-path="url(#clipPath4939)"
         id="g4937">
        <path
           id="path4943"
           style="fill:#000000;fill-opacity:1;fill-rule:nonzero;stroke:none"
           d="m 9.400001,48.7469 c 0,0.7172 -0.503121,1.2922 -1.330081,1.2922 -0.96875,0 -1.93906,-0.9332 -1.93906,-1.9032 0,-0.68279 0.50312,-1.29369 1.36602,-1.29369 0.824999,0 1.903121,0.82689 1.903121,1.90469 z M 6.669919,35.2422 c 0.431251,1.0418 0.431251,1.1137 0.791021,2.0828 0.28594,0.7191 0.46601,1.2219 0.46601,1.9051 0,1.616 -1.14804,2.9437 -2.94414,2.9437 -3.37695,0 -4.740622,-5.2058 -4.740622,-5.5297 0,-0.3589 0.357812,-0.3589 0.429687,-0.3589 0.358985,0 0.395315,0.0718 0.575005,0.6468 0.97031,3.375 2.40624,4.4532 3.62812,4.4532 0.28789,0 0.89688,0 0.89688,-1.15 0,-0.7532 -0.25196,-1.5082 -0.39493,-1.8672 -0.28593,-0.934 -1.90312,-5.1 -2.47812,-6.6442 -0.35781,-0.934 -0.825,-2.1187 -0.825,-2.8726 0,-1.6871 1.22031,-2.9453 2.94531,-2.9453 3.375,0 4.70469,5.2082 4.70469,5.5312 0,0.359 -0.32266,0.359 -0.43086,0.359 -0.35899,0 -0.35899,-0.1082 -0.53906,-0.6473 -0.64688,-2.2617 -1.83086,-4.4527 -3.66172,-4.4527 -0.61133,0 -0.86211,0.359 -0.86211,1.184 0,0.898 0.21601,1.4019 1.04101,3.5918 l 1.40196,3.7703"
           inkscape:connector-curvature="0" />
        <path
           id="path4945"
           style="fill:#000000;fill-opacity:1;fill-rule:nonzero;stroke:none"
           d="m 33.9281,62.775 c -0.359,2.227 -1.8312,4.2379 -4.6332,4.2379 -2.191,0 -4.525,-0.575 -7.3269,-3.37499 C 18.9871,60.657 18.7352,57.316 18.7352,56.2039 c 0,-2.2269 1.5808,-6.3937 6.6089,-6.3937 8.5469,0 12.2829,12.0668 12.2829,17.2027 0,5.71091 -3.3411,9.3019 -7.7579,9.3019 -5.2082,0 -6.8589,-4.66869 -6.8589,-5.6726 0,-0.50309 0.2878,-1.2582 1.3636,-1.2582 1.1864,0 1.9391,1.0781 1.9391,1.9031 0,1.25781 -1.1117,1.25781 -1.6867,1.25781 1.5797,2.65819 4.1297,2.87309 5.1718,2.87309 2.6219,0 5.136,-1.86919 5.136,-6.502 0,-1.4 -0.216,-3.2308 -0.9699,-6.141 l -0.036,0 z m -8.475,-11.959 c -3.9519,0 -3.9519,3.69811 -3.9519,4.05781 0,0.97029 0.8976,5.9981 2.3699,8.15319 1.4379,2.04681 3.1969,3.19681 5.423,3.19681 3.9137,0 3.986,-4.02261 3.986,-4.74181 0,-2.584 -2.2981,-10.666 -7.8281,-10.666"
           inkscape:connector-curvature="0" />
        <g
           transform="scale(0.1,0.1)"
           id="g4947">
          <path
             id="path4949"
             style="fill:none;stroke:#000000;stroke-width:14.32800007;stroke-linecap:butt;stroke-linejoin:miter;stroke-miterlimit:10;stroke-opacity:1;stroke-dasharray:none"
             d="m 158.141,353.121 339.839,0"
             inkscape:connector-curvature="0" />
        </g>
        <path
           id="path4951"
           style="fill:#000000;fill-opacity:1;fill-rule:nonzero;stroke:none"
           d="m 32.4281,13.875 c -0.359,2.227 -1.8312,4.2379 -4.6332,4.2379 -2.191,0 -4.525,-0.575 -7.3269,-3.375 -2.9809,-2.9809 -3.2328,-6.321881 -3.2328,-7.43399 0,-2.22696 1.5808,-6.393754 6.6089,-6.393754 8.5469,0 12.2829,12.066844 12.2829,17.202744 0,5.7109 -3.3411,9.3019 -7.7579,9.3019 -5.2082,0 -6.8589,-4.6687 -6.8589,-5.6726 0,-0.5031 0.2878,-1.2582 1.3636,-1.2582 1.1864,0 1.9391,1.0781 1.9391,1.9031 0,1.2578 -1.1117,1.2578 -1.6867,1.2578 1.5797,2.6582 4.1297,2.8731 5.1718,2.8731 2.6219,0 5.136,-1.8692 5.136,-6.502 0,-1.4 -0.216,-3.2308 -0.9699,-6.141 l -0.036,0 z M 23.9531,1.91602 c -3.9519,0 -3.9519,3.69804 -3.9519,4.05781 0,0.97031 0.8976,5.99807 2.3699,8.15317 1.4379,2.0468 3.1969,3.1968 5.423,3.1968 3.9137,0 3.986,-4.0226 3.986,-4.7418 0,-2.58395 -2.2981,-10.66598 -7.8281,-10.66598"
           inkscape:connector-curvature="0" />
        <path
           id="path4953"
           style="fill:#000000;fill-opacity:1;fill-rule:nonzero;stroke:none"
           d="m 44.298,16.066 3.377,0 c 0.7172,0 1.077,0 1.077,0.7192 0,0.3949 -0.359,0.3949 -1.00589,0.3949 l -3.15901,0 c 1.2918,5.098 1.4719,5.8168 1.4719,6.0328 0,0.6109 -0.43089,0.9699 -1.041,0.9699 -0.1078,0 -1.1141,-0.0359 -1.4371,-1.2937 l -1.4,-5.709 -3.37699,0 c -0.71681,0 -1.07691,0 -1.07691,-0.6832 0,-0.4309 0.2878,-0.4309 1.005,-0.4309 l 3.161,0 C 39.307,5.86602 39.1629,5.25703 39.1629,4.61016 c 0,-1.93907 1.3641,-3.30508 3.3051,-3.30508 3.6629,0 5.709,5.24375 5.709,5.53086 0,0.35898 -0.2872,0.35898 -0.43089,0.35898 -0.3223,0 -0.3582,-0.10781 -0.53711,-0.50273 -1.5449,-3.73633 -3.4481,-4.59727 -4.6692,-4.59727 -0.7546,0 -1.1136,0.46719 -1.1136,1.65196 0,0.86328 0.0718,1.11406 0.216,1.72304 L 44.3,16.0648"
           inkscape:connector-curvature="0" />
        <path
           id="path4955"
           style="fill:#000000;fill-opacity:1;fill-rule:nonzero;stroke:none"
           d="m 71.4109,50.291 c 0.03601,0.1442 0.1082,0.359 0.1082,0.5391 0,0.359 -0.2519,0.3949 -0.43119,0.3949 -0.35901,0 -0.39491,-0.0719 -0.5391,-0.7191 l -5.9609,-23.7387 c -2.73011,0.3226 -4.09491,1.6519 -4.09491,4.0219 0,0.7187 0,1.6519 1.941,6.68 0.1422,0.4309 0.3941,1.0418 0.3941,1.761 0,1.616 -1.148,2.9437 -2.9441,2.9437 -3.4121,0 -4.741,-5.2058 -4.741,-5.5297 0,-0.3589 0.3582,-0.3589 0.43,-0.3589 0.359,0 0.395,0.0718 0.575,0.6468 0.97,3.411 2.4059,4.4532 3.6282,4.4532 0.28791,0 0.8968,0 0.8968,-1.15 0,-0.9332 -0.35889,-1.8313 -0.825,-3.0891 -1.725,-4.52499 -1.725,-5.4582 -1.725,-6.0691 0,-3.4122 2.802,-4.884 6.25,-5.1 -0.2871,-1.2918 -0.2871,-1.3641 -0.791,-3.2692 -0.1082,-0.3937 -0.8269,-3.3027 -0.8269,-3.4109 0,-0.036 0,-0.359 0.4308,-0.359 0.0719,0 0.252,0 0.3231,0.1441 0.10821,0.0719 0.323,0.97 0.4308,1.4719 l 1.3641,5.352 c 1.3301,0 4.4891,0 7.86601,3.8441 1.47229,1.652 2.22699,3.2309 2.6223,4.309 0.32259,0.8969 1.1137,4.0219 1.1137,5.6019 0,2.0129 -0.97,2.5141 -1.58091,2.5141 -0.8969,0 -1.79489,-0.9328 -1.79489,-1.723 0,-0.4668 0.216,-0.6829 0.539,-0.9692 0.39499,-0.3949 1.29179,-1.3297 1.29179,-3.0527 0,-2.2981 -1.8668,-5.2442 -3.125,-6.536 -3.1589,-3.1972 -5.4578,-3.1972 -6.7519,-3.1972 l 5.9269,23.5953"
           inkscape:connector-curvature="0" />
        <path
           id="path4957"
           style="fill:#000000;fill-opacity:1;fill-rule:nonzero;stroke:none"
           d="m 90.6879,17.6809 c 0,0.1082 0,0.18 -0.6109,0.789 -4.48909,4.525 -5.6372,11.3141 -5.6372,16.8082 0,6.25 1.36411,12.4981 5.78131,16.9879 0.46679,0.43091 0.46679,0.5031 0.46679,0.611 0,0.2519 -0.14379,0.3589 -0.35899,0.3589 -0.35901,0 -3.591,-2.4418 -5.70901,-7.0031 -1.8328,-3.9519 -2.26209,-7.9367 -2.26209,-10.9547 0,-2.8019 0.39419,-7.1472 2.3703,-11.2051 2.15469,-4.4171 5.24179,-6.7519 5.60199,-6.7519 0.216,0 0.35901,0.1078 0.35901,0.359"
           inkscape:connector-curvature="0" />
        <path
           id="path4959"
           style="fill:#000000;fill-opacity:1;fill-rule:nonzero;stroke:none"
           d="m 104.695,37.1449 c 0.216,0.934 1.042,4.2391 3.556,4.2391 0.178,0 1.041,0 1.795,-0.4668 -1.006,-0.1801 -1.723,-1.0781 -1.723,-1.9391 0,-0.575 0.394,-1.2582 1.364,-1.2582 0.791,0 1.939,0.6473 1.939,2.0832 0,1.8688 -2.119,2.3699 -3.339,2.3699 -2.084,0 -3.341,-1.9031 -3.772,-2.7281 -0.898,2.3699 -2.837,2.7281 -3.878,2.7281 -3.73579,0 -5.7831,-4.6332 -5.7831,-5.53 0,-0.359 0.35901,-0.359 0.43131,-0.359 0.28779,0 0.3949,0.0719 0.46679,0.39491 1.21991,3.80629 3.591,4.70509 4.813,4.70509 0.681,0 1.939,-0.3231 1.939,-2.4059 0,-1.114 -0.611,-3.5203 -1.939,-8.548 -0.57519,-2.227 -1.833,-3.734 -3.41189,-3.734 -0.21601,0 -1.041,0 -1.7953,0.4668 0.8981,0.1801 1.68829,0.9332 1.68829,1.9391 0,0.9691 -0.7891,1.2558 -1.3281,1.2558 -1.07819,0 -1.975,-0.9328 -1.975,-2.0828 0,-1.652 1.7949,-2.3699 3.375,-2.3699 2.36991,0 3.664,2.514 3.772,2.7301 0.43,-1.3282 1.723,-2.7301 3.878,-2.7301 3.698,0 5.747,4.6328 5.747,5.5308 0,0.359 -0.323,0.359 -0.431,0.359 -0.323,0 -0.395,-0.1437 -0.467,-0.3949 -1.186,-3.8441 -3.628,-4.7051 -4.777,-4.7051 -1.4,0 -1.975,1.1481 -1.975,2.3699 0,0.7911 0.216,1.5801 0.611,3.1614 l 1.22,4.9187"
           inkscape:connector-curvature="0" />
        <path
           id="path4961"
           style="fill:#000000;fill-opacity:1;fill-rule:nonzero;stroke:none"
           d="m 120.491,26.3359 c 0,2.37 -0.898,3.77 -2.298,3.77 -1.186,0 -1.903,-0.8969 -1.903,-1.9028 0,-0.9691 0.717,-1.9031 1.903,-1.9031 0.431,0 0.898,0.1441 1.256,0.4672 0.108,0.0719 0.144,0.1078 0.18,0.1078 0.036,0 0.072,-0.0359 0.072,-0.5391 0,-2.6578 -1.256,-4.8121 -2.442,-5.998 -0.395,-0.3938 -0.395,-0.466 -0.395,-0.5731 0,-0.2519 0.18,-0.3949 0.359,-0.3949 0.395,0 3.269,2.766 3.269,6.9672"
           inkscape:connector-curvature="0" />
        <path
           id="path4963"
           style="fill:#000000;fill-opacity:1;fill-rule:nonzero;stroke:none"
           d="m 136.498,40.666 3.377,0 c 0.717,0 1.077,0 1.077,0.7192 0,0.3949 -0.359,0.3949 -1.006,0.3949 l -3.159,0 c 1.292,5.09801 1.472,5.8168 1.472,6.0328 0,0.61091 -0.431,0.9699 -1.041,0.9699 -0.108,0 -1.114,-0.0359 -1.437,-1.2937 l -1.4,-5.709 -3.377,0 c -0.717,0 -1.077,0 -1.077,-0.6832 0,-0.4309 0.288,-0.4309 1.005,-0.4309 l 3.161,0 c -2.586,-10.2 -2.73,-10.809 -2.73,-11.4558 0,-1.9391 1.364,-3.3051 3.305,-3.3051 3.663,0 5.709,5.2437 5.709,5.5308 0,0.359 -0.287,0.359 -0.431,0.359 -0.322,0 -0.358,-0.1078 -0.537,-0.5027 -1.545,-3.7363 -3.448,-4.5973 -4.669,-4.5973 -0.755,0 -1.114,0.4672 -1.114,1.652 0,0.8633 0.072,1.114 0.216,1.723 l 2.658,10.5949"
           inkscape:connector-curvature="0" />
        <path
           id="path4965"
           style="fill:#000000;fill-opacity:1;fill-rule:nonzero;stroke:none"
           d="m 152.48,35.2781 c 0,2.802 -0.395,7.1469 -2.37,11.2059 -2.155,4.4172 -5.244,6.7519 -5.603,6.7519 -0.216,0 -0.359,-0.1437 -0.359,-0.3589 0,-0.1079 0,-0.18009 0.683,-0.827 3.519,-3.5551 5.567,-9.266 5.567,-16.7719 0,-6.141 -1.33,-12.4621 -5.783,-16.9871 -0.467,-0.4301 -0.467,-0.5019 -0.467,-0.609 0,-0.216 0.144,-0.359 0.359,-0.359 0.359,0 3.592,2.4418 5.711,7.0032 1.831,3.95 2.263,7.9379 2.263,10.9527"
           inkscape:connector-curvature="0" />
        <path
           id="path4967"
           style="fill:#000000;fill-opacity:1;fill-rule:nonzero;stroke:none"
           d="m 190.673,38.0441 c 0.539,0 1.22,0 1.22,0.71881 0,0.71909 -0.681,0.71909 -1.184,0.71909 l -21.512,0 c -0.503,0 -1.186,0 -1.186,-0.71909 0,-0.71881 0.683,-0.71881 1.222,-0.71881 l 21.441,0 -0.001,0 z m 0.036,-6.9671 c 0.503,0 1.184,0 1.184,0.7191 0,0.71681 -0.681,0.71681 -1.22,0.71681 l -21.441,0 c -0.539,0 -1.222,0 -1.222,-0.71681 0,-0.7191 0.683,-0.7191 1.186,-0.7191 l 21.513,0"
           inkscape:connector-curvature="0" />
        <path
           id="path4969"
           style="fill:#000000;fill-opacity:1;fill-rule:nonzero;stroke:none"
           d="m 227.567,34.5609 c 0.611,0 1.258,0 1.258,0.7172 0,0.7188 -0.647,0.7188 -1.258,0.7188 l -19.43,0 c -0.611,0 -1.256,0 -1.256,-0.7188 0,-0.7172 0.645,-0.7172 1.256,-0.7172 l 19.43,0"
           inkscape:connector-curvature="0" />
        <path
           id="path4971"
           style="fill:#000000;fill-opacity:1;fill-rule:nonzero;stroke:none"
           d="m 246.659,73.584 c 0,0.86291 0,0.934 -0.827,0.934 -2.227,-2.2981 -5.387,-2.2981 -6.536,-2.2981 l 0,-1.114 c 0.717,0 2.836,0 4.705,0.9339 l 0,-18.6027 c 0,-1.2941 -0.108,-1.72299 -3.341,-1.72299 l -1.148,0 0,-1.11411 c 1.256,0.10781 4.381,0.10781 5.817,0.10781 1.438,0 4.561,0 5.819,-0.10781 l 0,1.11411 -1.15,0 c -3.231,0 -3.339,0.39369 -3.339,1.72299 l 0,20.1469"
           inkscape:connector-curvature="0" />
        <g
           transform="scale(0.1,0.1)"
           id="g4973">
          <path
             id="path4975"
             style="fill:none;stroke:#000000;stroke-width:14.32800007;stroke-linecap:butt;stroke-linejoin:miter;stroke-miterlimit:10;stroke-opacity:1;stroke-dasharray:none"
             d="m 2360.59,353.121 179.31,0"
             inkscape:connector-curvature="0" />
        </g>
        <path
           id="path4977"
           style="fill:#000000;fill-opacity:1;fill-rule:nonzero;stroke:none"
           d="m 240.661,4.46602 3.808,3.69804 c 5.602,4.95584 7.756,6.89494 7.756,10.48794 0,4.0941 -3.231,6.9671 -7.614,6.9671 -4.058,0 -6.716,-3.305 -6.716,-6.5 0,-2.0113 1.797,-2.0113 1.903,-2.0113 0.611,0 1.869,0.4301 1.869,1.9031 0,0.9332 -0.647,1.8672 -1.905,1.8672 -0.286,0 -0.358,0 -0.466,-0.0359 0.825,2.334 2.766,3.6637 4.848,3.6637 3.267,0 4.813,-2.909 4.813,-5.8547 0,-2.8731 -1.797,-5.7114 -3.772,-7.9371 L 238.29,3.02812 C 237.895,2.63398 237.895,2.56211 237.895,1.7 l 13.325,0 1.005,6.24805 -0.897,0 c -0.18,-1.07696 -0.431,-2.65586 -0.791,-3.19493 -0.252,-0.2871 -2.622,-0.2871 -3.412,-0.2871 l -6.464,0"
           inkscape:connector-curvature="0" />
        <path
           id="path4979"
           style="fill:#000000;fill-opacity:1;fill-rule:nonzero;stroke:none"
           d="m 284.528,62.775 c -0.359,2.227 -1.831,4.2379 -4.633,4.2379 -2.191,0 -4.525,-0.575 -7.327,-3.37499 -2.981,-2.98091 -3.233,-6.32191 -3.233,-7.43401 0,-2.2269 1.581,-6.3937 6.609,-6.3937 8.547,0 12.283,12.0668 12.283,17.2027 0,5.71091 -3.341,9.3019 -7.758,9.3019 -5.208,0 -6.859,-4.66869 -6.859,-5.6726 0,-0.50309 0.288,-1.2582 1.364,-1.2582 1.186,0 1.939,1.0781 1.939,1.9031 0,1.25781 -1.112,1.25781 -1.687,1.25781 1.58,2.65819 4.13,2.87309 5.172,2.87309 2.622,0 5.136,-1.86919 5.136,-6.502 0,-1.4 -0.216,-3.2308 -0.97,-6.141 l -0.036,0 z m -8.475,-11.959 c -3.952,0 -3.952,3.69811 -3.952,4.05781 0,0.97029 0.898,5.9981 2.37,8.15319 1.438,2.04681 3.197,3.19681 5.423,3.19681 3.914,0 3.986,-4.02261 3.986,-4.74181 0,-2.584 -2.298,-10.666 -7.828,-10.666"
           inkscape:connector-curvature="0" />
        <path
           id="path4981"
           style="fill:#000000;fill-opacity:1;fill-rule:nonzero;stroke:none"
           d="m 301.558,68.1609 -0.853,0 c -0.075,-0.55 -0.325,-2.02999 -0.652,-2.27999 -0.2,-0.15201 -2.13,-0.15201 -2.481,-0.15201 l -4.611,0 c 2.631,2.3313 3.508,3.03321 5.013,4.2109 1.855,1.48011 3.584,3.0332 3.584,5.4141 0,3.03321 -2.658,4.88831 -5.866,4.88831 -3.108,0 -5.212,-2.1813 -5.212,-4.4863 0,-1.27781 1.077,-1.40471 1.328,-1.40471 0.602,0 1.328,0.4269 1.328,1.3297 0,0.45001 -0.175,1.3281 -1.48,1.3281 0.778,1.78011 2.481,2.33081 3.659,2.33081 2.506,0 3.811,-1.95581 3.811,-3.98591 0,-2.18009 -1.555,-3.90899 -2.356,-4.81169 l -6.041,-5.96411 c -0.25,-0.2269 -0.25,-0.2769 -0.25,-0.9781 l 10.325,0 0.753,4.5609"
           inkscape:connector-curvature="0" />
        <g
           transform="scale(0.1,0.1)"
           id="g4983">
          <path
             id="path4985"
             style="fill:none;stroke:#000000;stroke-width:14.32800007;stroke-linecap:butt;stroke-linejoin:miter;stroke-miterlimit:10;stroke-opacity:1;stroke-dasharray:none"
             d="m 2625.98,353.121 576.22,0"
             inkscape:connector-curvature="0" />
        </g>
        <path
           id="path4987"
           style="fill:#000000;fill-opacity:1;fill-rule:nonzero;stroke:none"
           d="m 279.228,13.875 c -0.359,2.227 -1.831,4.2379 -4.633,4.2379 -2.191,0 -4.525,-0.575 -7.327,-3.375 -2.981,-2.9809 -3.233,-6.321881 -3.233,-7.43399 0,-2.22696 1.581,-6.393754 6.609,-6.393754 8.547,0 12.283,12.066844 12.283,17.202744 0,5.7109 -3.341,9.3019 -7.758,9.3019 -5.208,0 -6.859,-4.6687 -6.859,-5.6726 0,-0.5031 0.288,-1.2582 1.364,-1.2582 1.186,0 1.939,1.0781 1.939,1.9031 0,1.2578 -1.112,1.2578 -1.687,1.2578 1.58,2.6582 4.13,2.8731 5.172,2.8731 2.622,0 5.136,-1.8692 5.136,-6.502 0,-1.4 -0.216,-3.2308 -0.97,-6.141 l -0.036,0 z M 270.753,1.91602 c -3.952,0 -3.952,3.69804 -3.952,4.05781 0,0.97031 0.898,5.99807 2.37,8.15317 1.438,2.0468 3.197,3.1968 5.423,3.1968 3.914,0 3.986,-4.0226 3.986,-4.7418 0,-2.58395 -2.298,-10.66598 -7.828,-10.66598"
           inkscape:connector-curvature="0" />
        <path
           id="path4989"
           style="fill:#000000;fill-opacity:1;fill-rule:nonzero;stroke:none"
           d="m 295.595,12.5449 c 0.216,0.934 1.042,4.2391 3.556,4.2391 0.178,0 1.041,0 1.795,-0.4668 -1.006,-0.1801 -1.723,-1.0781 -1.723,-1.9391 0,-0.575 0.394,-1.2582 1.364,-1.2582 0.791,0 1.939,0.6473 1.939,2.0832 0,1.8688 -2.119,2.3699 -3.339,2.3699 -2.084,0 -3.341,-1.9031 -3.772,-2.7281 -0.898,2.3699 -2.837,2.7281 -3.878,2.7281 -3.736,0 -5.783,-4.6332 -5.783,-5.53 0,-0.359 0.359,-0.359 0.431,-0.359 0.288,0 0.395,0.0719 0.467,0.3949 1.22,3.8063 3.591,4.7051 4.813,4.7051 0.681,0 1.939,-0.3231 1.939,-2.4059 0,-1.114 -0.611,-3.5203 -1.939,-8.54802 -0.575,-2.22696 -1.833,-3.73399 -3.412,-3.73399 -0.216,0 -1.041,0 -1.795,0.4668 0.898,0.18008 1.688,0.9332 1.688,1.93906 0,0.96914 -0.789,1.25586 -1.328,1.25586 -1.078,0 -1.975,-0.93281 -1.975,-2.08281 0,-1.65195 1.795,-2.36992 3.375,-2.36992 2.37,0 3.664,2.51406 3.772,2.73008 0.43,-1.32813 1.723,-2.73008 3.878,-2.73008 3.698,0 5.747,4.63281 5.747,5.53086 0,0.35898 -0.323,0.35898 -0.431,0.35898 -0.323,0 -0.395,-0.14375 -0.467,-0.39492 -1.186,-3.84414 -3.628,-4.70508 -4.777,-4.70508 -1.4,0 -1.975,1.14805 -1.975,2.36992 0,0.79102 0.216,1.58008 0.611,3.16133 l 1.22,4.91873"
           inkscape:connector-curvature="0" />
        <path
           id="path4991"
           style="fill:#000000;fill-opacity:1;fill-rule:nonzero;stroke:none"
           d="m 316.758,16.6609 -0.853,0 c -0.075,-0.55 -0.325,-2.03 -0.652,-2.28 -0.2,-0.152 -2.13,-0.152 -2.481,-0.152 l -4.611,0 c 2.631,2.3313 3.508,3.0332 5.013,4.2109 1.855,1.4801 3.584,3.0332 3.584,5.4141 0,3.0332 -2.658,4.8883 -5.866,4.8883 -3.108,0 -5.212,-2.1813 -5.212,-4.4863 0,-1.2778 1.077,-1.4047 1.328,-1.4047 0.602,0 1.328,0.4269 1.328,1.3297 0,0.45 -0.175,1.3281 -1.48,1.3281 0.778,1.7801 2.481,2.3308 3.659,2.3308 2.506,0 3.811,-1.9558 3.811,-3.9859 0,-2.1801 -1.555,-3.909 -2.356,-4.8117 l -6.041,-5.9641 c -0.25,-0.2269 -0.25,-0.2769 -0.25,-0.9781 l 10.325,0 0.753,4.5609"
           inkscape:connector-curvature="0" />
        <path
           id="path4993"
           style="fill:#000000;fill-opacity:1;fill-rule:nonzero;stroke:none"
           d="m 341.811,50.291 c 0.036,0.1442 0.108,0.359 0.108,0.5391 0,0.359 -0.252,0.3949 -0.431,0.3949 -0.359,0 -0.395,-0.0719 -0.539,-0.7191 l -5.961,-23.7387 c -2.73,0.3226 -4.095,1.6519 -4.095,4.0219 0,0.7187 0,1.6519 1.941,6.68 0.142,0.4309 0.394,1.0418 0.394,1.761 0,1.616 -1.148,2.9437 -2.944,2.9437 -3.412,0 -4.741,-5.2058 -4.741,-5.5297 0,-0.3589 0.358,-0.3589 0.43,-0.3589 0.359,0 0.395,0.0718 0.575,0.6468 0.97,3.411 2.406,4.4532 3.628,4.4532 0.288,0 0.897,0 0.897,-1.15 0,-0.9332 -0.359,-1.8313 -0.825,-3.0891 -1.725,-4.52499 -1.725,-5.4582 -1.725,-6.0691 0,-3.4122 2.802,-4.884 6.25,-5.1 -0.287,-1.2918 -0.287,-1.3641 -0.791,-3.2692 -0.108,-0.3937 -0.827,-3.3027 -0.827,-3.4109 0,-0.036 0,-0.359 0.431,-0.359 0.072,0 0.252,0 0.323,0.1441 0.108,0.0719 0.323,0.97 0.431,1.4719 l 1.364,5.352 c 1.33,0 4.489,0 7.866,3.8441 1.472,1.652 2.227,3.2309 2.622,4.309 0.323,0.8969 1.114,4.0219 1.114,5.6019 0,2.0129 -0.97,2.5141 -1.581,2.5141 -0.897,0 -1.795,-0.9328 -1.795,-1.723 0,-0.4668 0.216,-0.6829 0.539,-0.9692 0.395,-0.3949 1.292,-1.3297 1.292,-3.0527 0,-2.2981 -1.867,-5.2442 -3.125,-6.536 -3.159,-3.1972 -5.458,-3.1972 -6.752,-3.1972 l 5.927,23.5953"
           inkscape:connector-curvature="0" />
        <path
           id="path4995"
           style="fill:#000000;fill-opacity:1;fill-rule:nonzero;stroke:none"
           d="m 361.088,17.6809 c 0,0.1082 0,0.18 -0.611,0.789 -4.489,4.525 -5.637,11.3141 -5.637,16.8082 0,6.25 1.364,12.4981 5.781,16.9879 0.467,0.43091 0.467,0.5031 0.467,0.611 0,0.2519 -0.144,0.3589 -0.359,0.3589 -0.359,0 -3.591,-2.4418 -5.709,-7.0031 -1.833,-3.9519 -2.262,-7.9367 -2.262,-10.9547 0,-2.8019 0.394,-7.1472 2.37,-11.2051 2.155,-4.4171 5.242,-6.7519 5.602,-6.7519 0.216,0 0.359,0.1078 0.359,0.359"
           inkscape:connector-curvature="0" />
        <path
           id="path4997"
           style="fill:#000000;fill-opacity:1;fill-rule:nonzero;stroke:none"
           d="m 375.095,37.1449 c 0.216,0.934 1.042,4.2391 3.556,4.2391 0.178,0 1.041,0 1.795,-0.4668 -1.006,-0.1801 -1.723,-1.0781 -1.723,-1.9391 0,-0.575 0.394,-1.2582 1.364,-1.2582 0.791,0 1.939,0.6473 1.939,2.0832 0,1.8688 -2.119,2.3699 -3.339,2.3699 -2.084,0 -3.341,-1.9031 -3.772,-2.7281 -0.898,2.3699 -2.837,2.7281 -3.878,2.7281 -3.736,0 -5.783,-4.6332 -5.783,-5.53 0,-0.359 0.359,-0.359 0.431,-0.359 0.288,0 0.395,0.0719 0.467,0.39491 1.22,3.80629 3.591,4.70509 4.813,4.70509 0.681,0 1.939,-0.3231 1.939,-2.4059 0,-1.114 -0.611,-3.5203 -1.939,-8.548 -0.575,-2.227 -1.833,-3.734 -3.412,-3.734 -0.216,0 -1.041,0 -1.795,0.4668 0.898,0.1801 1.688,0.9332 1.688,1.9391 0,0.9691 -0.789,1.2558 -1.328,1.2558 -1.078,0 -1.975,-0.9328 -1.975,-2.0828 0,-1.652 1.795,-2.3699 3.375,-2.3699 2.37,0 3.664,2.514 3.772,2.7301 0.43,-1.3282 1.723,-2.7301 3.878,-2.7301 3.698,0 5.747,4.6328 5.747,5.5308 0,0.359 -0.323,0.359 -0.431,0.359 -0.323,0 -0.395,-0.1437 -0.467,-0.3949 -1.186,-3.8441 -3.628,-4.7051 -4.777,-4.7051 -1.4,0 -1.975,1.1481 -1.975,2.3699 0,0.7911 0.216,1.5801 0.611,3.1614 l 1.22,4.9187"
           inkscape:connector-curvature="0" />
        <path
           id="path4999"
           style="fill:#000000;fill-opacity:1;fill-rule:nonzero;stroke:none"
           d="m 390.891,26.3359 c 0,2.37 -0.898,3.77 -2.298,3.77 -1.186,0 -1.903,-0.8969 -1.903,-1.9028 0,-0.9691 0.717,-1.9031 1.903,-1.9031 0.431,0 0.898,0.1441 1.256,0.4672 0.108,0.0719 0.144,0.1078 0.18,0.1078 0.036,0 0.072,-0.0359 0.072,-0.5391 0,-2.6578 -1.256,-4.8121 -2.442,-5.998 -0.395,-0.3938 -0.395,-0.466 -0.395,-0.5731 0,-0.2519 0.18,-0.3949 0.359,-0.3949 0.395,0 3.269,2.766 3.269,6.9672"
           inkscape:connector-curvature="0" />
        <path
           id="path5001"
           style="fill:#000000;fill-opacity:1;fill-rule:nonzero;stroke:none"
           d="m 406.998,40.666 3.377,0 c 0.717,0 1.077,0 1.077,0.7192 0,0.3949 -0.359,0.3949 -1.006,0.3949 l -3.159,0 c 1.292,5.09801 1.472,5.8168 1.472,6.0328 0,0.61091 -0.431,0.9699 -1.041,0.9699 -0.108,0 -1.114,-0.0359 -1.437,-1.2937 l -1.4,-5.709 -3.377,0 c -0.717,0 -1.077,0 -1.077,-0.6832 0,-0.4309 0.288,-0.4309 1.005,-0.4309 l 3.161,0 c -2.586,-10.2 -2.73,-10.809 -2.73,-11.4558 0,-1.9391 1.364,-3.3051 3.305,-3.3051 3.663,0 5.709,5.2437 5.709,5.5308 0,0.359 -0.287,0.359 -0.431,0.359 -0.322,0 -0.358,-0.1078 -0.537,-0.5027 -1.545,-3.7363 -3.448,-4.5973 -4.669,-4.5973 -0.755,0 -1.114,0.4672 -1.114,1.652 0,0.8633 0.072,1.114 0.216,1.723 L 407,40.6648"
           inkscape:connector-curvature="0" />
        <path
           id="path5003"
           style="fill:#000000;fill-opacity:1;fill-rule:nonzero;stroke:none"
           d="m 422.88,35.2781 c 0,2.802 -0.395,7.1469 -2.37,11.2059 -2.155,4.4172 -5.244,6.7519 -5.603,6.7519 -0.216,0 -0.359,-0.1437 -0.359,-0.3589 0,-0.1079 0,-0.18009 0.683,-0.827 3.519,-3.5551 5.567,-9.266 5.567,-16.7719 0,-6.141 -1.33,-12.4621 -5.783,-16.9871 -0.467,-0.4301 -0.467,-0.5019 -0.467,-0.609 0,-0.216 0.144,-0.359 0.359,-0.359 0.359,0 3.592,2.4418 5.711,7.0032 1.831,3.95 2.263,7.9379 2.263,10.9527"
           inkscape:connector-curvature="0" />
        <path
           id="path5005"
           style="fill:#000000;fill-opacity:1;fill-rule:nonzero;stroke:none"
           d="m 449.089,34.5609 10.02,0 c 0.503,0 1.184,0 1.184,0.7172 0,0.7188 -0.681,0.7188 -1.184,0.7188 l -10.02,0 0,10.0562 c 0,0.5028 0,1.184 -0.719,1.184 -0.719,0 -0.719,-0.6812 -0.719,-1.184 l 0,-10.0562 -10.055,0 c -0.503,0 -1.186,0 -1.186,-0.7188 0,-0.7172 0.683,-0.7172 1.186,-0.7172 l 10.055,0 0,-10.0558 c 0,-0.5031 0,-1.186 0.719,-1.186 0.719,0 0.719,0.6829 0.719,1.186 l 0,10.0558"
           inkscape:connector-curvature="0" />
        <path
           id="path5007"
           style="fill:#000000;fill-opacity:1;fill-rule:nonzero;stroke:none"
           d="m 492.855,46.7359 c 1.759,2.8 3.267,2.9082 4.597,2.9801 0.431,0.036 0.467,0.6469 0.467,0.6828 0,0.2883 -0.18,0.4313 -0.467,0.4313 -0.934,0 -1.975,-0.1082 -2.945,-0.1082 -1.186,0 -2.406,0.1082 -3.556,0.1082 -0.214,0 -0.681,0 -0.681,-0.6832 0,-0.3949 0.323,-0.4309 0.573,-0.4309 0.97,-0.0719 1.653,-0.4308 1.653,-1.184 0,-0.539 -0.539,-1.33 -0.539,-1.366 L 480.932,29.641 478.49,48.6391 c 0,0.6089 0.825,1.0769 2.478,1.0769 0.502,0 0.897,0 0.897,0.7192 0,0.3226 -0.287,0.3949 -0.503,0.3949 -1.436,0 -2.98,-0.1082 -4.453,-0.1082 -0.645,0 -1.328,0.0359 -1.975,0.0359 -0.647,0 -1.328,0.0723 -1.939,0.0723 -0.252,0 -0.683,0 -0.683,-0.6832 0,-0.4309 0.323,-0.4309 0.898,-0.4309 2.011,0 2.047,-0.323 2.155,-1.21989 l 2.838,-22.15901 c 0.108,-0.7191 0.252,-0.8269 0.717,-0.8269 0.575,0 0.719,0.1796 1.006,0.6468 l 12.93,20.5801"
           inkscape:connector-curvature="0" />
        <path
           id="path5009"
           style="fill:#000000;fill-opacity:1;fill-rule:nonzero;stroke:none"
           d="m 511.088,17.6809 c 0,0.1082 0,0.18 -0.611,0.789 -4.489,4.525 -5.637,11.3141 -5.637,16.8082 0,6.25 1.364,12.4981 5.781,16.9879 0.467,0.43091 0.467,0.5031 0.467,0.611 0,0.2519 -0.144,0.3589 -0.359,0.3589 -0.359,0 -3.591,-2.4418 -5.709,-7.0031 -1.833,-3.9519 -2.262,-7.9367 -2.262,-10.9547 0,-2.8019 0.394,-7.1472 2.37,-11.2051 2.155,-4.4171 5.242,-6.7519 5.602,-6.7519 0.216,0 0.359,0.1078 0.359,0.359"
           inkscape:connector-curvature="0" />
        <path
           id="path5011"
           style="fill:#000000;fill-opacity:1;fill-rule:nonzero;stroke:none"
           d="m 525.095,37.1449 c 0.216,0.934 1.042,4.2391 3.556,4.2391 0.178,0 1.041,0 1.795,-0.4668 -1.006,-0.1801 -1.723,-1.0781 -1.723,-1.9391 0,-0.575 0.394,-1.2582 1.364,-1.2582 0.791,0 1.939,0.6473 1.939,2.0832 0,1.8688 -2.119,2.3699 -3.339,2.3699 -2.084,0 -3.341,-1.9031 -3.772,-2.7281 -0.898,2.3699 -2.837,2.7281 -3.878,2.7281 -3.736,0 -5.783,-4.6332 -5.783,-5.53 0,-0.359 0.359,-0.359 0.431,-0.359 0.288,0 0.395,0.0719 0.467,0.39491 1.22,3.80629 3.591,4.70509 4.813,4.70509 0.681,0 1.939,-0.3231 1.939,-2.4059 0,-1.114 -0.611,-3.5203 -1.939,-8.548 -0.575,-2.227 -1.833,-3.734 -3.412,-3.734 -0.216,0 -1.041,0 -1.795,0.4668 0.898,0.1801 1.688,0.9332 1.688,1.9391 0,0.9691 -0.789,1.2558 -1.328,1.2558 -1.078,0 -1.975,-0.9328 -1.975,-2.0828 0,-1.652 1.795,-2.3699 3.375,-2.3699 2.37,0 3.664,2.514 3.772,2.7301 0.43,-1.3282 1.723,-2.7301 3.878,-2.7301 3.698,0 5.747,4.6328 5.747,5.5308 0,0.359 -0.323,0.359 -0.431,0.359 -0.323,0 -0.395,-0.1437 -0.467,-0.3949 -1.186,-3.8441 -3.628,-4.7051 -4.777,-4.7051 -1.4,0 -1.975,1.1481 -1.975,2.3699 0,0.7911 0.216,1.5801 0.611,3.1614 l 1.22,4.9187"
           inkscape:connector-curvature="0" />
        <path
           id="path5013"
           style="fill:#000000;fill-opacity:1;fill-rule:nonzero;stroke:none"
           d="m 543.98,35.2781 c 0,2.802 -0.395,7.1469 -2.37,11.2059 -2.155,4.4172 -5.244,6.7519 -5.603,6.7519 -0.216,0 -0.359,-0.1437 -0.359,-0.3589 0,-0.1079 0,-0.18009 0.683,-0.827 3.519,-3.5551 5.567,-9.266 5.567,-16.7719 0,-6.141 -1.33,-12.4621 -5.783,-16.9871 -0.467,-0.4301 -0.467,-0.5019 -0.467,-0.609 0,-0.216 0.144,-0.359 0.359,-0.359 0.359,0 3.592,2.4418 5.711,7.0032 1.831,3.95 2.263,7.9379 2.263,10.9527"
           inkscape:connector-curvature="0" />
        <path
           id="path5015"
           style="fill:#000000;fill-opacity:1;fill-rule:nonzero;stroke:none"
           d="m 564.911,50.291 c 0.036,0.1442 0.108,0.359 0.108,0.5391 0,0.359 -0.252,0.3949 -0.431,0.3949 -0.359,0 -0.395,-0.0719 -0.539,-0.7191 l -5.961,-23.7387 c -2.73,0.3226 -4.095,1.6519 -4.095,4.0219 0,0.7187 0,1.6519 1.941,6.68 0.142,0.4309 0.394,1.0418 0.394,1.761 0,1.616 -1.1479,2.9437 -2.944,2.9437 -3.412,0 -4.741,-5.2058 -4.741,-5.5297 0,-0.3589 0.358,-0.3589 0.43,-0.3589 0.359,0 0.395,0.0718 0.575,0.6468 0.97,3.411 2.406,4.4532 3.628,4.4532 0.288,0 0.897,0 0.897,-1.15 0,-0.9332 -0.359,-1.8313 -0.825,-3.0891 -1.725,-4.52499 -1.725,-5.4582 -1.725,-6.0691 0,-3.4122 2.802,-4.884 6.25,-5.1 -0.287,-1.2918 -0.287,-1.3641 -0.791,-3.2692 -0.108,-0.3937 -0.827,-3.3027 -0.827,-3.4109 0,-0.036 0,-0.359 0.431,-0.359 0.072,0 0.252,0 0.323,0.1441 0.108,0.0719 0.323,0.97 0.431,1.4719 l 1.364,5.352 c 1.33,0 4.489,0 7.866,3.8441 1.472,1.652 2.227,3.2309 2.622,4.309 0.323,0.8969 1.114,4.0219 1.114,5.6019 0,2.0129 -0.97,2.5141 -1.581,2.5141 -0.897,0 -1.795,-0.9328 -1.795,-1.723 0,-0.4668 0.216,-0.6829 0.539,-0.9692 0.395,-0.3949 1.292,-1.3297 1.292,-3.0527 0,-2.2981 -1.867,-5.2442 -3.125,-6.536 -3.159,-3.1972 -5.458,-3.1972 -6.752,-3.1972 l 5.927,23.5953"
           inkscape:connector-curvature="0" />
        <path
           id="path5017"
           style="fill:#000000;fill-opacity:1;fill-rule:nonzero;stroke:none"
           d="m 584.088,17.6809 c 0,0.1082 0,0.18 -0.611,0.789 -4.489,4.525 -5.637,11.3141 -5.637,16.8082 0,6.25 1.364,12.4981 5.781,16.9879 0.467,0.43091 0.467,0.5031 0.467,0.611 0,0.2519 -0.144,0.3589 -0.359,0.3589 -0.3589,0 -3.591,-2.4418 -5.709,-7.0031 -1.833,-3.9519 -2.262,-7.9367 -2.262,-10.9547 0,-2.8019 0.394,-7.1472 2.37,-11.2051 2.155,-4.4171 5.2421,-6.7519 5.602,-6.7519 0.216,0 0.359,0.1078 0.359,0.359"
           inkscape:connector-curvature="0" />
        <path
           id="path5019"
           style="fill:#000000;fill-opacity:1;fill-rule:nonzero;stroke:none"
           d="m 598.195,37.1449 c 0.216,0.934 1.042,4.2391 3.556,4.2391 0.178,0 1.041,0 1.795,-0.4668 -1.006,-0.1801 -1.723,-1.0781 -1.723,-1.9391 0,-0.575 0.394,-1.2582 1.364,-1.2582 0.791,0 1.939,0.6473 1.939,2.0832 0,1.8688 -2.119,2.3699 -3.339,2.3699 -2.084,0 -3.341,-1.9031 -3.772,-2.7281 -0.898,2.3699 -2.837,2.7281 -3.878,2.7281 -3.736,0 -5.783,-4.6332 -5.783,-5.53 0,-0.359 0.359,-0.359 0.431,-0.359 0.288,0 0.3951,0.0719 0.467,0.39491 1.22,3.80629 3.591,4.70509 4.813,4.70509 0.681,0 1.939,-0.3231 1.939,-2.4059 0,-1.114 -0.611,-3.5203 -1.939,-8.548 -0.575,-2.227 -1.833,-3.734 -3.412,-3.734 -0.216,0 -1.041,0 -1.795,0.4668 0.898,0.1801 1.688,0.9332 1.688,1.9391 0,0.9691 -0.789,1.2558 -1.328,1.2558 -1.078,0 -1.975,-0.9328 -1.975,-2.0828 0,-1.652 1.795,-2.3699 3.375,-2.3699 2.37,0 3.664,2.514 3.772,2.7301 0.43,-1.3282 1.723,-2.7301 3.878,-2.7301 3.698,0 5.747,4.6328 5.747,5.5308 0,0.359 -0.323,0.359 -0.431,0.359 -0.323,0 -0.395,-0.1437 -0.467,-0.3949 -1.186,-3.8441 -3.628,-4.7051 -4.777,-4.7051 -1.4,0 -1.975,1.1481 -1.975,2.3699 0,0.7911 0.216,1.5801 0.611,3.1614 l 1.22,4.9187"
           inkscape:connector-curvature="0" />
        <path
           id="path5021"
           style="fill:#000000;fill-opacity:1;fill-rule:nonzero;stroke:none"
           d="m 613.991,26.3359 c 0,2.37 -0.898,3.77 -2.298,3.77 -1.186,0 -1.903,-0.8969 -1.903,-1.9028 0,-0.9691 0.717,-1.9031 1.903,-1.9031 0.431,0 0.898,0.1441 1.256,0.4672 0.108,0.0719 0.144,0.1078 0.18,0.1078 0.036,0 0.072,-0.0359 0.072,-0.5391 0,-2.6578 -1.256,-4.8121 -2.442,-5.998 -0.395,-0.3938 -0.395,-0.466 -0.395,-0.5731 0,-0.2519 0.18,-0.3949 0.359,-0.3949 0.395,0 3.269,2.766 3.269,6.9672"
           inkscape:connector-curvature="0" />
        <path
           id="path5023"
           style="fill:#000000;fill-opacity:1;fill-rule:nonzero;stroke:none"
           d="m 629.998,40.666 3.377,0 c 0.717,0 1.077,0 1.077,0.7192 0,0.3949 -0.359,0.3949 -1.006,0.3949 l -3.159,0 c 1.292,5.09801 1.472,5.8168 1.472,6.0328 0,0.61091 -0.431,0.9699 -1.041,0.9699 -0.108,0 -1.114,-0.0359 -1.437,-1.2937 l -1.4,-5.709 -3.377,0 c -0.717,0 -1.077,0 -1.077,-0.6832 0,-0.4309 0.288,-0.4309 1.005,-0.4309 l 3.161,0 c -2.586,-10.2 -2.73,-10.809 -2.73,-11.4558 0,-1.9391 1.364,-3.3051 3.305,-3.3051 3.663,0 5.709,5.2437 5.709,5.5308 0,0.359 -0.287,0.359 -0.431,0.359 -0.322,0 -0.358,-0.1078 -0.537,-0.5027 -1.545,-3.7363 -3.448,-4.5973 -4.669,-4.5973 -0.755,0 -1.114,0.4672 -1.114,1.652 0,0.8633 0.072,1.114 0.216,1.723 L 630,40.6648"
           inkscape:connector-curvature="0" />
        <path
           id="path5025"
           style="fill:#000000;fill-opacity:1;fill-rule:nonzero;stroke:none"
           d="m 645.98,35.2781 c 0,2.802 -0.395,7.1469 -2.37,11.2059 -2.155,4.4172 -5.244,6.7519 -5.603,6.7519 -0.216,0 -0.359,-0.1437 -0.359,-0.3589 0,-0.1079 0,-0.18009 0.683,-0.827 3.519,-3.5551 5.567,-9.266 5.567,-16.7719 0,-6.141 -1.33,-12.4621 -5.783,-16.9871 -0.467,-0.4301 -0.467,-0.5019 -0.467,-0.609 0,-0.216 0.144,-0.359 0.359,-0.359 0.359,0 3.592,2.4418 5.711,7.0032 1.831,3.95 2.263,7.9379 2.263,10.9527"
           inkscape:connector-curvature="0" />
        <path
           id="path5027"
           style="fill:#000000;fill-opacity:1;fill-rule:nonzero;stroke:none"
           d="m 672.189,34.5609 10.02,0 c 0.503,0 1.184,0 1.184,0.7172 0,0.7188 -0.681,0.7188 -1.184,0.7188 l -10.02,0 0,10.0562 c 0,0.5028 0,1.184 -0.719,1.184 -0.719,0 -0.719,-0.6812 -0.719,-1.184 l 0,-10.0562 -10.055,0 c -0.503,0 -1.186,0 -1.186,-0.7188 0,-0.7172 0.683,-0.7172 1.186,-0.7172 l 10.055,0 0,-10.0558 c 0,-0.5031 0,-1.186 0.719,-1.186 0.719,0 0.719,0.6829 0.719,1.186 l 0,10.0558"
           inkscape:connector-curvature="0" />
        <path
           id="path5029"
           style="fill:#000000;fill-opacity:1;fill-rule:nonzero;stroke:none"
           d="m 710.216,39.8391 c 0.036,0.216 0.108,0.3949 0.108,0.6468 0,0.611 -0.431,0.97 -1.042,0.97 -0.358,0 -1.328,-0.252 -1.472,-1.545 -0.647,1.3301 -1.903,2.2629 -3.341,2.2629 -4.094,0 -8.547,-5.0277 -8.547,-10.1976 0,-3.5563 2.191,-5.675 4.777,-5.675 2.119,0 3.806,1.6879 4.166,2.0828 l 0.036,-0.036 c -0.755,-3.1968 -1.184,-4.6691 -1.184,-4.741 -0.144,-0.323 -1.366,-3.8781 -5.172,-3.8781 -0.683,0 -1.867,0.0359 -2.873,0.359 1.078,0.3223 1.472,1.2562 1.472,1.8672 0,0.575 -0.394,1.2558 -1.364,1.2558 -0.791,0 -1.939,-0.6449 -1.939,-2.0828 0,-1.4722 1.328,-2.191 4.777,-2.191 4.489,0 7.075,2.802 7.614,4.9559 l 3.986,15.9449 -0.002,0.0012 z m -4.669,-8.9422 c -0.216,-0.934 -1.042,-1.8309 -1.831,-2.5141 -0.755,-0.6469 -1.869,-1.2918 -2.909,-1.2918 -1.795,0 -2.334,1.8668 -2.334,3.3031 0,1.725 1.041,5.9629 2.011,7.7938 0.97,1.759 2.514,3.1973 4.022,3.1973 2.37,0 2.873,-2.909 2.873,-3.0891 0,-0.1801 -0.072,-0.3949 -0.108,-0.5391 l -1.723,-6.859"
           inkscape:connector-curvature="0" />
        <path
           id="path5031"
           style="fill:#000000;fill-opacity:1;fill-rule:nonzero;stroke:none"
           d="m 717.411,51.9422 c 0,0.64691 0,1.2937 -0.719,1.2937 -0.719,0 -0.719,-0.64679 -0.719,-1.2937 l 0,-33.3281 c 0,-0.6469 0,-1.2922 0.719,-1.2922 0.719,0 0.719,0.6453 0.719,1.2922 l 0,33.3281"
           inkscape:connector-curvature="0" />
        <path
           id="path5033"
           style="fill:#000000;fill-opacity:1;fill-rule:nonzero;stroke:none"
           d="m 739.011,50.291 c 0.036,0.1442 0.108,0.359 0.108,0.5391 0,0.359 -0.252,0.3949 -0.431,0.3949 -0.359,0 -0.395,-0.0719 -0.539,-0.7191 l -5.961,-23.7387 c -2.73,0.3226 -4.095,1.6519 -4.095,4.0219 0,0.7187 0,1.6519 1.941,6.68 0.142,0.4309 0.394,1.0418 0.394,1.761 0,1.616 -1.148,2.9437 -2.944,2.9437 -3.412,0 -4.741,-5.2058 -4.741,-5.5297 0,-0.3589 0.358,-0.3589 0.43,-0.3589 0.359,0 0.395,0.0718 0.575,0.6468 0.97,3.411 2.406,4.4532 3.628,4.4532 0.288,0 0.897,0 0.897,-1.15 0,-0.9332 -0.359,-1.8313 -0.825,-3.0891 -1.725,-4.52499 -1.725,-5.4582 -1.725,-6.0691 0,-3.4122 2.802,-4.884 6.25,-5.1 -0.287,-1.2918 -0.287,-1.3641 -0.791,-3.2692 -0.108,-0.3937 -0.827,-3.3027 -0.827,-3.4109 0,-0.036 0,-0.359 0.431,-0.359 0.072,0 0.252,0 0.323,0.1441 0.108,0.0719 0.323,0.97 0.431,1.4719 l 1.364,5.352 c 1.33,0 4.489,0 7.866,3.8441 1.472,1.652 2.227,3.2309 2.622,4.309 0.323,0.8969 1.114,4.0219 1.114,5.6019 0,2.0129 -0.97,2.5141 -1.581,2.5141 -0.897,0 -1.7949,-0.9328 -1.7949,-1.723 0,-0.4668 0.2159,-0.6829 0.5389,-0.9692 0.395,-0.3949 1.292,-1.3297 1.292,-3.0527 0,-2.2981 -1.867,-5.2442 -3.125,-6.536 -3.159,-3.1972 -5.458,-3.1972 -6.752,-3.1972 l 5.927,23.5953"
           inkscape:connector-curvature="0" />
        <path
           id="path5035"
           style="fill:#000000;fill-opacity:1;fill-rule:nonzero;stroke:none"
           d="m 758.288,17.6809 c 0,0.1082 0,0.18 -0.611,0.789 -4.489,4.525 -5.637,11.3141 -5.637,16.8082 0,6.25 1.364,12.4981 5.781,16.9879 0.467,0.43091 0.467,0.5031 0.467,0.611 0,0.2519 -0.144,0.3589 -0.359,0.3589 -0.359,0 -3.591,-2.4418 -5.709,-7.0031 -1.833,-3.9519 -2.2621,-7.9367 -2.2621,-10.9547 0,-2.8019 0.3941,-7.1472 2.3701,-11.2051 2.155,-4.4171 5.242,-6.7519 5.6021,-6.7519 0.2159,0 0.3589,0.1078 0.3589,0.359"
           inkscape:connector-curvature="0" />
        <path
           id="path5037"
           style="fill:#000000;fill-opacity:1;fill-rule:nonzero;stroke:none"
           d="m 772.295,37.1449 c 0.216,0.934 1.042,4.2391 3.556,4.2391 0.178,0 1.041,0 1.795,-0.4668 -1.006,-0.1801 -1.723,-1.0781 -1.723,-1.9391 0,-0.575 0.394,-1.2582 1.364,-1.2582 0.791,0 1.939,0.6473 1.939,2.0832 0,1.8688 -2.119,2.3699 -3.339,2.3699 -2.084,0 -3.341,-1.9031 -3.772,-2.7281 -0.898,2.3699 -2.837,2.7281 -3.878,2.7281 -3.736,0 -5.783,-4.6332 -5.783,-5.53 0,-0.359 0.359,-0.359 0.4309,-0.359 0.2881,0 0.3951,0.0719 0.4671,0.39491 1.22,3.80629 3.591,4.70509 4.813,4.70509 0.681,0 1.939,-0.3231 1.939,-2.4059 0,-1.114 -0.611,-3.5203 -1.939,-8.548 -0.575,-2.227 -1.833,-3.734 -3.412,-3.734 -0.216,0 -1.041,0 -1.7951,0.4668 0.8981,0.1801 1.6881,0.9332 1.6881,1.9391 0,0.9691 -0.789,1.2558 -1.328,1.2558 -1.078,0 -1.975,-0.9328 -1.975,-2.0828 0,-1.652 1.795,-2.3699 3.375,-2.3699 2.37,0 3.664,2.514 3.772,2.7301 0.43,-1.3282 1.723,-2.7301 3.878,-2.7301 3.698,0 5.747,4.6328 5.747,5.5308 0,0.359 -0.323,0.359 -0.431,0.359 -0.323,0 -0.395,-0.1437 -0.467,-0.3949 -1.186,-3.8441 -3.628,-4.7051 -4.777,-4.7051 -1.4,0 -1.975,1.1481 -1.975,2.3699 0,0.7911 0.216,1.5801 0.611,3.1614 l 1.22,4.9187"
           inkscape:connector-curvature="0" />
        <path
           id="path5039"
           style="fill:#000000;fill-opacity:1;fill-rule:nonzero;stroke:none"
           d="m 788.091,26.3359 c 0,2.37 -0.898,3.77 -2.298,3.77 -1.186,0 -1.903,-0.8969 -1.903,-1.9028 0,-0.9691 0.717,-1.9031 1.903,-1.9031 0.431,0 0.898,0.1441 1.256,0.4672 0.108,0.0719 0.144,0.1078 0.18,0.1078 0.036,0 0.072,-0.0359 0.072,-0.5391 0,-2.6578 -1.256,-4.8121 -2.442,-5.998 -0.395,-0.3938 -0.395,-0.466 -0.395,-0.5731 0,-0.2519 0.18,-0.3949 0.359,-0.3949 0.395,0 3.269,2.766 3.269,6.9672"
           inkscape:connector-curvature="0" />
        <path
           id="path5041"
           style="fill:#000000;fill-opacity:1;fill-rule:nonzero;stroke:none"
           d="m 804.098,40.666 3.377,0 c 0.717,0 1.077,0 1.077,0.7192 0,0.3949 -0.359,0.3949 -1.006,0.3949 l -3.159,0 c 1.292,5.09801 1.472,5.8168 1.472,6.0328 0,0.61091 -0.431,0.9699 -1.041,0.9699 -0.108,0 -1.114,-0.0359 -1.437,-1.2937 l -1.4,-5.709 -3.377,0 c -0.717,0 -1.077,0 -1.077,-0.6832 0,-0.4309 0.288,-0.4309 1.005,-0.4309 l 3.161,0 c -2.586,-10.2 -2.73,-10.809 -2.73,-11.4558 0,-1.9391 1.364,-3.3051 3.305,-3.3051 3.663,0 5.709,5.2437 5.709,5.5308 0,0.359 -0.287,0.359 -0.431,0.359 -0.322,0 -0.358,-0.1078 -0.537,-0.5027 -1.545,-3.7363 -3.448,-4.5973 -4.669,-4.5973 -0.755,0 -1.114,0.4672 -1.114,1.652 0,0.8633 0.072,1.114 0.216,1.723 l 2.658,10.5949"
           inkscape:connector-curvature="0" />
        <path
           id="path5043"
           style="fill:#000000;fill-opacity:1;fill-rule:nonzero;stroke:none"
           d="m 820.08,35.2781 c 0,2.802 -0.395,7.1469 -2.37,11.2059 -2.155,4.4172 -5.244,6.7519 -5.603,6.7519 -0.216,0 -0.359,-0.1437 -0.359,-0.3589 0,-0.1079 0,-0.18009 0.683,-0.827 3.519,-3.5551 5.567,-9.266 5.567,-16.7719 0,-6.141 -1.33,-12.4621 -5.783,-16.9871 -0.467,-0.4301 -0.467,-0.5019 -0.467,-0.609 0,-0.216 0.144,-0.359 0.359,-0.359 0.359,0 3.592,2.4418 5.711,7.0032 1.831,3.95 2.263,7.9379 2.263,10.9527"
           inkscape:connector-curvature="0" />
        <path
           id="path5045"
           style="fill:#000000;fill-opacity:1;fill-rule:nonzero;stroke:none"
           d="m 829.311,51.9422 c 0,0.64691 0,1.2937 -0.719,1.2937 -0.719,0 -0.719,-0.64679 -0.719,-1.2937 l 0,-33.3281 c 0,-0.6469 0,-1.2922 0.719,-1.2922 0.719,0 0.719,0.6453 0.719,1.2922 l 0,33.3281"
           inkscape:connector-curvature="0" />
        <path
           id="path5047"
           style="fill:#000000;fill-opacity:1;fill-rule:nonzero;stroke:none"
           d="m 846.258,45.7609 -0.853,0 c -0.075,-0.55 -0.325,-2.03 -0.6519,-2.28 -0.2001,-0.152 -2.1301,-0.152 -2.4811,-0.152 l -4.6111,0 c 2.6311,2.3313 3.508,3.0332 5.0131,4.2109 1.855,1.48011 3.584,3.0332 3.584,5.4141 0,3.0332 -2.658,4.8883 -5.866,4.8883 -3.108,0 -5.212,-2.1813 -5.212,-4.4863 0,-1.2778 1.077,-1.4047 1.328,-1.4047 0.602,0 1.3279,0.4269 1.3279,1.3297 0,0.45 -0.175,1.3281 -1.4799,1.3281 0.778,1.78011 2.481,2.3308 3.659,2.3308 2.506,0 3.811,-1.9558 3.811,-3.9859 0,-2.1801 -1.555,-3.909 -2.356,-4.8117 l -6.041,-5.9641 c -0.25,-0.2269 -0.25,-0.2769 -0.25,-0.9781 l 10.325,0 0.753,4.5609"
           inkscape:connector-curvature="0" />
        <path
           id="path5049"
           style="fill:#000000;fill-opacity:1;fill-rule:nonzero;stroke:none"
           d="m 867.0109,50.291 c 0.0361,0.1442 0.1081,0.359 0.1081,0.5391 0,0.359 -0.252,0.3949 -0.431,0.3949 -0.359,0 -0.395,-0.0719 -0.539,-0.7191 l -5.961,-23.7387 c -2.73,0.3226 -4.095,1.6519 -4.095,4.0219 0,0.7187 0,1.6519 1.941,6.68 0.142,0.4309 0.394,1.0418 0.394,1.761 0,1.616 -1.148,2.9437 -2.944,2.9437 -3.412,0 -4.741,-5.2058 -4.741,-5.5297 0,-0.3589 0.358,-0.3589 0.43,-0.3589 0.3589,0 0.395,0.0718 0.575,0.6468 0.97,3.411 2.406,4.4532 3.628,4.4532 0.288,0 0.8969,0 0.8969,-1.15 0,-0.9332 -0.3589,-1.8313 -0.825,-3.0891 -1.7249,-4.52499 -1.7249,-5.4582 -1.7249,-6.0691 0,-3.4122 2.802,-4.884 6.25,-5.1 -0.287,-1.2918 -0.287,-1.3641 -0.7911,-3.2692 -0.1079,-0.3937 -0.8269,-3.3027 -0.8269,-3.4109 0,-0.036 0,-0.359 0.4309,-0.359 0.0721,0 0.2521,0 0.3231,0.1441 0.108,0.0719 0.3229,0.97 0.431,1.4719 l 1.364,5.352 c 1.33,0 4.489,0 7.866,3.8441 1.472,1.652 2.227,3.2309 2.622,4.309 0.323,0.8969 1.114,4.0219 1.114,5.6019 0,2.0129 -0.9701,2.5141 -1.581,2.5141 -0.897,0 -1.795,-0.9328 -1.795,-1.723 0,-0.4668 0.216,-0.6829 0.5389,-0.9692 0.3951,-0.3949 1.292,-1.3297 1.292,-3.0527 0,-2.2981 -1.867,-5.2442 -3.125,-6.536 -3.159,-3.1972 -5.4578,-3.1972 -6.7519,-3.1972 l 5.9269,23.5953"
           inkscape:connector-curvature="0" />
        <path
           id="path5051"
           style="fill:#000000;fill-opacity:1;fill-rule:nonzero;stroke:none"
           d="m 886.188,17.6809 c 0,0.1082 0,0.18 -0.611,0.789 -4.489,4.525 -5.6369,11.3141 -5.6369,16.8082 0,6.25 1.3639,12.4981 5.7809,16.9879 0.467,0.43091 0.467,0.5031 0.467,0.611 0,0.2519 -0.1441,0.3589 -0.359,0.3589 -0.359,0 -3.591,-2.4418 -5.7089,-7.0031 -1.8331,-3.9519 -2.2621,-7.9367 -2.2621,-10.9547 0,-2.8019 0.394,-7.1472 2.37,-11.2051 2.155,-4.4171 5.242,-6.7519 5.602,-6.7519 0.216,0 0.359,0.1078 0.359,0.359"
           inkscape:connector-curvature="0" />
        <path
           id="path5053"
           style="fill:#000000;fill-opacity:1;fill-rule:nonzero;stroke:none"
           d="m 900.295,37.1449 c 0.2159,0.934 1.042,4.2391 3.556,4.2391 0.178,0 1.041,0 1.795,-0.4668 -1.0059,-0.1801 -1.723,-1.0781 -1.723,-1.9391 0,-0.575 0.394,-1.2582 1.364,-1.2582 0.7911,0 1.939,0.6473 1.939,2.0832 0,1.8688 -2.1191,2.3699 -3.339,2.3699 -2.084,0 -3.341,-1.9031 -3.7721,-2.7281 -0.8979,2.3699 -2.8369,2.7281 -3.8779,2.7281 -3.736,0 -5.783,-4.6332 -5.783,-5.53 0,-0.359 0.359,-0.359 0.4309,-0.359 0.2881,0 0.3951,0.0719 0.4671,0.39491 1.22,3.80629 3.591,4.70509 4.813,4.70509 0.681,0 1.939,-0.3231 1.939,-2.4059 0,-1.114 -0.611,-3.5203 -1.939,-8.548 -0.575,-2.227 -1.833,-3.734 -3.4119,-3.734 -0.2161,0 -1.0411,0 -1.7951,0.4668 0.898,0.1801 1.688,0.9332 1.688,1.9391 0,0.9691 -0.7891,1.2558 -1.328,1.2558 -1.0779,0 -1.975,-0.9328 -1.975,-2.0828 0,-1.652 1.795,-2.3699 3.375,-2.3699 2.37,0 3.664,2.514 3.7721,2.7301 0.4299,-1.3282 1.7229,-2.7301 3.8779,-2.7301 3.698,0 5.7469,4.6328 5.7469,5.5308 0,0.359 -0.3229,0.359 -0.4309,0.359 -0.323,0 -0.395,-0.1437 -0.467,-0.3949 -1.1861,-3.8441 -3.628,-4.7051 -4.7769,-4.7051 -1.4001,0 -1.9751,1.1481 -1.9751,2.3699 0,0.7911 0.216,1.5801 0.611,3.1614 l 1.22,4.9187"
           inkscape:connector-curvature="0" />
        <path
           id="path5055"
           style="fill:#000000;fill-opacity:1;fill-rule:nonzero;stroke:none"
           d="m 916.091,26.3359 c 0,2.37 -0.898,3.77 -2.298,3.77 -1.1861,0 -1.9029,-0.8969 -1.9029,-1.9028 0,-0.9691 0.7168,-1.9031 1.9029,-1.9031 0.4311,0 0.898,0.1441 1.256,0.4672 0.1079,0.0719 0.144,0.1078 0.18,0.1078 0.036,0 0.072,-0.0359 0.072,-0.5391 0,-2.6578 -1.256,-4.8121 -2.442,-5.998 -0.395,-0.3938 -0.395,-0.466 -0.395,-0.5731 0,-0.2519 0.18,-0.3949 0.3589,-0.3949 0.3951,0 3.2691,2.766 3.2691,6.9672"
           inkscape:connector-curvature="0" />
        <path
           id="path5057"
           style="fill:#000000;fill-opacity:1;fill-rule:nonzero;stroke:none"
           d="m 932.098,40.666 3.377,0 c 0.717,0 1.0769,0 1.0769,0.7192 0,0.3949 -0.3589,0.3949 -1.0059,0.3949 l -3.159,0 c 1.292,5.09801 1.472,5.8168 1.472,6.0328 0,0.61091 -0.431,0.9699 -1.041,0.9699 -0.1079,0 -1.114,-0.0359 -1.437,-1.2937 l -1.4,-5.709 -3.377,0 c -0.717,0 -1.077,0 -1.077,-0.6832 0,-0.4309 0.2879,-0.4309 1.0049,-0.4309 l 3.1611,0 c -2.5861,-10.2 -2.73,-10.809 -2.73,-11.4558 0,-1.9391 1.364,-3.3051 3.305,-3.3051 3.663,0 5.709,5.2437 5.709,5.5308 0,0.359 -0.2869,0.359 -0.431,0.359 -0.3219,0 -0.358,-0.1078 -0.537,-0.5027 -1.545,-3.7363 -3.448,-4.5973 -4.669,-4.5973 -0.755,0 -1.114,0.4672 -1.114,1.652 0,0.8633 0.072,1.114 0.216,1.723 l 2.658,10.5949"
           inkscape:connector-curvature="0" />
        <path
           id="path5059"
           style="fill:#000000;fill-opacity:1;fill-rule:nonzero;stroke:none"
           d="m 948.08,35.2781 c 0,2.802 -0.395,7.1469 -2.3699,11.2059 -2.1551,4.4172 -5.2441,6.7519 -5.6032,6.7519 -0.2158,0 -0.3589,-0.1437 -0.3589,-0.3589 0,-0.1079 0,-0.18009 0.683,-0.827 3.519,-3.5551 5.567,-9.266 5.567,-16.7719 0,-6.141 -1.33,-12.4621 -5.783,-16.9871 -0.467,-0.4301 -0.467,-0.5019 -0.467,-0.609 0,-0.216 0.144,-0.359 0.3589,-0.359 0.3591,0 3.5921,2.4418 5.7111,7.0032 1.831,3.95 2.263,7.9379 2.263,10.9527"
           inkscape:connector-curvature="0" />
      </g>
    </g>
  </g>
  <g
     id="nlse_schro_complex"
     inkscape:label="#g5682">
    <path
       sodipodi:nodetypes="cc"
       inkscape:connector-curvature="0"
       id="path5126"
       d="m 39.765018,226.35227 c 15.379971,60.18947 36.150015,57.23752 36.150015,57.23752"
       style="fill:none;stroke:#000000;stroke-width:1px;stroke-linecap:butt;stroke-linejoin:miter;stroke-opacity:1;marker-start:url(#Arrow1Lstart)" />
    <text
       sodipodi:linespacing="110%"
       id="text5572"
       y="268.81979"
       x="84.350037"
       style="font-size:24px;font-style:normal;font-variant:normal;font-weight:normal;font-stretch:normal;text-align:start;line-height:110.00000238%;letter-spacing:0px;word-spacing:0px;writing-mode:lr-tb;text-anchor:start;fill:#000000;fill-opacity:1;stroke:none;font-family:Arial;-inkscape-font-specification:Arial"
       xml:space="preserve"><tspan
         id="tspan5582"
         y="268.81979"
         x="84.350037"
         sodipodi:role="line">means equation</tspan><tspan
         id="tspan5576"
         y="295.21979"
         x="84.350037"
         sodipodi:role="line">is complex-valued</tspan></text>
    <path
       transform="matrix(1.0828567,0,0,1.0828567,9.404099,-5.9841766)"
       d="m 39.765017,192.9135 a 8.4350033,17.773758 0 1 1 -16.870007,0 8.4350033,17.773758 0 1 1 16.870007,0 z"
       sodipodi:ry="17.773758"
       sodipodi:rx="8.4350033"
       sodipodi:cy="192.9135"
       sodipodi:cx="31.330013"
       id="path5578"
       style="fill:none;stroke:#000000;stroke-width:0.92348325;stroke-linecap:square;stroke-linejoin:miter;stroke-miterlimit:4;stroke-opacity:1;stroke-dasharray:none;stroke-dashoffset:0"
       sodipodi:type="arc" />
  </g>
  <g
     id="nlse_schro_V"
     inkscape:label="#g5689">
    <path
       style="fill:none;stroke:#000000;stroke-width:1px;stroke-linecap:butt;stroke-linejoin:miter;stroke-opacity:1;marker-start:url(#Arrow1Lstart)"
       d="m 530.84146,226.35227 c -11.97172,43.14819 -36.15001,57.23752 -36.15001,57.23752"
       id="path5584"
       inkscape:connector-curvature="0"
       sodipodi:nodetypes="cc" />
    <text
       xml:space="preserve"
       style="font-size:24px;font-style:normal;font-variant:normal;font-weight:normal;font-stretch:normal;text-align:start;line-height:110.00000238%;letter-spacing:0px;word-spacing:0px;writing-mode:lr-tb;text-anchor:start;fill:#000000;fill-opacity:1;stroke:none;font-family:Arial;-inkscape-font-specification:Arial"
       x="398.35004"
       y="282.81979"
       id="text5586"
       sodipodi:linespacing="110%"><tspan
         sodipodi:role="line"
         x="398.35004"
         y="282.81979"
         id="tspan5594">acts like</tspan><tspan
         id="tspan5611"
         sodipodi:role="line"
         x="398.35004"
         y="309.21979">a diagonal term</tspan></text>
    <path
       transform="matrix(1.0828567,0,0,1.0828567,-43.877413,-20.861966)"
       d="m 546.17305,203.50757 a 16.61525,21.727633 0 1 1 -33.2305,0 16.61525,21.727633 0 1 1 33.2305,0 z"
       sodipodi:ry="21.727633"
       sodipodi:rx="16.61525"
       sodipodi:cy="203.50757"
       sodipodi:cx="529.5578"
       id="path5598"
       style="fill:none;stroke:#000000;stroke-width:0.92348323;stroke-linecap:square;stroke-linejoin:miter;stroke-miterlimit:4;stroke-opacity:1;stroke-dasharray:none;stroke-dashoffset:0"
       sodipodi:type="arc" />
  </g>
  <g
     id="nlse_schro_nonlinear"
     inkscape:label="#g5696">
    <text
       sodipodi:linespacing="110%"
       id="text5615"
       y="262.81979"
       x="817.44446"
       style="font-size:24px;font-style:normal;font-variant:normal;font-weight:normal;font-stretch:normal;text-align:center;line-height:110.00000238%;letter-spacing:0px;word-spacing:0px;writing-mode:lr-tb;text-anchor:middle;fill:#000000;fill-opacity:1;stroke:none;font-family:Arial;-inkscape-font-specification:Arial"
       xml:space="preserve"><tspan
         y="262.81979"
         x="817.44446"
         sodipodi:role="line"
         id="tspan5621">a highly nonlinear term,</tspan><tspan
         id="tspan5652"
         y="289.21979"
         x="817.44446"
         sodipodi:role="line">mocking us with evil laughter</tspan><tspan
         id="tspan5654"
         y="315.61978"
         x="817.44446"
         sodipodi:role="line">as it breaks our nicely</tspan><tspan
         id="tspan5656"
         y="342.01981"
         x="817.44446"
         sodipodi:role="line">linear system of equations</tspan></text>
    <rect
       y="171.52473"
       x="733.4353"
       height="63.865028"
       width="169.90508"
       id="rect5627"
       style="fill:none;stroke:#000000;stroke-width:1;stroke-linecap:square;stroke-linejoin:miter;stroke-miterlimit:4;stroke-opacity:1;stroke-dasharray:none;stroke-dashoffset:0" />
  </g>
  <text
     xml:space="preserve"
     style="font-size:40px;font-style:normal;font-variant:normal;font-weight:normal;font-stretch:normal;text-align:start;line-height:125%;letter-spacing:0px;word-spacing:0px;writing-mode:lr-tb;text-anchor:start;fill:#000000;fill-opacity:1;stroke:none;font-family:Arial;-inkscape-font-specification:Arial"
     x="112.625"
     y="460.47485"
     id="nlse_what_next"
     sodipodi:linespacing="125%"
     inkscape:label="#text5644"><tspan
       sodipodi:role="line"
       id="tspan5646"
       x="112.625"
       y="460.47485">So what do we do about the non-linear term?</tspan></text>
  <path
     style="fill:none;stroke:#000000;stroke-width:1px;stroke-linecap:butt;stroke-linejoin:miter;stroke-opacity:1"
     d="m -0.970018,387.60483 1026.205518,0"
     id="nlse_what_next_bar"
     inkscape:connector-curvature="0"
     sodipodi:nodetypes="cc"
     inkscape:label="#path5678" />
</svg>
